<svg xmlns="http://www.w3.org/2000/svg" version="1.0" width="130.000000pt" height="130.000000pt" viewBox="0 0 130.000000 130.000000" preserveAspectRatio="xMidYMid meet">
    <g transform="translate(0.000000,130.000000) scale(0.100000,-0.100000)" fill="#000000" stroke="none">
        <path d="M633 903 c8 -13 -50 -36 -66 -26 -6 4 -7 1 -2 -7 6 -10 4 -12 -7 -7 -16 6 -58 -26 -58 -44 0 -6 -4 -8 -9 -5 -11 7 -43 -28 -34 -37 3 -4 1 -7 -5 -7 -7 0 -11 -3 -10 -7 1 -5 -3 -18 -10 -29 -6 -12 -8 -24 -5 -28 3 -3 2 -6 -4 -6 -7 0 -10 -20 -10 -50 1 -27 6 -50 10 -50 4 0 3 -10 -4 -21 -8 -15 -8 -19 0 -15 6 4 11 2 11 -4 0 -7 7 -10 18 -6 16 6 16 5 0 -7 -14 -12 -13 -15 12 -39 16 -14 25 -30 22 -34 -4 -5 1 -2 11 5 19 15 22 9 7 -19 -8 -16 -8 -18 5 -14 8 3 22 -1 31 -10 9 -10 21 -15 28 -13 6 2 16 -2 21 -9 7 -9 15 -11 25 -4 8 5 11 12 7 17 -5 4 -12 1 -17 -7 -6 -8 -10 -10 -10 -4 0 22 27 36 49 25 27 -15 30 -14 26 8 -2 13 2 18 13 16 9 -1 23 2 30 8 6 5 12 6 12 1 0 -4 12 3 26 17 14 13 29 23 32 22 4 -2 8 2 8 7 1 6 2 15 3 21 0 6 8 9 16 6 8 -4 17 -2 20 3 4 6 0 10 -7 10 -8 0 -6 5 5 11 14 8 16 14 6 25 -9 11 -8 14 5 14 9 0 16 5 16 10 0 6 -4 10 -8 10 -5 0 -9 12 -10 28 -2 50 -17 89 -46 117 -11 11 -24 20 -29 20 -5 0 -15 9 -23 19 -10 14 -14 16 -14 5 0 -9 -3 -10 -8 -3 -4 6 -17 10 -30 9 -13 -1 -25 2 -28 7 -3 5 -12 4 -20 -3 -8 -6 -14 -8 -14 -4 0 4 -10 0 -23 -8 -13 -8 -28 -12 -34 -9 -13 9 -13 42 0 42 5 0 6 -7 3 -16 -5 -14 -4 -15 9 -4 8 7 13 16 10 20 -3 5 0 12 6 16 8 4 9 3 5 -4 -4 -7 -3 -12 3 -12 5 0 11 6 14 13 3 9 8 8 23 -3 18 -14 18 -14 4 5 -10 14 -6 13 14 -5 16 -14 26 -19 21 -11 -6 10 -4 12 5 6 8 -5 11 -4 7 2 -10 16 36 10 51 -7 10 -11 12 -11 6 -1 -5 9 -3 12 5 7 6 -4 9 -11 6 -15 -2 -5 2 -17 10 -27 13 -16 14 -17 9 -1 -4 10 -1 17 6 17 6 0 9 -4 5 -9 -3 -5 -1 -12 5 -16 6 -4 7 -11 4 -17 -4 -7 -2 -8 4 -4 7 4 22 -10 37 -34 16 -25 30 -38 38 -34 7 4 8 3 4 -2 -5 -5 -14 -9 -20 -9 -11 0 -12 -10 -8 -46 0 -5 5 -8 10 -4 5 3 13 0 17 -6 4 -7 3 -9 -2 -6 -6 3 -10 -3 -11 -13 -1 -11 3 -22 8 -25 5 -4 7 -11 3 -16 -3 -6 -12 -5 -22 3 -11 8 -10 4 3 -11 11 -14 14 -21 6 -16 -10 6 -12 4 -6 -5 6 -9 4 -11 -5 -5 -9 6 -11 4 -5 -5 6 -9 4 -11 -6 -5 -11 7 -11 5 1 -10 9 -11 10 -16 3 -11 -7 4 -13 3 -13 -3 0 -5 4 -12 9 -15 9 -6 26 22 22 38 -1 5 4 6 11 3 9 -3 14 5 15 22 1 14 3 45 6 69 2 23 1 45 -4 48 -4 2 -6 11 -3 18 3 8 0 17 -6 21 -8 5 -7 11 2 23 10 12 10 14 1 8 -12 -7 -18 5 -14 27 1 5 -3 6 -9 2 -6 -3 -8 -11 -5 -16 3 -5 -1 -6 -10 -3 -11 5 -13 10 -5 19 7 9 6 16 -5 25 -8 7 -12 17 -8 24 4 6 0 5 -9 -2 -10 -8 -19 -9 -22 -3 -3 5 0 12 6 15 7 4 3 4 -9 2 -13 -2 -23 -1 -23 2 0 4 -13 14 -29 23 -21 12 -32 14 -40 6 -8 -8 -11 -7 -11 2 0 7 -6 11 -12 8 -7 -2 -22 3 -32 12 -11 9 -16 11 -13 4z m42 -25 c5 4 5 1 1 -6 -6 -10 -11 -10 -22 -1 -8 6 -14 14 -14 16 0 3 6 0 13 -6 8 -6 18 -7 22 -3z m-130 -35 c-2 -10 -7 -27 -11 -37 -6 -15 -4 -18 7 -12 8 4 4 -1 -8 -12 -13 -11 -23 -25 -23 -31 0 -7 -7 -14 -15 -17 -8 -4 -13 -10 -10 -14 3 -5 1 -11 -5 -15 -6 -4 -8 -11 -5 -16 4 -5 -2 -6 -12 -2 -16 6 -16 5 -4 -10 8 -10 11 -20 8 -24 -3 -3 0 -21 8 -39 8 -19 11 -34 7 -34 -3 0 -1 -5 5 -11 6 -6 9 -17 6 -25 -3 -9 2 -12 16 -9 11 2 20 1 20 -3 -3 -18 2 -35 7 -29 4 4 15 -3 25 -14 9 -11 20 -20 23 -19 4 1 12 -1 19 -3 9 -4 9 -7 0 -18 -20 -20 -44 -20 -71 2 -14 10 -19 19 -12 19 10 0 10 3 0 15 -7 8 -16 12 -21 9 -5 -3 -9 0 -9 7 0 7 -3 9 -7 6 -12 -12 -32 27 -21 40 10 13 9 14 -14 17 -6 0 -13 7 -16 14 -2 8 2 12 13 10 10 -2 20 2 22 9 3 8 -3 11 -17 8 -11 -2 -18 0 -15 5 3 5 2 11 -3 14 -13 8 -8 71 6 68 7 -1 12 2 12 8 0 6 -6 10 -12 10 -10 0 -10 2 0 9 8 4 13 10 12 12 -4 12 14 39 27 39 8 0 11 5 8 10 -4 6 -12 7 -18 3 -7 -4 -6 0 2 10 7 9 17 15 21 12 4 -2 17 9 29 25 25 34 31 37 26 13z m286 -40 c7 -7 7 -13 1 -17 -5 -3 -17 3 -27 13 -15 17 -15 19 -1 17 9 -1 21 -7 27 -13z m36 -68 c0 -20 -4 -19 -17 5 -8 15 -8 18 3 14 8 -3 14 -11 14 -19z m19 -68 c2 -13 -1 -14 -15 -5 -22 14 -24 41 -3 29 9 -5 17 -16 18 -24z m4 -41 c0 -3 -4 -8 -10 -11 -5 -3 -10 -1 -10 4 0 6 5 11 10 11 6 0 10 -2 10 -4z m-240 -168 c0 -4 -4 -8 -9 -8 -6 0 -12 4 -15 8 -3 5 1 9 9 9 8 0 15 -4 15 -9z"/>
        <path d="M516 815 c-10 -16 -22 -23 -29 -18 -9 5 -8 2 1 -9 10 -13 8 -18 -12 -31 -23 -15 -31 -51 -10 -45 5 2 8 6 7 9 -1 3 11 20 27 37 16 18 25 32 19 32 -5 0 -2 11 7 25 9 14 14 25 11 25 -2 0 -12 -11 -21 -25z"/>
        <path d="M430 682 c0 -7 5 -12 10 -12 6 0 10 -5 10 -11 0 -5 -4 -8 -9 -5 -12 8 -8 -21 5 -34 7 -7 10 0 10 19 -1 29 -26 70 -26 43z"/>
        <path d="M465 581 c-3 -5 -1 -13 5 -16 8 -5 8 -11 1 -19 -8 -10 -1 -19 27 -37 20 -13 36 -29 35 -34 -2 -16 18 -35 36 -32 9 1 16 7 16 12 0 6 -3 9 -6 8 -3 -1 -21 12 -40 30 -33 31 -37 33 -60 36 -8 1 -8 5 0 15 8 10 9 16 1 21 -6 3 -8 11 -5 16 4 5 4 9 1 9 -3 0 -7 -4 -11 -9z m100 -129 c-3 -3 -11 0 -18 7 -9 10 -8 11 6 5 10 -3 15 -9 12 -12z"/>
        <path d="M594 834 l-29 -25 30 18 c16 10 31 17 33 15 2 -2 6 -1 8 1 3 3 1 7 -3 10 -5 3 -22 -5 -39 -19z"/>
        <path d="M696 853 c-12 -12 -6 -21 12 -18 9 1 25 -7 35 -19 l18 -21 -11 22 c-12 25 -44 46 -54 36z"/>
        <path d="M820 742 c0 -6 5 -14 10 -17 6 -4 7 -11 4 -17 -4 -7 -2 -8 5 -4 9 6 9 12 -1 24 -7 10 -14 19 -15 21 -2 2 -3 -1 -3 -7z"/>
        <path d="M799 531 c-1 -3 -1 -9 -1 -13 1 -3 -5 -12 -13 -18 -8 -7 -15 -9 -15 -4 0 4 -11 -3 -25 -16 -14 -13 -25 -20 -25 -16 0 5 -7 2 -17 -5 -9 -8 -18 -13 -20 -11 -1 1 -3 -1 -4 -5 0 -5 -8 -16 -16 -26 -9 -9 -13 -20 -10 -24 4 -3 7 -1 7 6 0 8 8 11 20 8 11 -3 26 0 33 6 6 7 21 13 31 15 11 2 29 10 41 18 12 8 25 11 30 7 4 -5 5 -2 1 5 -5 7 -14 11 -22 8 -7 -3 -16 0 -20 6 -5 7 -2 8 6 3 8 -5 11 -4 7 2 -9 14 25 11 35 -2 4 -5 8 1 8 14 0 18 -4 22 -17 17 -16 -6 -16 -6 0 12 14 16 15 19 2 19 -8 0 -16 -3 -16 -6z m-32 -48 c-4 -3 -2 -12 4 -20 6 -7 9 -14 5 -14 -3 -1 -10 -3 -16 -4 -5 -1 -12 -3 -15 -4 -3 0 -8 -1 -12 -2 -5 0 -16 -8 -25 -16 -10 -9 -18 -14 -19 -12 0 2 -2 12 -4 22 -2 9 1 15 5 12 5 -3 11 -1 15 5 4 6 10 8 14 5 5 -2 16 4 26 15 10 11 20 20 23 20 3 0 2 -3 -1 -7z"/>
        <path d="M739 453 c-12 -16 -12 -17 2 -6 9 7 20 9 24 5 5 -4 5 -1 1 6 -9 16 -11 15 -27 -5z"/>
        <path d="M699 433 c-13 -16 -12 -17 4 -4 16 13 21 21 13 21 -2 0 -10 -8 -17 -17z"/>
        <path d="M627 419 c6 -23 9 -24 16 -5 3 8 0 17 -7 19 -10 4 -12 -1 -9 -14z"/>
    </g>
</svg>