<?xml version="1.0" encoding="UTF-8"?>
<svg width="61px" height="58px" viewBox="0 0 61 58" version="1.1" xmlns="http://www.w3.org/2000/svg" xmlns:xlink="http://www.w3.org/1999/xlink">
    <title>lang</title>
    <g id="Home" stroke="none" stroke-width="1" fill="none" fill-rule="evenodd">
        <g id="Home-1600" transform="translate(-1264.000000, -861.000000)" fill-rule="nonzero">
            <g id="Benefits-6" transform="translate(70.000000, 849.000000)">
                <g id="lang" transform="translate(1194.000000, 12.000000)">
                    <path d="M48.6244778,24.5162012 C47.6323405,20.6365782 45.4004675,17.2565111 42.3822079,14.8136563 C41.9663472,14.8581194 41.5347937,14.7369357 41.2392448,14.4204631 C41.1799607,14.3576917 41.1529341,14.3245623 41.1381131,14.3045103 C41.1363694,14.3027667 41.1363694,14.3027667 41.133754,14.3018948 C41.0953937,14.2748683 41.003852,14.2277897 40.9768254,14.2103532 C40.8172813,14.1493254 40.649019,14.1057341 40.484244,14.0621429 C39.975098,13.9287536 39.4990813,13.7761841 39.0195774,13.5529968 C38.5575099,13.337656 38.3317071,12.8250226 38.3343226,12.3254667 C36.0658329,11.3141492 33.5532321,10.7492063 30.9072421,10.7492063 C29.0729214,10.7492063 27.3048595,11.0264468 25.6344421,11.5286183 C26.1810766,12.2443869 26.0912786,13.4876099 24.9631365,13.8049544 C22.4923833,14.4997992 20.7626817,15.5738881 18.9946198,17.4413381 C18.030381,18.4596302 17.7435504,19.6357226 17.1672738,20.8710992 C16.6860262,21.9033405 16.012977,22.8414246 15.4567524,23.8335619 C14.9397599,24.756825 13.9031595,24.6609242 13.2946254,24.1099306 C12.8526099,25.685319 12.5989087,27.3400437 12.5989087,29.0575397 C12.5989087,37.4584492 18.264902,44.5211067 25.9788131,46.6753873 C26.4914464,46.0999825 27.3833238,46.107829 27.9526258,46.5228179 C29.7198159,46.397275 31.501827,46.4879448 33.2550679,46.217679 C33.9542718,46.1095726 34.4930599,46.4644056 34.7868651,46.9500123 C38.5854083,46.1252655 41.9410643,44.1148361 44.4615115,41.3345849 C44.3926373,41.119244 44.3682262,40.8794921 44.4170484,40.6135853 C44.8119853,38.4837159 45.5207794,36.4828766 46.5076857,34.5578861 C47.9801988,31.6869651 48.503294,29.4184754 47.5774155,26.2188762 C47.314996,25.3139214 47.9139401,24.681848 48.6244778,24.5162012 Z" id="Path"></path>
                    <path d="M31.8496853,28.526598 C30.004031,29.3696532 27.6727698,28.7070659 26.6361694,26.8204357 C25.659725,25.0427837 24.0328988,24.6382567 24.0328988,24.6382567 C17.1332726,22.4961817 18.7199948,21.5171218 20.4523119,21.1091075 C21.2090563,20.9312552 21.9919556,20.8737147 22.7678802,20.9129468 C26.698069,21.1134667 27.8462631,17.6941675 27.8462631,17.6941675 C28.4364889,15.933952 26.2865675,11.9985321 25.9788131,11.450154 C19.7147476,13.2182159 14.8081143,18.1902361 13.1778008,24.4743536 C14.7889341,25.4481825 16.4079139,25.2703302 16.4079139,25.2703302 C20.511596,25.2703302 20.8890964,29.795104 20.88125,31.5404984 C20.8777627,32.3591425 20.9466369,33.1777865 21.1279766,33.9755067 C22.2857607,39.0469151 25.939581,38.528179 25.939581,38.528179 C27.1836758,38.528179 28.2603802,37.8193849 28.7817317,36.7854 C29.2577484,35.8429567 29.9778762,35.0600575 30.8636508,34.4846528 C33.3126083,32.8926996 33.5706687,30.8116524 33.3832262,29.3966798 C33.2881972,28.6756802 32.5140163,28.2232028 31.8496853,28.526598 Z" id="Path" fill="#E2C4FF"></path>
                    <path d="M49.2155754,29.0226667 C49.2155754,27.3661984 48.9941317,25.7620397 48.5869893,24.2354734 C44.5330012,24.7890825 42.4728778,24.1334698 41.5984369,23.6809925 C40.9524143,23.3462115 40.1852079,23.2555417 39.5287234,23.568527 C38.5697155,24.0262353 37.5758345,25.2415599 37.922821,28.3897214 C37.922821,28.3897214 38.3099115,30.7349317 40.9105667,32.047029 C42.2026119,32.6991544 42.900944,34.1158706 42.5774968,35.5360742 C42.1441996,37.4383972 42.1276349,39.9414079 44.1929893,41.6806996 C47.3027905,38.3860714 49.2155754,33.9310437 49.2155754,29.0226667 Z" id="Path" fill="#E2C4FF"></path>
                    <path d="M38.2698075,12.2949528 L37.8513313,12.6436829 C36.3683563,13.8023389 34.6639377,15.4840901 35.540994,17.1763032 C35.540994,17.1763032 37.2584901,19.1475004 39.5348262,17.7290405 C39.9724825,17.4561591 40.3255718,17.0716841 40.6350698,16.6593107 C40.9009766,16.3053496 41.4022762,15.7552278 42.2706143,15.1684893 L42.6062671,14.9766877 C41.3028881,13.8912651 39.8434524,12.9871821 38.2698075,12.2949528 Z" id="Path" fill="#E2C4FF"></path>
                    <path d="M30.9072421,47.365873 C32.3631905,47.365873 33.7781631,47.1906361 35.1355952,46.8698044 C34.6552194,45.8663333 34.3797226,44.7957317 34.2297687,43.8489294 C33.973452,42.228206 32.5471456,41.0529853 30.9063702,41.0529853 C28.1147853,41.0529853 25.8558857,43.3118849 25.8558857,46.1034698 L25.7966016,46.6378988 C27.4199405,47.1086845 29.1330774,47.365873 30.9072421,47.365873 Z" id="Path" fill="#E2C4FF"></path>
                    <path d="M30.9072421,48.2376984 C20.3311282,48.2376984 11.7270833,39.6336536 11.7270833,29.0575397 C11.7270833,18.4814258 20.3311282,9.87738095 30.9072421,9.87738095 C41.483356,9.87738095 50.0874008,18.4814258 50.0874008,29.0575397 C50.0874008,39.6336536 41.483356,48.2376984 30.9072421,48.2376984 Z M30.9072421,11.6210317 C21.2927516,11.6210317 13.4707341,19.4430492 13.4707341,29.0575397 C13.4707341,38.6720302 21.2927516,46.4940476 30.9072421,46.4940476 C40.5217325,46.4940476 48.34375,38.6720302 48.34375,29.0575397 C48.34375,19.4430492 40.5217325,11.6210317 30.9072421,11.6210317 Z" id="Shape" fill="#4D007E"></path>
                    <path d="M25.71465,39.4078508 C24.6405611,39.4078508 21.380806,38.997221 20.2779468,34.1681802 C20.0931198,33.3565107 20.0059373,32.496019 20.0094246,31.5352675 C20.0129119,30.5832341 19.8882409,28.2336647 18.644146,26.9843389 C18.0861778,26.424627 17.36605,26.1491302 16.4436587,26.1412837 C16.1010313,26.1674385 14.4088183,26.2363127 12.7261952,25.2197643 L12.1699706,24.8832397 L12.3338738,24.2546536 C14.0365488,17.6924238 19.1750877,12.4640869 25.7425484,10.6097143 L26.4033921,10.4231437 L26.7390448,11.0220877 C27.5411242,12.4527532 29.3362127,15.9932361 28.6727536,17.9696643 C28.2028397,19.3698159 26.3711345,21.975702 22.7234171,21.7821567 C21.9980583,21.7455401 21.2997262,21.8039524 20.6528317,21.9565218 C20.4156952,22.0123187 20.2360992,22.0672437 20.1027099,22.1169377 C20.5586746,22.4238202 21.6606619,22.9887631 24.291831,23.8056635 C24.3249603,23.8126381 26.2543099,24.312194 27.4007603,26.4002159 C28.1880187,27.8352405 29.9831071,28.4202353 31.4878778,27.7332369 L31.4878778,27.7332369 C32.051077,27.4769202 32.6883813,27.503075 33.2376313,27.8055984 C33.788625,28.1098655 34.1661254,28.6608591 34.2489488,29.2798552 C34.432904,30.6704167 34.3012583,33.290252 31.3405393,35.2143706 C30.5733329,35.7130548 29.958696,36.3913349 29.5611437,37.1768496 C28.8750171,38.537769 27.5018921,39.386927 25.9735821,39.3982607 C25.9125544,39.4034917 25.8253718,39.4078508 25.71465,39.4078508 Z M16.3599635,24.3976329 L16.4079139,24.3976329 C17.8159119,24.3976329 18.9841579,24.8535976 19.8795226,25.7541933 C21.5237853,27.4054306 21.7591782,30.089781 21.7530754,31.5431139 C21.7495881,32.3687325 21.8236933,33.1010659 21.9780063,33.7802179 C22.9160905,37.8873873 25.5324385,37.6964575 25.8262437,37.6624563 L25.939581,37.6554817 C26.8192528,37.6554817 27.6099984,37.1716187 28.0031917,36.3913349 C28.5384925,35.3311952 29.3632393,34.418394 30.388506,33.7523194 C32.0336405,32.6834615 32.750281,31.2562833 32.5192472,29.5100171 C32.505298,29.4045262 32.4259619,29.350473 32.3928325,29.3321647 C32.3501131,29.3086254 32.2829825,29.2868298 32.2114929,29.3199591 L32.2114929,29.3199591 C29.8802317,30.3835861 27.0956214,29.4699131 25.8724504,27.2397837 C25.105244,25.8422476 23.8681238,25.4961329 23.8158143,25.4821837 C18.9920044,23.9852595 18.0539202,23.034098 18.0905369,21.9800611 C18.1332563,20.7595056 19.7286968,20.382877 20.2526639,20.2599496 C21.0599742,20.0690198 21.9204659,19.9949147 22.8132151,20.0419933 C26.0442,20.2154865 27.0110544,17.4439536 27.0197726,17.4160552 C27.3092187,16.5538198 26.538525,14.3943083 25.549875,12.4902417 C20.117531,14.2600472 15.8560484,18.5938913 14.2091702,24.0236198 C15.319004,24.4935337 16.2998075,24.4037357 16.3128849,24.4028639 L16.3599635,24.3976329 Z" id="Shape" fill="#4D007E"></path>
                    <path d="M44.2609917,42.8777159 L43.6306619,42.3467742 C41.7091587,40.7286663 41.0509306,38.3058635 41.7265952,35.3416571 C41.9567571,34.3346988 41.4589448,33.2998421 40.5173734,32.8246972 C37.5557825,31.3303885 37.0806377,28.6451663 37.0614575,28.5309571 C36.6482123,24.791698 37.9707714,23.3444679 39.1520948,22.7812687 C40.0134583,22.3715107 41.0509306,22.4159738 41.9986048,22.9059397 C42.6184726,23.2267714 44.4902817,23.9120262 48.468421,23.3714944 L49.2303964,23.2668754 L49.4291726,24.0105425 C49.8659571,25.6469587 50.0874008,27.333069 50.0874008,29.0217948 C50.0874008,33.9772504 48.219079,38.6851075 44.8259345,42.2787718 L44.2609917,42.8777159 Z M40.4066516,24.2468071 C40.2261837,24.2468071 40.055306,24.282552 39.9036083,24.3549135 C38.6874119,24.9355492 38.6263841,26.8178202 38.7885437,28.2938206 C38.7955183,28.3191036 39.1573258,30.1856817 41.3020163,31.2684889 C42.9611,32.1045694 43.834669,33.9397619 43.4266548,35.7296194 C42.981152,37.684252 43.2278786,39.2544095 44.1598599,40.41045 C46.8642623,37.2378774 48.34375,33.2283524 48.34375,29.0217948 C48.34375,27.7358524 48.2025143,26.4516536 47.9235302,25.1936095 C44.1206278,25.5972647 42.0918901,24.9181127 41.198269,24.4543016 C40.9314905,24.3165532 40.659481,24.2468071 40.4066516,24.2468071 Z" id="Shape" fill="#4D007E"></path>
                    <path d="M37.8696397,19.1134992 C36.5008738,19.1134992 35.3988865,18.3393183 34.8845095,17.7482206 L34.7676849,17.5773429 C33.4285611,14.994996 36.3535353,12.708198 37.3142869,11.9566845 L38.1268282,11.2792762 L38.6211532,11.4972325 C40.2619286,12.2199758 41.7911103,13.1650345 43.1642353,14.306254 L44.1310897,15.110077 L42.7039115,15.9261056 C41.9942456,16.4090968 41.5609484,16.8798825 41.3325302,17.1832778 C40.8966175,17.7647853 40.4720385,18.1727996 39.9960218,18.4692202 C39.2488675,18.9339032 38.5287397,19.1134992 37.8696397,19.1134992 Z M36.265481,16.6715163 C36.5575425,16.9600905 37.6542988,17.8720198 39.0745024,16.9888607 C39.3613329,16.8101365 39.6359579,16.5389988 39.9384813,16.1353437 C40.1695151,15.8275893 40.5470155,15.399523 41.1267794,14.930481 C40.2723905,14.3123567 39.3622048,13.7709532 38.4058123,13.3149885 C35.890596,15.2844421 36.0850131,16.2696048 36.265481,16.6715163 Z" id="Shape" fill="#4D007E"></path>
                    <path d="M30.9072421,48.2376984 C29.0982044,48.2376984 27.2978849,47.9813817 25.5542341,47.4748512 L24.8497992,47.2699722 L24.9849321,46.052904 C25.0119587,42.8105853 27.6579488,40.1811599 30.9072421,40.1811599 C33.0083413,40.1811599 34.7676849,41.6667504 35.0911321,43.7120528 C35.2550353,44.7477813 35.5340194,45.6841218 35.9219817,46.4931758 L36.3892802,47.4687484 L35.3369869,47.7180905 C33.8792948,48.0624615 32.3893452,48.2376984 30.9072421,48.2376984 Z M26.7303266,45.9857734 C29.0790242,46.5646655 31.5288536,46.6509762 33.9289889,46.2281409 C33.6831341,45.5324242 33.4948198,44.7817825 33.369277,43.9840623 C33.1835782,42.8097135 32.1251821,41.9239389 30.9072421,41.9239389 C28.6422397,41.9248107 26.7922262,43.7355921 26.7303266,45.9857734 Z" id="Shape" fill="#4D007E"></path>
                    <g id="Group-4" transform="translate(30.781250, 29.104415) rotate(84.000000) translate(-30.781250, -29.104415) translate(5.281250, 1.604415)" fill="#020288">
                        <path d="M29.0117647,0.395585317 L25.71875,3.32159849 L28.6951465,6.55887029 L31.3577021,6.69083667 L29.3589338,4.51930714 C40.7734477,6.3110174 49.0932035,16.1071285 48.8490927,27.468029 C48.6049818,38.8289296 39.8718582,48.2709267 28.3905634,49.5871909 L28.6016423,51.3955853 C41.0807193,49.9730877 50.5470708,39.6662928 50.7164442,27.3173829 C50.8858176,14.9684731 41.705585,4.41451324 29.2700585,2.66176659 L31.6770977,0.527551697 L29.0117647,0.395585317 Z" id="Path"></path>
                        <path d="M0.71875,27.8066352 C0.790314544,40.0027197 9.89487368,50.3275358 22.1668997,52.129404 L19.7594934,54.2636189 L22.4224552,54.3955853 L25.71875,51.4695721 L22.7418995,48.2323003 L20.0789377,48.1021542 L22.0780109,50.2745938 C10.6571369,48.4872297 2.33059311,38.6890218 2.57480803,27.3243228 C2.81902295,15.9596239 11.5590582,6.51573884 23.046529,5.20397977 L22.835418,3.39558532 C10.2223367,4.82426671 0.706833924,15.3269125 0.71875,27.8066352 Z" id="Path"></path>
                    </g>
                </g>
            </g>
        </g>
    </g>
</svg>