<?xml version="1.0" encoding="UTF-8"?>
<svg width="50px" height="45px" viewBox="0 0 50 45" version="1.1" xmlns="http://www.w3.org/2000/svg" xmlns:xlink="http://www.w3.org/1999/xlink">
    <title>difficult</title>
    <g id="Home" stroke="none" stroke-width="1" fill="none" fill-rule="evenodd">
        <g id="Home-1600" transform="translate(-874.000000, -866.000000)" fill-rule="nonzero">
            <g id="Benefits-6" transform="translate(70.000000, 849.000000)">
                <g id="Group-3-Copy" transform="translate(804.000000, 17.000000)">
                    <g id="difficult" transform="translate(0.000000, -0.000000)">
                        <polygon id="Path" fill="#E2C4FF" points="25.3666992 19.5395508 33.2960937 6.21298828 17.996875 7.89111328 20.2879883 11.512207 1.65966797 23.5453125 4.44746094 27.9515625 23.0757812 15.918457"></polygon>
                        <path d="M48.8857422,5.04179688 L49.9617187,1.31445313 C50.046875,1.01953125 49.9883789,0.701855469 49.8039062,0.456640625 C49.6194336,0.211328125 49.3303711,0.0670898438 49.0234375,0.0670898438 L38.8452148,0.0670898438 C38.3058594,0.0670898438 37.8686523,0.504394531 37.8686523,1.04365234 L37.8686523,16.6416016 L34.9501953,16.6416016 C34.4108398,16.6416016 33.9736328,17.0788086 33.9736328,17.6181641 L33.9736328,21.6574219 L31.2714844,21.6574219 C30.7321289,21.6574219 30.2949219,22.0946289 30.2949219,22.6339844 L30.2949219,27.7745117 L16.1240234,27.7745117 C15.584668,27.7745117 15.1474609,28.2118164 15.1474609,28.7510742 L15.1474609,33.8915039 L0.9765625,33.8915039 C0.437207031,33.8915039 -5.55111512e-15,34.3288086 -5.55111512e-15,34.8680664 L-5.55111512e-15,43.487793 C-5.55111512e-15,44.0270508 0.437207031,44.4643555 0.9765625,44.4643555 L46.419043,44.4643555 C46.9583984,44.4643555 47.3956055,44.0270508 47.3956055,43.487793 L47.3956055,22.6339844 C47.3956055,22.0947266 46.9583984,21.6574219 46.419043,21.6574219 L43.7169922,21.6574219 L43.7169922,17.6181641 C43.7169922,17.0788086 43.2797852,16.6416016 42.7404297,16.6416016 L39.821875,16.6416016 L39.821875,10.0166016 L49.0234375,10.0166016 C49.3303711,10.0166016 49.6194336,9.87236328 49.8039062,9.62705078 C49.9883789,9.38183594 50.046875,9.0640625 49.9617187,8.76923828 L48.8857422,5.04179688 Z M1.953125,35.8445313 L15.1474609,35.8445313 L15.1474609,42.5111328 L1.953125,42.5111328 L1.953125,35.8445313 Z M17.1005859,29.7275391 L30.2949219,29.7275391 L30.2949219,42.5110352 L17.1005859,42.5110352 L17.1005859,29.7275391 Z M45.4424805,42.5111328 L32.2480469,42.5111328 L32.2480469,23.6105469 L45.4424805,23.6105469 L45.4424805,42.5111328 L45.4424805,42.5111328 Z M41.7637695,21.6574219 L35.9267578,21.6574219 L35.9267578,18.5947266 L41.7637695,18.5947266 L41.7637695,21.6574219 Z M46.9310547,5.31269531 L47.7250977,8.06347656 L39.8217773,8.06347656 L39.8217773,2.02021484 L47.7250977,2.02021484 L46.9310547,4.77099609 C46.8799805,4.94794922 46.8799805,5.13564453 46.9310547,5.31269531 L46.9310547,5.31269531 Z" id="Shape" fill="#020288"></path>
                    </g>
                </g>
            </g>
        </g>
    </g>
</svg>