<?xml version="1.0" encoding="UTF-8"?>
<svg width="30px" height="48px" viewBox="0 0 30 48" version="1.1" xmlns="http://www.w3.org/2000/svg" xmlns:xlink="http://www.w3.org/1999/xlink">
    <title>startup</title>
    <g id="Home" stroke="none" stroke-width="1" fill="none" fill-rule="evenodd">
        <g id="Home-1600" transform="translate(-1201.000000, -2111.000000)" fill-rule="nonzero">
            <g id="ĞĞ¸ÑˆĞ°-4" transform="translate(70.000000, 2109.000000)">
                <g id="Group-5-Copy-8" transform="translate(1100.000000, 2.000000)">
                    <g id="startup" transform="translate(31.000000, 0.000000)">
                        <circle id="Oval" fill="#E2C4FF" transform="translate(14.620179, 21.112460) rotate(-45.000000) translate(-14.620179, -21.112460) " cx="14.6201786" cy="21.1124599" r="6.98247666"></circle>
                        <g id="Group" fill="#020288">
                            <path d="M28.7176875,30.4060312 L24.9459375,28.4814375 C25.4858437,25.3116562 25.9049062,22.0482187 25.9049062,19.5538125 C25.9049062,12.5361562 22.9705312,7.62984375 20.5088437,4.74965625 C17.8403437,1.62759375 15.18225,0.17296875 15.0703125,0.11259375 C14.7923437,-0.03759375 14.4574687,-0.03759375 14.1795,0.11259375 C14.0676562,0.172875 11.4094687,1.62759375 8.74096875,4.74965625 C6.27928125,7.62984375 3.34490625,12.5361562 3.34490625,19.5538125 C3.34490625,22.048125 3.763875,25.3115625 4.303875,28.4814375 L0.53221875,30.4060312 C0.16153125,30.5952187 -0.04003125,31.0059375 0.03703125,31.414875 L2.13590625,42.543375 C2.1943125,42.85275 2.40403125,43.1121562 2.694375,43.2340312 C2.811,43.2829687 2.934375,43.3070625 3.05709375,43.3070625 C3.24009375,43.3070625 3.421875,43.2535312 3.5784375,43.1487187 L7.7634375,40.3491562 L10.1475,40.3491562 C10.078875,40.6664062 10.0438125,40.9918125 10.0438125,41.320125 C10.0438125,43.599 13.30125,47.049 13.9543125,47.7175312 C14.13075,47.8980937 14.3725313,47.9999062 14.6249063,47.9999062 C14.8772812,47.9999062 15.1191563,47.8980937 15.2955,47.7175312 C15.9485625,47.049 19.206,43.5989062 19.206,41.320125 C19.206,40.9918125 19.1709375,40.6664062 19.1023125,40.3491562 L21.486375,40.3491562 L25.6714687,43.1487187 C25.828125,43.2534375 26.0098125,43.3070625 26.1928125,43.3070625 C26.315625,43.3070625 26.439,43.2829687 26.5555313,43.2340312 C26.845875,43.1121562 27.0555937,42.85275 27.114,42.543375 L29.212875,31.414875 C29.2900312,31.0059375 29.088375,30.5952187 28.7176875,30.4060312 L28.7176875,30.4060312 Z M10.1175,6.02540625 C11.9464688,3.870375 13.7987812,2.5605 14.625,2.03240625 C15.4519688,2.56096875 17.3038125,3.87065625 19.1325,6.02540625 C19.6658438,6.65390625 20.1560625,7.30190625 20.6029687,7.96875 L8.64703125,7.96875 C9.09384375,7.30190625 9.5840625,6.65390625 10.1175,6.02540625 L10.1175,6.02540625 Z M7.53084375,9.84375 L21.7191563,9.84375 C23.2546875,12.772875 24.0299063,16.0231875 24.0299063,19.5538125 C24.0299063,25.2850312 21.6256875,35.6764687 20.952375,38.4741563 L8.297625,38.4741563 C7.62421875,35.6768437 5.22009375,25.2870938 5.22009375,19.5538125 C5.22009375,16.0231875 5.9953125,12.772875 7.53084375,9.84375 L7.53084375,9.84375 Z M2.0098125,31.7570625 L4.64859375,30.4105312 C5.3499375,34.1731875 6.13978125,37.5361875 6.48271875,38.9502187 L3.71559375,40.8013125 L2.0098125,31.7570625 Z M17.3310938,41.3202187 C17.3310938,42.2715937 15.9114375,44.2337812 14.625,45.68475 C13.338375,44.2337812 11.9189062,42.2715 11.9189062,41.3202187 C11.9189062,40.986 11.9802187,40.657125 12.0984375,40.34925 L17.1516562,40.34925 C17.2697812,40.657125 17.3310938,40.986 17.3310938,41.3202187 L17.3310938,41.3202187 Z M25.5345,40.8013125 L22.767375,38.9503125 C23.1103125,37.536375 23.9000625,34.1732812 24.6015,30.410625 L27.2402812,31.7571562 L25.5345,40.8013125 Z" id="Shape"></path>
                            <path d="M14.625,24.106125 C16.2758438,24.106125 17.619,22.7629688 17.619,21.1120313 C17.619,19.4610937 16.2758438,18.118125 14.625,18.118125 C12.9741563,18.118125 11.631,19.4611875 11.631,21.112125 C11.631,22.7630625 12.9741563,24.106125 14.625,24.106125 L14.625,24.106125 Z M14.625,19.993125 C15.2420625,19.993125 15.744,20.4951562 15.744,21.112125 C15.744,21.7291875 15.2420625,22.2312188 14.625,22.2312188 C14.0079375,22.2312188 13.506,21.7291875 13.506,21.112125 C13.506,20.4950625 14.0079375,19.993125 14.625,19.993125 L14.625,19.993125 Z" id="Shape"></path>
                        </g>
                    </g>
                </g>
            </g>
        </g>
    </g>
</svg>