<?xml version="1.0" encoding="UTF-8"?>
<svg width="56px" height="43px" viewBox="0 0 56 43" version="1.1" xmlns="http://www.w3.org/2000/svg" xmlns:xlink="http://www.w3.org/1999/xlink">
    <title>experiance</title>
    <g id="Home" stroke="none" stroke-width="1" fill="none" fill-rule="evenodd">
        <g id="Home-1600" transform="translate(-137.000000, -871.000000)" fill-rule="nonzero">
            <g id="Benefits-6" transform="translate(70.000000, 849.000000)">
                <g id="experiance" transform="translate(67.000000, 22.000000)">
                    <polygon id="Path" fill="#E2C4FF" points="36.3024375 14.1471094 30.0946406 23.9789375 39.6346562 41.6986719 53.6982031 41.6986719"></polygon>
                    <path d="M54.90625,40.6049219 L40.2879531,40.6049219 L22.8365156,8.19032812 L29.1146406,8.19032812 C29.4877187,8.19032812 29.8350937,8.000125 30.036125,7.68578125 C30.2371562,7.3714375 30.2640625,6.97626562 30.1074375,6.63764062 L28.9512344,4.1365625 L30.1074375,1.635375 C30.2640625,1.29675 30.2370469,0.901578125 30.036125,0.587234375 C29.8350937,0.272890625 29.4877187,0.0826875 29.1146406,0.0826875 L21.5005,0.0826875 C20.8964219,0.0826875 20.40675,0.572359375 20.40675,1.1764375 L20.4212969,7.76748437 L2.74225,40.6049219 L1.09375,40.6049219 C0.489671875,40.6049219 -3.10862447e-15,41.0945937 -3.10862447e-15,41.6986719 C-3.10862447e-15,42.30275 0.489671875,42.7924219 1.09375,42.7924219 L54.90625,42.7924219 C55.5102187,42.7924219 56,42.30275 56,41.6986719 C56,41.0945937 55.5102187,40.6049219 54.90625,40.6049219 Z M21.5150469,10.3504844 L26.7871406,20.1430469 L26.5709063,20.7360781 C26.3726094,21.2796719 25.9135625,21.6617187 25.3429531,21.7578594 C24.7722344,21.8541094 24.2134375,21.6436719 23.8479062,21.1950156 L21.6172031,18.45725 C21.4231719,18.2190313 21.1378125,18.0734531 20.8310156,18.0561719 C20.5242187,18.0387813 20.2243125,18.1513281 20.0045781,18.3661406 L18.3906406,19.9442031 C18.0689687,20.2587656 17.6438281,20.4183437 17.1951719,20.3945 C16.8587344,20.3764531 16.5470156,20.257125 16.291625,20.0524844 L21.5150469,10.3504844 Z M27.404125,2.27007812 L26.7535625,3.67751562 C26.6190313,3.96867187 26.6190313,4.30423437 26.7535625,4.59539062 L27.404125,6.00271875 L22.6089063,6.00271875 L22.6089063,2.7960625 C22.6089063,2.73535937 22.603875,2.67585937 22.5943594,2.61789062 L22.5943594,2.27007812 L27.404125,2.27007812 Z M5.22670313,40.6050312 L15.2487344,21.9899531 C15.7927656,22.337 16.422875,22.5437188 17.0779219,22.5789375 C18.1297812,22.6355937 19.1664375,22.2453437 19.9201406,21.508375 L20.6778906,20.7673594 L22.1522656,22.5768594 C22.8825625,23.4730781 23.9372656,23.9694219 25.0606562,23.9694219 C25.2740469,23.9694219 25.4901719,23.9514844 25.7067344,23.9149531 C26.6670469,23.7530781 27.4943594,23.2507188 28.0631094,22.5126562 L37.8037187,40.6050312 L5.22670313,40.6050312 L5.22670313,40.6050312 Z" id="Shape" fill="#020288"></path>
                </g>
            </g>
        </g>
    </g>
</svg>