<svg width="53px" height="44px" viewBox="0 0 53 44" version="1.1" xmlns="http://www.w3.org/2000/svg" xmlns:xlink="http://www.w3.org/1999/xlink">
    <g id="Home" stroke="none" stroke-width="1" fill="none" fill-rule="evenodd">
        <g id="Home-1600" transform="translate(-173.000000, -5424.000000)" fill-rule="nonzero">
            <g id="1000+-2" transform="translate(70.000000, 5351.000000)">
                <g id="Group-89" transform="translate(65.000000, 31.000000)">
                    <g id="like-clients" transform="translate(38.000000, 42.000000)">
                        <path d="M31.4482781,13.4476031 C28.6196625,13.4476031 26.4004125,16.601475 26.4004125,16.601475 C26.4004125,16.601475 24.3070781,13.4476031 21.3513094,13.4476031 C18.4763906,13.4476031 16.12875,15.8187562 15.9750937,18.6897562 C15.8885719,20.3117063 16.4114156,21.5460094 17.1480375,22.6639875 C18.6201469,24.8975719 26.4097969,30.0674344 26.4097969,30.0674344 C26.4097969,30.0674344 34.1701594,24.9171656 35.6520656,22.6639875 C36.3902344,21.5409562 36.9117375,20.3116031 36.8248031,18.6897562 C36.6711469,15.8187562 34.3234031,13.4476031 31.4482781,13.4476031" id="Path" fill="#E2C4FF"></path>
                        <g id="Group" fill="#020288">
                            <path d="M51.76875,34.0277437 L50.8011281,34.0277437 L50.8011281,4.29154687 C50.8011281,1.97453437 48.9161062,0.0895125 46.5990937,0.0895125 L6.20090625,0.0895125 C3.88389375,0.0895125 1.99887187,1.97453437 1.99887187,4.29154687 L1.99887187,34.0278469 L1.03125,34.0278469 C0.461690625,34.0278469 -3.66373598e-16,34.4895375 -3.66373598e-16,35.0590969 L-3.66373598e-16,38.9165906 C-3.66373598e-16,41.5186406 2.11684687,43.6355906 4.71889687,43.6355906 L48.081,43.6355906 C50.68305,43.6355906 52.8,41.5187437 52.8,38.9166937 L52.8,35.0592 C52.8,34.4894344 52.3382062,34.0277437 51.76875,34.0277437 Z M6.20090625,2.1520125 L46.5990938,2.1520125 C47.7788438,2.1520125 48.7386281,3.11179688 48.7386281,4.29144375 L48.7386281,7.16213437 L4.06137188,7.16213437 L4.06137188,4.29154687 C4.06137188,3.11179688 5.02115625,2.1520125 6.20090625,2.1520125 Z M4.06137187,9.22463438 L48.7386281,9.22463438 L48.7386281,34.0277438 L33.8644969,34.0277438 C33.2950406,34.0277438 32.8332469,34.4894344 32.8332469,35.0589938 C32.8332469,35.7176531 32.2974094,36.2533875 31.63875,36.2533875 L21.16125,36.2533875 C20.5025906,36.2533875 19.9667531,35.71755 19.9667531,35.0589938 C19.9667531,34.4894344 19.5050625,34.0277438 18.9355031,34.0277438 L4.06137187,34.0277438 L4.06137187,9.22463438 Z M50.7375,38.9165906 C50.7375,40.3813781 49.5457875,41.5729875 48.081,41.5729875 L4.71889688,41.5729875 C3.25410938,41.5729875 2.0625,40.381275 2.0625,38.9164875 L2.0625,36.0902437 L18.0715219,36.0902437 C18.503925,37.3821938 19.7256469,38.3158875 21.1611469,38.3158875 L31.6386469,38.3158875 C33.07425,38.3158875 34.2959719,37.3821938 34.728375,36.0902437 L50.7375,36.0902437 L50.7375,38.9165906 Z" id="Shape"></path>
                            <path d="M25.8207469,5.56658437 L26.9792531,5.56658437 C27.5487094,5.56658437 28.0105031,5.10489375 28.0105031,4.53533437 C28.0105031,3.965775 27.5487094,3.50408438 26.9792531,3.50408438 L25.8207469,3.50408438 C25.2511875,3.50408438 24.7894969,3.965775 24.7894969,4.53533437 C24.7894969,5.10489375 25.2511875,5.56658437 25.8207469,5.56658437 Z" id="Path"></path>
                            <path d="M41.983425,21.0090375 L43.0678875,21.0090375 C43.6373437,21.0090375 44.0991375,20.5473469 44.0991375,19.9777875 C44.0991375,19.4082281 43.6373437,18.9465375 43.0678875,18.9465375 L41.983425,18.9465375 C41.4139687,18.9465375 40.952175,19.4082281 40.952175,19.9777875 C40.952175,20.5473469 41.4139687,21.0090375 41.983425,21.0090375 Z" id="Path"></path>
                            <path d="M39.3792094,15.1675219 C39.6432094,15.1675219 39.9071062,15.0667687 40.1084062,14.8654687 L40.8751406,14.0987344 C41.2778437,13.6960312 41.2778437,13.0430437 40.8751406,12.6403406 C40.4723344,12.2376375 39.8193469,12.2376375 39.4166437,12.6404437 L38.6499094,13.4071781 C38.2472062,13.8098812 38.2472062,14.4628687 38.6499094,14.8655719 C38.8514156,15.0667687 39.1153125,15.1675219 39.3792094,15.1675219 Z" id="Path"></path>
                            <path d="M39.4167469,27.3151312 C39.61815,27.5165344 39.8820469,27.6171844 40.1459437,27.6171844 C40.4098406,27.6171844 40.6737375,27.5164312 40.8751406,27.3151312 C41.2778437,26.9124281 41.2778437,26.2594406 40.8751406,25.8567375 L40.1084062,25.0900031 C39.7057031,24.6873 39.0529219,24.6873 38.6499094,25.0900031 C38.2472062,25.4927063 38.2472062,26.1456938 38.6499094,26.5483969 L39.4167469,27.3151312 Z" id="Path"></path>
                            <path d="M10.8164719,18.9465375 L9.7321125,18.9465375 C9.16255313,18.9465375 8.7008625,19.4082281 8.7008625,19.9777875 C8.7008625,20.5473469 9.16255313,21.0090375 9.7321125,21.0090375 L10.8164719,21.0090375 C11.3860313,21.0090375 11.8477219,20.5473469 11.8477219,19.9777875 C11.8477219,19.4082281 11.3860313,18.9465375 10.8164719,18.9465375 Z" id="Path"></path>
                            <path d="M12.6914906,25.0900031 L11.9247562,25.8567375 C11.5220531,26.2594406 11.5220531,26.9124281 11.9247562,27.3152344 C12.1261594,27.5166375 12.3900563,27.6172875 12.6539531,27.6172875 C12.91785,27.6172875 13.18185,27.5166375 13.38315,27.3152344 L14.1498844,26.5485 C14.5525875,26.1457969 14.5525875,25.4928094 14.1498844,25.0900031 C13.7472844,24.6873 13.0942969,24.6873 12.6914906,25.0900031 L12.6914906,25.0900031 Z" id="Path"></path>
                            <path d="M13.3832531,12.6402375 C12.98055,12.2375344 12.3275625,12.2375344 11.9247562,12.6402375 C11.5220531,13.0429406 11.5220531,13.6959281 11.9247562,14.0987344 L12.6914906,14.8654688 C12.8928937,15.0668719 13.1567906,15.1675219 13.4206875,15.1675219 C13.6845844,15.1675219 13.9485844,15.0668719 14.1498844,14.8654688 C14.5525875,14.4627656 14.5525875,13.8097781 14.1498844,13.4069719 L13.3832531,12.6402375 Z" id="Path"></path>
                        </g>
                    </g>
                </g>
            </g>
        </g>
    </g>
</svg>