<?xml version="1.0" encoding="UTF-8"?>
<svg width="47px" height="48px" viewBox="0 0 47 48" version="1.1" xmlns="http://www.w3.org/2000/svg" xmlns:xlink="http://www.w3.org/1999/xlink">
    <title>betting</title>
    <g id="Home" stroke="none" stroke-width="1" fill="none" fill-rule="evenodd">
        <g id="Home-1600" transform="translate(-565.000000, -2109.000000)" fill-rule="nonzero">
            <g id="Ниша-4" transform="translate(70.000000, 2109.000000)">
                <g id="Group-5-Copy" transform="translate(473.000000, 0.000000)">
                    <g id="betting" transform="translate(22.000000, 0.000000)">
                        <path d="M14.3724415,0.799342129 C5.58954676,4.79166671 2.39583336,1.59795322 2.39583336,1.59795322 C2.39583336,4.03070175 7.48903504,11.5551901 9.91703214,15.004386 C10.7076023,13.379386 11.9861111,12.0420322 13.5738304,11.1790935 C14.2891082,10.7412281 14.9009503,10.1527777 15.3665936,9.4554094 C14.813231,6.08187135 14.3724415,0.799342129 14.3724415,0.799342129 Z" id="Path" fill="#E2C4FF"></path>
                        <path d="M5.03070175,7.56067256 C2.74780706,6.56432749 0.798976561,5.58991233 0.798976561,5.58991233 C0.868786526,6.95248543 1.13779237,8.29751467 1.59722218,9.58223682 C2.15643275,11.2679093 6.67068716,14.5325292 9.29751467,16.3201754 C9.38523396,16.1980995 9.48026311,16.0811404 9.58187135,15.9696637 C9.66666667,15.6392544 9.77887429,15.3165204 9.91703214,15.004386 C8.64692978,13.1999269 6.65168131,10.2825292 5.03070175,7.56067256 Z" id="Path" fill="#E2C4FF"></path>
                        <path d="M4.3600146,12.6505848 C4.92580407,14.5186404 5.33698826,16.4298246 5.58954676,18.3651316 C6.48062868,18.374269 7.36878653,18.4645468 8.24378657,18.6341375 C8.44554096,17.8029971 8.80263158,17.0171784 9.29678363,16.3187135 C7.89144739,15.3629386 5.95065787,13.9839181 4.3600146,12.6505848 Z" id="Path" fill="#E2C4FF"></path>
                        <path d="M44.7130848,22.3574561 C44.7130848,22.3574561 41.5193713,31.9385965 41.5193713,34.3340643 L39.124269,34.3340643 C38.3654971,34.3340643 30.4528509,27.8903509 26.2291667,27.2119883 C27.7331872,25.4645468 29.375,23.8410087 31.1396199,22.3574561 L31.3552632,21.7105263 C32.2050438,21.5493421 33.0635965,21.4375 33.9261696,21.3753655 C35.1293859,21.2770468 36.3402778,21.3388158 37.5270467,21.558845 C39.8940059,22.0372807 42.2989766,22.304459 44.7130848,22.3574561 L44.7130848,22.3574561 Z" id="Path" fill="#E2C4FF"></path>
                        <path d="M42.4375,22.3574561 C42.4375,22.3574561 39.2437866,31.9385965 39.2437866,34.3340643 L39.124269,34.3340643 C38.3654971,34.3340643 30.4528509,27.8903509 26.2291667,27.2119883 C27.7331872,25.4645468 29.375,23.8410087 31.1396199,22.3574561 L31.3552632,21.7105263 C32.2050438,21.5493421 33.0635965,21.4375 33.9261696,21.3753655 C34.3709796,21.4122807 34.8135964,21.4736842 35.2518275,21.558845 C37.6184211,22.0372807 40.0233918,22.304459 42.4375,22.3574561 L42.4375,22.3574561 Z" id="Path" fill="#E2C4FF"></path>
                        <path d="M40.7211257,36.7291667 C39.124269,39.1246345 31.938231,40.7214913 31.938231,40.7214913 L30.7964182,38.9009503 L24.3929094,28.6491228 C25.0906433,28.2905702 25.7138158,27.8029971 26.2291667,27.2119883 C29.4309211,27.7309942 34.7328216,31.5394737 37.4393274,33.3600146 L37.4554094,33.3676901 C37.9477339,33.7255117 38.4714912,34.0383772 39.0204678,34.3019005 L40.7211257,36.7291667 Z" id="Path" fill="#E2C4FF"></path>
                        <path d="M38.6849415,35.1323099 C37.4393274,37.0007309 32.7763158,38.3899854 30.7964182,38.9009503 L24.3929094,28.6491228 C25.0906433,28.2905702 25.7138158,27.8029971 26.2291667,27.2119883 C29.4309211,27.7309942 34.7328216,31.5394737 37.4393274,33.3600146 L37.4554094,33.3676901 L38.6849415,35.1323099 Z" id="Path" fill="#E2C4FF"></path>
                        <path d="M24.5924707,28.561038 C24.5204678,28.5932018 24.4568713,28.625 24.3929094,28.6491228 L24.7361112,29.1918859 L27.0277778,32.8567251 L26.3490497,33.5354532 L22.3567251,36.7291667 L22.1253655,37.2002924 C21.7233187,37.994883 21.3841375,38.81981 21.1111111,39.6673976 C20.8464912,40.4554094 20.5208333,41.2214913 20.1370614,41.9590643 L18.0054825,46.2225877 C17.7357456,46.7653509 17.1820175,47.1089181 16.5760234,47.1089181 L4.41593563,47.1089181 C3.84100875,47.1078217 3.31103804,46.7975147 3.02850882,46.2967836 C2.74597951,45.7964182 2.75438596,45.1823831 3.05043855,44.689693 L8.60782166,35.4199561 C10.7306287,31.8527047 10.8366228,27.4356725 8.88706143,23.7704678 C8.33698826,22.8596491 8.02668126,21.8238305 7.98501464,20.7605994 C7.90204678,19.0204678 8.47149118,17.3121345 9.58187135,15.9696637 C10.380117,12.7759503 13.5738304,11.1790935 13.5738304,11.1790935 C14.4722222,10.5942982 15.2236842,9.80994152 15.7697368,8.88779237 C15.931652,8.6348684 16.1692252,8.43932744 16.4484649,8.32858189 C17.054459,8.05482461 17.7671784,8.18494147 18.2368421,8.65606727 L18.3804824,8.7997076 L19.9616228,9.84576019 C20.4605263,10.1823831 20.759503,10.7448831 20.7598684,11.3468567 L20.7598684,11.9777047 L20.8157895,11.9217836 C21.2598684,11.4773391 21.9393274,11.3676901 22.5007309,11.6502193 L23.9459064,12.3768275 C24.441155,12.6209796 24.7540205,13.1260965 24.7521929,13.6783626 L24.7521929,14.372807 L26.0774854,15.0358187 C27.1494883,15.5709064 27.6637427,16.813962 27.2832603,17.9499269 L27.1476608,18.3651316 L28.1374269,18.692617 C29.0369152,18.994883 29.7803363,19.6407164 30.2054093,20.489035 L31.1396199,22.3574561 C29.375,23.8410087 27.7331872,25.4645468 26.2291667,27.2119883 C25.751462,27.7379386 25.1999269,28.1922515 24.5924707,28.561038 Z" id="Path" fill="#FFFFFF"></path>
                        <path d="M42.3179825,34.3340643 C42.3179825,32.4758772 44.5942982,25.240497 45.4700293,22.6096491 C45.5511696,22.366228 45.5102339,22.0986843 45.3603801,21.8907164 C45.2105263,21.6823831 44.9696637,21.5592105 44.7130848,21.558845 C42.3527047,21.5036549 40.0018275,21.2419591 37.686769,20.7763158 C35.5716374,20.433114 33.4111842,20.4784356 31.3121345,20.9097222 L30.9239766,20.133772 C30.4071637,19.0924707 29.494883,18.3015351 28.3907164,17.9371345 L28.1407164,17.8574561 C28.4371345,16.4309211 27.7397661,14.9831871 26.4393274,14.3267544 L25.5504385,13.879386 L25.5504385,13.6765351 C25.554459,12.8209065 25.0705409,12.0376462 24.3033626,11.6582602 L22.8541666,10.9323831 C22.4312865,10.7203948 21.9513889,10.6491228 21.4850146,10.7288011 C21.3304094,10.0957603 20.9433479,9.54385965 20.4005848,9.18311401 L18.8731725,8.16520468 L17.3322368,6.62390353 C17.3227339,6.61440056 17.3106725,6.60818713 17.3011696,6.5994152 C17.2916667,6.59064327 17.2708333,6.57602339 17.2554825,6.56432749 C17.1875,6.50840646 17.1100146,6.46491228 17.0274123,6.43494157 L17.0186404,6.43494157 C16.9305555,6.40679822 16.8384503,6.39473684 16.746345,6.39875733 L16.6944444,6.39875733 C16.6758041,6.39875733 16.6575293,6.39875733 16.6399854,6.39875733 C16.6129386,6.40862578 16.5862573,6.41995612 16.560307,6.43238306 C16.5095029,6.44078952 16.4597953,6.45394732 16.4115498,6.47222222 C16.3899854,6.48757315 16.369152,6.50365492 16.3494152,6.52119878 C16.3135964,6.54495616 16.2796052,6.57163743 16.2478071,6.60087719 C16.191155,6.65131584 16.1418129,6.7094298 16.1019737,6.77412285 C16.0884502,6.79568711 16.0657895,6.80847953 16.0540936,6.83077483 C15.994883,6.94919588 15.9247076,7.08077483 15.8512427,7.21491228 C15.4568713,4.1688597 15.1710526,0.775584749 15.1710526,0.733187181 C15.1494883,0.473684211 15.002924,0.240862596 14.7781433,0.109283649 C14.5533625,-0.0222952982 14.2785087,-0.0358186667 14.0420322,0.0727339415 C5.9777047,3.73611116 2.98099415,1.05190063 2.96016084,1.03106723 C2.7317251,0.802266105 2.38779237,0.734283602 2.08918129,0.858552608 C1.7905702,0.98245614 1.59649123,1.27448833 1.59722218,1.59795322 C1.59722218,2.53216374 2.20102344,4.04349418 3.1399854,5.82967841 C1.9751462,5.28581876 1.16776318,4.88340641 1.15570171,4.87719298 C0.908625778,4.75365502 0.614766035,4.76681282 0.379751485,4.91191523 C0.144371368,5.05701754 0.00109649591,5.31359644 0.000365497076,5.58991233 C0.0694444912,7.03837717 0.352339181,8.46893277 0.83954676,9.83442985 C1.10891808,10.6403509 2.05811406,11.7379386 3.67324557,13.1154971 C4.18384505,14.8676901 4.56067256,16.6557017 4.80080412,18.4649123 C4.85087719,18.8629386 5.18859649,19.1619152 5.58954676,19.1637427 C6.16447364,19.1717837 6.73793862,19.2189328 7.3062866,19.3040936 C7.22880112,19.7858188 7.18859649,20.2726608 7.18640356,20.7605994 C7.22295317,21.9524854 7.56432749,23.1154971 8.1779971,24.1377924 C10.0146199,27.5540936 9.91812865,31.6849415 7.92434208,35.0116959 L2.36403509,44.2792398 C1.91959064,45.0193713 1.90789474,45.9407895 2.33296786,46.6918859 C2.75804089,47.4429825 3.55445904,47.9075417 4.41739771,47.9075417 L16.5793128,47.9075417 C17.4872076,47.9104532 18.3179825,47.3969299 18.7214913,46.5836988 L20.8541666,42.318348 C21.2540205,41.5438596 21.5939327,40.7401316 21.871345,39.9141082 C22.1330409,39.1038012 22.4561404,38.314693 22.8373538,37.5533625 L22.9923246,37.2426901 L26.8479532,34.1582602 L26.8775585,34.1312135 L31.2609649,41.1440058 C31.4067982,41.3775585 31.6626462,41.5197369 31.938231,41.5197369 C31.9963451,41.5197369 32.054459,41.5135234 32.1114766,41.501462 C32.878655,41.3307748 39.6608187,39.7602339 41.385234,37.1725146 C41.5676169,36.8987573 41.5635965,36.5413011 41.375,36.2719298 L40.5771199,35.1323099 L41.5193713,35.1323099 C41.9605263,35.1323099 42.3179825,34.7748538 42.3179825,34.3340643 L42.3179825,34.3340643 Z M29.4923246,20.8475877 L30.1312135,22.1323099 C30.0186404,22.2240497 29.9141082,22.3238305 29.8037281,22.4181287 C29.7097954,22.497807 29.6129386,22.5778509 29.5204678,22.6575293 C29.4557749,22.7149123 29.3936403,22.7733918 29.3296784,22.8315059 C29.1469298,22.9992691 28.9711257,23.1692252 28.7945907,23.3410087 C28.7149123,23.4206872 28.6348684,23.494152 28.5551901,23.5734649 L28.4290936,23.7002924 C28.2207602,23.9104532 28.0208333,24.1202485 27.821272,24.3304094 C27.7415935,24.4155702 27.6560673,24.5010965 27.5763889,24.5866228 C27.3055556,24.876462 27.0413011,25.1630117 26.7865497,25.4407895 C26.5924707,25.6538742 26.4035088,25.8592836 26.2196637,26.057383 L26.127924,26.1538742 C25.9959795,26.2945907 25.8669591,26.43019 25.7415935,26.561038 L25.6809211,26.624269 C25.5873538,26.7200292 25.4835527,26.8238305 25.376462,26.9283626 C25.3527047,26.9524854 25.3278509,26.9769737 25.3029971,27.0003655 C24.9616228,27.3669591 24.5592105,27.6714181 24.1133041,27.9002193 C23.8051901,27.4904971 23.4667397,27.061038 23.1056286,26.6187865 C23.1374269,26.5325292 23.1542398,26.4415205 23.1553362,26.3494152 C23.1553362,25.0168129 24.6410818,22.1312135 27.3790204,19.2839912 L27.8826755,19.4517544 C28.5840644,19.6834796 29.1637427,20.186038 29.4923246,20.8475877 L29.4923246,20.8475877 Z M25.7222222,15.7510965 C26.435307,16.1111111 26.7777778,16.938231 26.5288743,17.6970029 L26.4448099,17.9473684 C23.7843567,20.6469298 22.2931286,23.2324561 21.7788743,25.0537281 C21.1399854,24.3150585 20.4725877,23.5774854 19.8267544,22.8746345 C20.7598684,22.2152778 21.6933479,20.7006579 23.0420322,18.3892544 C23.620614,17.3446638 24.2584065,16.3340643 24.9517544,15.3622076 L25.7222222,15.7510965 Z M22.1396199,12.3625731 L23.5895468,13.0880848 C23.8135964,13.1984649 23.9550438,13.4269006 23.9535931,13.6765351 L23.9535931,14.063962 C23.0953947,15.1736111 22.3293128,16.3519737 21.6630117,17.5866228 C20.7489035,19.1531433 19.4967105,21.2978801 18.8062866,21.6429094 C18.7807018,21.6604532 18.7562134,21.6798246 18.7328216,21.7002924 C18.2697368,21.2083333 17.8377193,20.7554825 17.4495615,20.3523392 C17.5226609,20.2350146 17.5628655,20.1001462 17.5661549,19.9619883 C17.5661549,18.4170321 19.8863304,14.5836988 21.3746345,12.491959 L21.3812135,12.4853801 C21.5811404,12.2850877 21.8866959,12.2357456 22.1396199,12.3625731 L22.1396199,12.3625731 Z M19.5142544,10.5131579 C19.7931286,10.6980995 19.9608918,11.0102339 19.9616228,11.3442983 L19.9616228,11.7244153 C19.2828948,12.6929825 16.9272661,16.1695906 16.1944444,18.6710526 C16.3804824,17.8775585 16.3578217,17.0493421 16.1282895,16.2675439 C18.8428362,14.2196637 19.1056286,11.869152 18.7141812,9.9751462 L19.5142544,10.5131579 Z M13.6747076,1.97222222 C13.8278509,3.62902044 14.1432749,6.80921057 14.5233918,9.23830409 L14.4689328,9.30847953 C14.3892544,9.40679822 14.3172515,9.48976608 14.2437866,9.57273394 C14.1703216,9.65570171 14.1129386,9.72441525 14.0475146,9.79385965 C13.994152,9.84978068 13.9451754,9.89437137 13.8958334,9.94225142 C13.8157895,10.0222953 13.7361112,10.0932018 13.6600878,10.1586257 C13.6195176,10.1922515 13.5804094,10.2225877 13.5434942,10.250731 C13.4415205,10.3318713 13.3322368,10.4038742 13.2171052,10.4652778 L13.1085526,10.5237573 L13.0910087,10.5332603 C11.7964182,11.2613304 10.6838451,12.2744883 9.83808477,13.495614 C9.79641815,13.4356725 9.75840646,13.3779239 9.71418124,13.3157895 C9.44298246,12.9236111 9.18165202,12.5398392 8.92470756,12.1604532 C8.7722953,11.934576 8.61586255,11.7006579 8.45614035,11.4619883 L8.09173979,10.9126462 C7.83698826,10.5259503 7.57967832,10.1312135 7.32054091,9.72843565 C7.18567251,9.51827481 7.05007308,9.30847953 6.92141811,9.10416664 C6.79276313,8.89948828 6.67470765,8.71271935 6.55153506,8.5157164 C6.38559944,8.24926896 6.22587715,7.98757315 6.07273394,7.72989764 C5.99269006,7.59576028 5.90826021,7.46089179 5.82748538,7.32675443 C4.99707602,5.98720758 4.25986844,4.59173979 3.62134503,3.15095027 C5.40423972,3.75365502 8.6100146,4.06103804 13.6747076,1.97222222 Z M2.35526316,9.33004388 C2.09210526,8.54824561 1.88925436,7.7474415 1.7474415,6.934576 C2.47076023,7.27887429 3.434576,7.72660819 4.47404968,8.18347958 C5.75584795,10.3271199 7.30080412,12.6451023 8.77375729,14.7584065 C8.8534357,14.875 8.93969301,14.9981725 9.01315789,15.1052632 L8.99890349,15.1432749 L8.96052632,15.1162281 C8.75950297,14.9766082 8.56871345,14.8417398 8.37865497,14.7065058 C8.27558475,14.6341375 8.17397661,14.5628655 8.06944449,14.4879386 L7.9097222,14.371345 C6.92068716,13.6589913 5.85635967,12.8541666 4.90679822,12.063962 C3.29093567,10.7127193 2.51242685,9.80336262 2.35526316,9.33004388 Z M7.68238306,17.7309942 C7.19846494,17.6593567 6.73209067,17.6122076 6.28581876,17.5866228 C6.18749998,16.938962 6.01425441,15.9013157 5.76461988,14.7832603 C6.48355265,15.3234649 7.27923977,15.8961988 8.15168131,16.5007309 L8.21162283,16.5431287 C8.19956136,16.564693 8.18786545,16.5924707 8.17580407,16.6151316 C8.13267546,16.6948099 8.09173979,16.7810672 8.04861109,16.8680556 C7.99926905,16.9685672 7.95065787,17.0694445 7.90204678,17.18019 C7.85307022,17.2913011 7.8179825,17.3870614 7.77668126,17.494883 C7.74524856,17.5756579 7.7119883,17.6465643 7.68238306,17.7309942 Z M21.8578217,36.1056286 C21.7679093,36.1783626 21.6944444,36.2690058 21.6421783,36.3724415 L21.4089913,36.8402778 C20.9923246,37.6739766 20.6388889,38.5376462 20.3512427,39.4239766 C20.0994152,40.1736111 19.7898392,40.9027778 19.4258041,41.6045322 L17.2931286,45.869152 C17.1589913,46.1403509 16.8819444,46.3114035 16.5793128,46.3106748 L4.41739771,46.3106748 C4.12975149,46.3106748 3.86440056,46.1557017 3.7225877,45.9053362 C3.5811404,45.6549708 3.5851608,45.3475877 3.73318718,45.1008772 L9.29349418,35.8333333 C11.5767543,32.0292398 11.689693,27.304459 9.59137422,23.3954678 C9.10233918,22.6001462 8.82419593,21.6933479 8.78326026,20.7605994 C8.78070175,20.0869884 8.86622802,19.4155702 9.0380117,18.7642544 C9.21491228,18.0570175 9.52083331,17.3881579 9.94115499,16.7920322 C10.0084065,16.6988304 10.0807748,16.6089181 10.1575293,16.5230263 C10.186769,16.4901316 10.2134503,16.4550438 10.2372076,16.4177632 C10.2525585,16.3991228 10.2668128,16.3797515 10.2796052,16.3592836 C10.3150585,16.2982456 10.3417398,16.2324561 10.3596491,16.1637427 C10.3961988,16.0168129 10.4393274,15.8746345 10.4904971,15.7350146 C10.5416666,15.5953947 10.5869884,15.4755117 10.6502193,15.3358918 L10.6557017,15.3223684 C10.7149123,15.1864036 10.7796052,15.0548246 10.8479532,14.9228801 L10.8585526,14.9038742 C10.9265351,14.7777778 10.9974415,14.6546053 11.0723685,14.5365497 L11.0822368,14.5215644 C11.8114035,13.4290936 12.7905702,12.5259503 13.938231,11.8866959 C13.9491959,11.880117 13.9605263,11.871345 13.9725877,11.8651316 C14.125,11.7861842 14.2715644,11.6962719 14.4108187,11.5961258 C14.4817252,11.5449562 14.554459,11.4802631 14.6264619,11.4225146 C14.7127193,11.3516081 14.8004386,11.2836257 14.8848684,11.2054093 C14.9546784,11.1418129 15.0255848,11.0690789 15.0957603,10.9989035 C15.1973684,10.8965643 15.2971491,10.7934942 15.3943714,10.6849415 C15.4429825,10.6297515 15.4926901,10.5749269 15.5413011,10.5171784 C15.9700293,10.008041 16.3618422,9.46893277 16.7134503,8.90350877 C17.5917398,10.9755117 17.8263889,13.2375731 14.7342836,15.2982456 C14.3991228,15.5215644 14.2828948,15.9594298 14.4627193,16.3194444 C14.8114035,17.1092836 14.8114035,18.0095029 14.4627193,18.7993421 C14.3092106,19.1070906 14.3695176,19.4780702 14.6129386,19.7207602 C14.6743421,19.7825292 20.81981,25.9400585 23.3062866,29.497076 C23.4557749,29.7108918 23.6999269,29.8380848 23.9608918,29.8380848 C24.0365497,29.8373538 24.1114766,29.8263889 24.1838451,29.804459 L26.0201024,32.7379386 L21.8578217,36.1056286 Z M32.311769,39.8128655 L25.5084065,28.9269006 C25.8545321,28.6688597 26.1812865,28.3859649 26.4864766,28.0804094 C26.5120614,28.0869884 26.5365497,28.0910087 26.5661549,28.0972222 C26.6461988,28.1165936 26.7258771,28.1403509 26.805921,28.1626462 C26.9078947,28.1915205 27.0102339,28.2211257 27.1154971,28.2554825 C27.195541,28.2817983 27.2752193,28.3114035 27.3548977,28.3399122 C27.4667397,28.380117 27.5785819,28.4199561 27.6937134,28.4645468 C27.7733918,28.495614 27.8534357,28.5292398 27.933114,28.5621345 C28.0570175,28.6129386 28.1805556,28.6648392 28.305921,28.7218567 C28.3819444,28.754386 28.4576023,28.7894737 28.5343568,28.8245614 C28.6717837,28.8877924 28.8106725,28.9524854 28.9510233,29.0211988 L29.1491228,29.1184211 C29.308845,29.1984649 29.4638158,29.2781433 29.623538,29.3581871 L29.7766813,29.4378655 C29.9565058,29.5336257 30.1377924,29.6319444 30.31981,29.7324561 L30.4137427,29.7850877 C30.621345,29.9016813 30.8293128,30.0204678 31.0376462,30.1414474 L31.0551901,30.1516813 C32.8611111,31.2072369 34.6710526,32.4375 36.0252193,33.3574561 C36.8234649,33.9334795 37.6520468,34.4667397 38.5069445,34.9543129 L39.7174708,36.6838451 C38.251462,38.1114766 34.3333333,39.3114035 32.311769,39.8128655 L32.311769,39.8128655 Z M39.254386,33.5354532 C38.4466375,33.0745614 37.6637427,32.5709064 36.9093567,32.0274123 C34.7262427,30.4861111 32.4532164,29.0774854 30.1016082,27.8081141 L29.9897661,27.751462 C29.6290204,27.5705409 29.2737573,27.4027778 28.9239766,27.248538 L28.7858188,27.1893275 C28.4378655,27.0402047 28.0961258,26.9053362 27.7646199,26.7902046 C27.754386,26.7861842 27.7423246,26.7807018 27.7320907,26.7774123 C27.811769,26.691155 27.8859649,26.6096491 27.9667397,26.5219298 C29.0745614,25.2383041 30.2971491,24.0581141 31.6187865,22.9959795 C31.688231,22.942617 31.748538,22.8782895 31.7967836,22.8051901 C31.804459,22.7945907 31.811038,22.7836257 31.8176169,22.7726608 C31.8296784,22.75 31.8402778,22.7269737 31.8494152,22.7032164 C31.8676901,22.6728801 31.8834064,22.6418129 31.8972953,22.6096491 L31.9619883,22.4148392 C33.7459795,22.0771199 35.5749269,22.0522661 37.3676901,22.3413743 C39.4294591,22.7521929 41.5186404,23.0131579 43.6184211,23.1220761 C42.8600146,25.4711257 41.1425439,30.9294591 40.7865497,33.5354532 L39.254386,33.5354532 Z" id="Shape" fill="#020288"></path>
                        <path d="M13.7335527,30.3578217 C13.3077485,30.2843567 12.9009503,30.5635965 12.8157895,30.9872076 C12.7302632,31.4108187 12.997807,31.8256579 13.4192252,31.9225146 C13.4550438,31.9298246 17.054459,32.694079 18.4491959,35.4894006 C18.6465643,35.8837719 19.1260965,36.0442251 19.5208333,35.8468567 C19.9155702,35.6498538 20.0756579,35.1703216 19.878655,34.7755847 C18.125,31.2726608 13.9093567,30.3929094 13.7335527,30.3578217 L13.7335527,30.3578217 Z" id="Path" fill="#020288"></path>
                    </g>
                </g>
            </g>
        </g>
    </g>
</svg>