<?xml version="1.0" encoding="UTF-8"?>
<svg width="47px" height="48px" viewBox="0 0 47 48" version="1.1" xmlns="http://www.w3.org/2000/svg" xmlns:xlink="http://www.w3.org/1999/xlink">
    <title>gambling</title>
    <g id="Home" stroke="none" stroke-width="1" fill="none" fill-rule="evenodd">
        <g id="Home-1600" transform="translate(-766.000000, -2109.000000)" fill-rule="nonzero">
            <g id="Ниша-4" transform="translate(70.000000, 2109.000000)">
                <g id="Group-5-Copy-6" transform="translate(674.000000, 0.000000)">
                    <g id="gambling" transform="translate(22.000000, 0.000000)">
                        <path d="M43.0799062,11.3187188 L37.32075,9.44925 L37.3142813,36.082125 C37.3142813,36.1969687 37.3054687,36.30975 37.288875,36.4200937 L44.5229062,14.1497812 C44.90625,12.969375 44.2602187,11.7017812 43.0799062,11.3187188 Z" id="Path" fill="#E2C4FF"></path>
                        <path d="M35.0717812,0.9376875 L11.5195312,0.9376875 C10.276875,0.9376875 9.2694375,1.94484375 9.26915625,3.1875 L9.26746875,10.2164062 L24.2810625,5.3428125 C25.431,4.9695 26.6736562,5.62321875 27.057,6.80315625 L36.6679687,37.062 C36.7204687,37.2235312 36.7534687,37.3866562 36.7695,37.5486562 C37.1086875,37.1547187 37.3141875,36.6425625 37.314375,36.0820312 L37.3223437,3.18853125 C37.3223437,1.9455 36.3148125,0.9376875 35.0717812,0.9376875 Z" id="Path" fill="#FFFFFF"></path>
                        <path d="M35.2791562,39.8754375 L22.8184687,43.9202813 L31.5283125,46.8837187 C32.7081562,47.2667813 33.9751875,46.6208438 34.3585312,45.441 L36.48825,38.8843125 C36.2295,39.3404062 35.811,39.70275 35.2791562,39.8754375 Z" id="Path" fill="#E2C4FF"></path>
                        <path d="M36.667875,37.062 L27.0569063,6.80315625 C26.6736563,5.6233125 25.4309062,4.9695 24.2809688,5.3428125 L2.4410625,12.4321875 C1.29075,12.8055938 0.66890625,14.0653125 1.05234375,15.245625 L10.6633125,45.504375 C11.0465625,46.6843125 12.2893125,47.3380313 13.43925,46.9647188 L35.27925,39.8753437 C36.4294687,39.5020313 37.0513125,38.2423125 36.667875,37.062 Z" id="Path"></path>
                        <g id="Group" transform="translate(6.000000, 14.906250)" fill="#020288">
                            <path d="M10.3870312,4.27284375 C10.3870312,4.27284375 6.54225,9.0118125 7.7285625,12.56325 C8.32171875,14.3389687 9.97996875,15.1666875 11.134125,14.7811875 C12.9985312,14.1583125 12.997125,12.0861562 12.997125,12.0861562 C12.997125,12.0861562 14.2414687,13.7430937 16.1057812,13.120125 C17.2599375,12.7345312 18.0875625,11.0762812 17.4944062,9.3005625 C16.308,5.7489375 10.3870312,4.27284375 10.3870312,4.27284375 Z" id="Path"></path>
                            <circle id="Oval" cx="1.94109375" cy="1.945125" r="1.8721875"></circle>
                            <circle id="Oval" cx="23.9372812" cy="20.6670938" r="1.8721875"></circle>
                        </g>
                        <g id="Group" fill="#020288">
                            <path d="M45.182625,12.0301875 C44.8048125,11.2939687 44.1635625,10.6917187 43.3693125,10.426875 L38.2584375,8.76778125 C38.2584375,8.76778125 38.25975,3.1933125 38.25975,3.1888125 C38.2602188,1.4548125 36.8018438,0 35.0717813,0 L11.5195313,0 C9.762,0 8.3319375,1.42978125 8.3315625,3.18721875 L8.3300625,9.53475 C8.3300625,9.53475 2.15728125,11.5384687 2.15175,11.54025 C0.51796875,12.0705937 -0.36703125,13.9107187 0.15890625,15.5294062 C0.15890625,15.5294062 9.76678125,45.7786875 9.77165625,45.7940625 C10.2841875,47.4077812 12.1078125,48.382875 13.7288438,47.8565625 L22.8117188,44.9082187 L31.2265313,47.7713437 C31.2306563,47.77275 31.234875,47.7741562 31.2390938,47.7755625 C32.8718438,48.313875 34.7145938,47.3803125 35.2505625,45.7305937 C35.2505625,45.7305937 45.4082813,14.4598125 45.4149375,14.439375 C45.6749063,13.638 45.5607188,12.7669687 45.182625,12.0301875 Z M10.20675,3.1876875 C10.2068438,2.46403125 10.7957813,1.87528125 11.5194375,1.87528125 C11.5194375,1.87528125 35.0286563,1.87528125 35.0716875,1.87528125 C35.782125,1.87528125 36.3844688,2.4800625 36.3844688,3.18825 L36.37725,33.0497812 L27.94875,6.5135625 C27.4064063,4.84396875 25.6310625,3.91865625 23.9915625,4.4510625 L10.2053438,8.92603125 L10.20675,3.1876875 Z M13.1496563,46.0730625 C12.4932188,46.2859687 11.778,45.901125 11.5568438,45.2206875 C11.5568438,45.2206875 1.9584375,15.0014062 1.94409375,14.956125 C1.73990625,14.3131875 2.07365625,13.5374062 2.7305625,13.324125 L24.5704688,6.23465625 C24.6931875,6.1948125 24.817875,6.17596875 24.94125,6.17596875 C25.477125,6.17596875 25.9836563,6.534 26.1632813,7.087125 C26.1632813,7.087125 35.7600938,37.3015312 35.7760313,37.3516875 C35.9720625,37.9689375 35.6369063,38.7735 34.9896563,38.9836875 L13.1496563,46.0730625 Z M33.4667813,45.1512187 C33.2445,45.8356875 32.508,46.21275 31.8231563,45.9934687 L25.791,43.9410937 L34.8109688,41.0131875 L33.4667813,45.1512187 Z M43.6310625,13.8600937 L38.2531875,30.4159687 L38.2579688,10.73925 C38.2579688,10.73925 42.7831875,12.208125 42.7903125,12.2104687 C43.4635313,12.429 43.8493125,13.188375 43.6310625,13.8600937 Z" id="Shape"></path>
                            <path d="M22.402875,28.9156875 C23.9899688,28.3854375 25.16475,26.247375 24.3837188,23.909625 C23.0495625,19.915875 16.8759375,18.3346875 16.6137188,18.2693438 C16.2604688,18.1812187 15.8881875,18.305625 15.6586875,18.5884688 C15.4885313,18.7981875 11.5049062,23.7730313 12.8389687,27.7666875 C13.3590937,29.3236875 14.8082813,30.7185938 16.5396563,30.7185 C17.407875,30.7184063 18.295125,30.295125 18.8963438,29.6511563 L19.64925,31.9050938 L18.3190313,32.3495625 C17.827875,32.513625 17.56275,33.0448125 17.7268125,33.5359688 C17.887125,34.0160625 18.4343438,34.288125 18.9133125,34.1282813 L23.3522813,32.64525 C23.8434375,32.4811875 24.1085625,31.9499063 23.9445,31.45875 C23.7804375,30.9675 23.2490625,30.702375 22.758,30.8665312 L21.427875,31.311 L20.6749688,29.0569687 C21.186375,29.1469688 21.76575,29.1285 22.402875,28.9156875 Z M16.8369375,28.7979375 C15.8335313,29.1330937 14.8932188,27.9965625 14.6177813,27.1723125 C13.8736875,24.9448125 15.6557813,21.779625 16.7468438,20.256375 C18.5350313,20.8183125 21.861,22.2765938 22.6050938,24.5037188 C23.0458125,25.8230625 22.4383125,26.9265938 21.8086875,27.136875 C20.6235,27.5330625 19.7775938,26.4684375 19.7468438,26.4291563 C19.5045938,26.1064688 19.0827188,25.9750313 18.6999375,26.1029063 C18.3170625,26.2307812 18.0591563,26.589375 18.0593438,26.992875 C18.0593438,27.0068437 18.0463125,28.393875 16.8369375,28.7979375 Z" id="Shape"></path>
                            <path d="M7.940625,14.0415938 C6.3913125,14.0415938 5.1309375,15.3020625 5.1309375,16.8514688 C5.1309375,18.400875 6.3913125,19.66125 7.940625,19.66125 C9.4899375,19.66125 10.7504063,18.4007813 10.7504063,16.851375 C10.7504063,15.3019687 9.4899375,14.0415938 7.940625,14.0415938 Z M7.940625,17.7859688 C7.425375,17.7859688 7.00621875,17.3667188 7.00621875,16.851375 C7.00621875,16.3360313 7.425375,15.9167813 7.940625,15.9167813 C8.455875,15.9167813 8.875125,16.3360313 8.875125,16.851375 C8.87503125,17.3668125 8.455875,17.7859688 7.940625,17.7859688 Z" id="Shape"></path>
                            <path d="M29.9375625,32.76375 C28.38825,32.76375 27.127875,34.0242187 27.127875,35.573625 C27.127875,37.1230312 28.38825,38.3835 29.9375625,38.3835 C31.486875,38.3835 32.7473438,37.1230312 32.7473438,35.573625 C32.7473438,34.0242187 31.4867813,32.76375 29.9375625,32.76375 Z M29.9375625,36.508125 C29.4223125,36.508125 29.0031563,36.088875 29.0031563,35.5735312 C29.0031563,35.0581875 29.4223125,34.6389375 29.9375625,34.6389375 C30.4528125,34.6389375 30.8720625,35.0581875 30.8720625,35.5735312 C30.8719688,36.088875 30.4528125,36.508125 29.9375625,36.508125 Z" id="Shape"></path>
                            <path d="M33.4013438,5.887125 C33.918,5.887125 34.3390313,5.46609375 34.3390313,4.9494375 C34.3390313,4.43184375 33.918,4.01175 33.4013438,4.01175 C32.88375,4.01175 32.4636562,4.43184375 32.4636562,4.9494375 C32.4636562,5.466 32.88375,5.887125 33.4013438,5.887125 Z" id="Path"></path>
                            <path d="M33.4013438,14.1383437 C33.918,14.1383437 34.3390313,13.7173125 34.3390313,13.2006562 L34.3390313,8.7 C34.3390313,8.18334375 33.918,7.7623125 33.4013438,7.7623125 C32.88375,7.7623125 32.4636562,8.18334375 32.4636562,8.7 L32.4636562,13.2006562 C32.4636562,13.7173125 32.88375,14.1383437 33.4013438,14.1383437 Z" id="Path"></path>
                        </g>
                    </g>
                </g>
            </g>
        </g>
    </g>
</svg>