<?xml version="1.0" encoding="UTF-8"?>
<svg width="32px" height="28px" viewBox="0 0 32 28" version="1.1" xmlns="http://www.w3.org/2000/svg" xmlns:xlink="http://www.w3.org/1999/xlink">
    <title>keys</title>
    <g id="Home" stroke="none" stroke-width="1" fill="none" fill-rule="evenodd">
        <g id="Home-375" transform="translate(-40.000000, -1344.000000)" fill-rule="nonzero">
            <g id="Group-12" transform="translate(20.000000, 1325.000000)">
                <g id="keys" transform="translate(20.000000, 19.000000)">
                    <path d="M13.1594375,6.56325 C9.4956875,6.56325 6.515,9.54775 6.515,13.2161875 C6.515,16.884625 9.4956875,19.869125 13.1594375,19.869125 C16.8231875,19.869125 19.803875,16.884625 19.803875,13.2161875 C19.803875,9.54775 16.82325,6.56325 13.1594375,6.56325 Z M13.1594375,16.920375 C11.1163125,16.920375 9.46,15.2619375 9.46,13.2161875 C9.46,11.1704375 11.1163125,9.512 13.1594375,9.512 C15.2025625,9.512 16.858875,11.1704375 16.858875,13.2161875 C16.858875,15.2619375 15.202625,16.920375 13.1594375,16.920375 L13.1594375,16.920375 Z" id="Shape" fill="#E2C4FF"></path>
                    <path d="M31.0675625,13.145625 L31.9390625,11.319375 C32.0315,11.12575 32.0180625,10.89825 31.903625,10.71675 C31.789125,10.5353125 31.5895625,10.4251875 31.375,10.4251875 L26.899875,10.4251875 C26.6699375,10.4251875 26.4585625,10.5514375 26.3495625,10.753875 L26.1524375,11.1199375 C25.14675,4.847625 19.7031875,0.0406875 13.1594375,0.0406875 C5.9033125,0.0406875 3.55271368e-15,5.9511875 3.55271368e-15,13.2161875 C3.55271368e-15,18.1398125 2.711375,22.44125 6.7176875,24.7025 L4.53025,26.8926875 C4.2863125,27.1369375 4.286625,27.532625 4.5308125,27.7765625 C4.6528125,27.8984375 4.812625,27.9593125 4.9724375,27.9593125 C5.1325,27.9593125 5.292625,27.8981875 5.4146875,27.7759375 L7.8959375,25.2915625 C9.508625,25.9989375 11.2890625,26.3916875 13.1594375,26.3916875 C15.0298125,26.3916875 16.8103125,25.9989375 18.423,25.2915625 L20.9041875,27.7759375 C21.02625,27.8981875 21.1863125,27.9593125 21.346375,27.9593125 C21.5061875,27.9593125 21.666,27.898375 21.788,27.7765625 C22.03225,27.532625 22.0325,27.1369375 21.7885625,26.8926875 L19.60125,24.7025 C23.058125,22.751375 25.550875,19.2811875 26.1695625,15.2030625 L26.349625,15.5374375 C26.458625,15.739875 26.67,15.866125 26.8999375,15.866125 L31.375,15.866125 C31.5895625,15.866125 31.789125,15.7560625 31.903625,15.5745625 C32.0180625,15.3930625 32.0315,15.1655625 31.9390625,14.9719375 L31.0675625,13.145625 Z M13.1594375,25.1416875 C6.5925625,25.1416875 1.25,19.7919375 1.25,13.2161875 C1.25,6.6404375 6.5925625,1.2906875 13.1594375,1.2906875 C19.493125,1.2906875 24.6879375,6.2673125 25.048875,12.520625 L23.3505,12.520625 C22.9921875,7.20475 18.5583125,2.9895 13.1595,2.9895 C7.52725,2.9895 2.9450625,7.5771875 2.9450625,13.21625 C2.9450625,18.8553125 7.52725,23.4429375 13.1595,23.4429375 C18.606,23.4429375 23.0705,19.152875 23.3590625,13.770625 L25.0561875,13.770625 C24.7659375,20.09 19.54075,25.1416875 13.1594375,25.1416875 Z M17.4280625,12.520625 C17.0946875,10.463 15.3074375,8.8870625 13.1594375,8.8870625 C10.7749375,8.8870625 8.835,10.829125 8.835,13.21625 C8.835,15.603375 10.7749375,17.5454375 13.1594375,17.5454375 C15.3563125,17.5454375 17.175875,15.8969375 17.4485625,13.7706875 L22.1069375,13.7706875 C21.82,18.46325 17.9165625,22.193 13.1594375,22.193 C8.2164375,22.193 4.195,18.1660625 4.195,13.2163125 C4.195,8.2665 8.2164375,4.2395625 13.1594375,4.2395625 C17.86875,4.2395625 21.7415,7.8946875 22.09725,12.5206875 L17.4280625,12.5206875 L17.4280625,12.520625 Z M13.1594375,13.770625 L16.183875,13.770625 C15.9224375,15.2048125 14.66575,16.295375 13.1594375,16.295375 C11.4641875,16.295375 10.085,14.9140625 10.085,13.2161875 C10.085,11.5183125 11.4641875,10.137 13.1594375,10.137 C14.6159375,10.137 15.8390625,11.156625 16.15475,12.5205625 L13.1594375,12.5205625 C12.81425,12.5205625 12.5344375,12.800375 12.5344375,13.1455625 C12.5344375,13.4908125 12.81425,13.770625 13.1594375,13.770625 L13.1594375,13.770625 Z M29.811,13.41475 L30.38425,14.6160625 L27.27325,14.6160625 L26.4814375,13.145625 L27.27325,11.6751875 L30.38425,11.6751875 L29.811,12.8764375 C29.72975,13.0466875 29.72975,13.2445 29.811,13.41475 Z" id="Shape" fill="#020288"></path>
                </g>
            </g>
        </g>
    </g>
</svg>