<?xml version="1.0" encoding="UTF-8"?>
<svg width="31px" height="28px" viewBox="0 0 31 28" version="1.1" xmlns="http://www.w3.org/2000/svg" xmlns:xlink="http://www.w3.org/1999/xlink">
    <title>tz</title>
    <g id="Home" stroke="none" stroke-width="1" fill="none" fill-rule="evenodd">
        <g id="Home-375" transform="translate(-41.000000, -1553.000000)" fill-rule="nonzero">
            <g id="Group-10" transform="translate(21.000000, 1534.000000)">
                <g id="tz" transform="translate(20.000000, 19.000000)">
                    <g id="Group" transform="translate(2.372881, 6.762712)">
                        <circle id="Oval" fill="#E2C4FF" transform="translate(4.250609, 4.244585) rotate(-67.485887) translate(-4.250609, -4.244585) " cx="4.25060875" cy="4.24458454" r="3.22911491"></circle>
                        <path d="M4.14904237,5.13485593 C4.04908475,5.13485593 3.94841525,5.10964407 3.85694068,5.05779661 L3.30127119,4.74309322 C3.01616949,4.58167797 2.91597458,4.21969492 3.07738983,3.93459322 C3.23880508,3.64955085 3.60078814,3.54923729 3.88588983,3.71077119 L4.04890678,3.80307627 L4.53089831,3.32108475 C4.76255085,3.08955085 5.13811864,3.08955085 5.36983051,3.32108475 C5.60148305,3.55273729 5.60148305,3.92836441 5.36977119,4.16007627 L4.56868644,4.96116102 C4.45449153,5.07529661 4.30262712,5.13485593 4.14904237,5.13485593 Z" id="Path" fill="#020288"></path>
                        <g transform="translate(1.008475, 10.915254)">
                            <circle id="Oval" fill="#E2C4FF" cx="3.2385678" cy="3.27944068" r="3.22836441"></circle>
                            <path d="M3.1405678,4.17277119 C3.04061017,4.17277119 2.93994068,4.14755932 2.8484661,4.09571186 L2.29279661,3.78100847 C2.00769492,3.61959322 1.9075,3.25761017 2.06891525,2.97250847 C2.23033051,2.68740678 2.59231356,2.58715254 2.87741525,2.74868644 L3.0404322,2.84099153 L3.52242373,2.35894068 C3.75407627,2.12734746 4.12970339,2.12734746 4.36135593,2.35894068 C4.59300847,2.59059322 4.5930678,2.96622034 4.36141525,3.1979322 L3.56033051,3.99907627 C3.44601695,4.11321186 3.29415254,4.17277119 3.1405678,4.17277119 L3.1405678,4.17277119 Z" id="Path" fill="#020288"></path>
                        </g>
                    </g>
                    <g id="Group" fill="#020288">
                        <path d="M28.9498051,0 L25.5204576,0 C24.7358051,0 24.0973814,0.638423729 24.0973814,1.42307627 L24.0973814,23.1090169 C24.0973814,23.1093729 24.0973814,23.3110085 24.1842881,23.4182627 L26.7246949,27.7089661 C26.8314746,27.8893051 27.0255169,27.9999407 27.235161,27.9999407 C27.4448051,27.9999407 27.6388475,27.8893051 27.7456271,27.7089661 L30.2860339,23.4182627 C30.3590593,23.3059661 30.3729407,23.1094322 30.3729407,23.1090169 L30.3729407,1.42307627 C30.3729407,0.638423729 29.7344576,0 28.9498051,0 L28.9498051,0 Z M25.283822,22.5158559 L25.283822,4.92372881 L26.6419407,4.92372881 L26.6419407,22.5158559 L25.283822,22.5158559 Z M27.828322,4.92372881 L29.1864407,4.92372881 L29.1864407,22.5158559 L27.828322,22.5158559 L27.828322,4.92372881 Z M25.283822,1.42307627 C25.283822,1.29262712 25.3900085,1.18644068 25.5204576,1.18644068 L28.9498051,1.18644068 C29.0803136,1.18644068 29.1864407,1.29262712 29.1864407,1.42307627 L29.1864407,3.73728814 L25.283822,3.73728814 L25.283822,1.42307627 Z M27.2351017,26.2424068 L25.7311695,23.7022966 L28.7389746,23.7022966 L27.2351017,26.2424068 Z" id="Shape"></path>
                        <path d="M19.3110424,11.294678 L12.0392288,11.294678 C11.7115932,11.294678 11.4460085,11.5602627 11.4460085,11.8878983 C11.4460085,12.2154746 11.7115932,12.4811186 12.0392288,12.4811186 L19.3110424,12.4811186 C19.638678,12.4811186 19.9042627,12.2154746 19.9042627,11.8878983 C19.9042627,11.560322 19.638678,11.294678 19.3110424,11.294678 Z" id="Path"></path>
                        <path d="M12.0392288,8.92915254 C11.7115932,8.92915254 11.4460085,9.19479661 11.4460085,9.52237288 C11.4460085,9.85000847 11.7115932,10.1155932 12.0392288,10.1155932 L16.7664831,10.1155932 C17.0941186,10.1155932 17.3597034,9.85000847 17.3597034,9.52237288 C17.3597034,9.19479661 17.0941186,8.92915254 16.7664831,8.92915254 L12.0392288,8.92915254 Z" id="Path"></path>
                        <path d="M19.3110424,21.2479068 L12.0392288,21.2479068 C11.7115932,21.2479068 11.4460085,21.5135508 11.4460085,21.8411271 C11.4460085,22.1687034 11.7115932,22.4343475 12.0392288,22.4343475 L19.3110424,22.4343475 C19.638678,22.4343475 19.9042627,22.1687034 19.9042627,21.8411271 C19.9042627,21.5134915 19.638678,21.2479068 19.3110424,21.2479068 Z" id="Path"></path>
                        <path d="M12.0392288,20.0687627 L16.7664831,20.0687627 C17.0941186,20.0687627 17.3597034,19.8031186 17.3597034,19.4755424 C17.3597034,19.1479661 17.0941186,18.882322 16.7664831,18.882322 L12.0392288,18.882322 C11.7115932,18.882322 11.4460085,19.1479661 11.4460085,19.4755424 C11.4460085,19.8031186 11.7115932,20.0687627 12.0392288,20.0687627 Z" id="Path"></path>
                        <path d="M21.1201864,0.0296610169 L1.58241525,0.0296610169 C0.709847458,0.0296610169 6.32262604e-16,0.739508475 6.32262604e-16,1.61207627 L6.32262604e-16,26.3879237 C6.32262604e-16,27.2604915 0.709847458,27.970339 1.58241525,27.970339 L21.1201864,27.970339 C21.9927542,27.970339 22.7026017,27.2604915 22.7026017,26.3879237 L22.7026017,1.61207627 C22.7026017,0.739508475 21.9926949,0.0296610169 21.1201864,0.0296610169 Z M21.516161,26.3879237 C21.516161,26.6062881 21.3385508,26.7838983 21.1201864,26.7838983 L1.58241525,26.7838983 C1.36405085,26.7838983 1.18644068,26.6062881 1.18644068,26.3879237 L1.18644068,1.61207627 C1.18644068,1.39371186 1.36405085,1.21610169 1.58241525,1.21610169 L21.1201864,1.21610169 C21.3385508,1.21610169 21.516161,1.39371186 21.516161,1.61207627 L21.516161,26.3879237 Z" id="Shape"></path>
                        <path d="M17.9835932,4.66561864 C17.9835932,4.33804237 17.7180085,4.07239831 17.3903729,4.07239831 L5.31222881,4.07239831 C4.98459322,4.07239831 4.71900847,4.33804237 4.71900847,4.66561864 C4.71900847,4.99319492 4.98459322,5.25883898 5.31222881,5.25883898 L17.3903729,5.25883898 C17.7180085,5.25883898 17.9835932,4.99325424 17.9835932,4.66561864 Z" id="Path"></path>
                    </g>
                </g>
            </g>
        </g>
    </g>
</svg>