<?xml version="1.0" encoding="UTF-8"?>
<svg width="49px" height="53px" viewBox="0 0 49 53" version="1.1" xmlns="http://www.w3.org/2000/svg" xmlns:xlink="http://www.w3.org/1999/xlink">
    <title>orders</title>
    <g id="Home" stroke="none" stroke-width="1" fill="none" fill-rule="evenodd">
        <g id="Home-1600" transform="translate(-514.000000, -865.000000)" fill-rule="nonzero">
            <g id="Benefits-6" transform="translate(70.000000, 849.000000)">
                <g id="orders" transform="translate(444.000000, 16.000000)">
                    <g id="Group" fill="#E2C4FF">
                        <g id="Path">
                            <path d="M29.8684141,6.98140625 L40.3840937,6.98140625 L39.1858594,2.10010938 C38.822875,0.6215625 37.3300078,-0.282851563 35.8514609,0.0801328125 L28.7598594,1.82091406 L29.8684141,6.98140625 Z"></path>
                            <path d="M21.6244844,3.57246094 L2.20085938,8.34051562 C0.7223125,8.7035 -0.182101562,10.1963672 0.18078125,11.6749141 L7.288125,40.6281484 L7.288125,9.46501562 C7.288125,8.0933125 8.40003125,6.98140625 9.77173437,6.98140625 L20.8921172,6.98140625 L21.6244844,3.57246094 Z"></path>
                        </g>
                        <g transform="translate(8.835938, 19.500000)" id="Path">
                            <path d="M0.935796875,27.9091719 C0.634867188,27.9091719 0.34653125,27.8556484 0.079625,27.7576406 L0.728203125,30.3998906 C1.0911875,31.8784375 2.58405469,32.7828516 4.06260156,32.4198672 L22.4376953,27.9091719 L0.935796875,27.9091719 Z"></path>
                            <path d="M39.7331797,20.8249844 L34.6364687,0.062359375 L34.6364687,24.9146016 L37.7132031,24.1593828 C39.19175,23.7965 40.0961641,22.3036328 39.7331797,20.8249844 Z"></path>
                        </g>
                    </g>
                    <g id="Group" transform="translate(6.195312, 0.000000)" fill="#020288">
                        <path d="M34.7934844,5.96578125 L24.4937266,5.96578125 L23.661625,2.09239063 L24.9019063,2.09239063 C25.4627344,2.09239063 25.9175313,1.63759375 25.9175313,1.07676563 C25.9175313,0.5159375 25.4627344,0.061140625 24.9019063,0.061140625 L13.468,0.061140625 C12.9070703,0.061140625 12.452375,0.5159375 12.452375,1.07676563 C12.452375,1.63769531 12.9070703,2.09239063 13.468,2.09239063 L14.7082813,2.09239063 L13.8761797,5.96578125 L3.57652344,5.96578125 C1.64703906,5.96578125 0.0772890625,7.53553125 0.0772890625,9.46501563 L0.0772890625,44.9255625 C0.0772890625,46.8550469 1.64703906,48.4247969 3.57652344,48.4247969 L34.7934844,48.4247969 C36.7229688,48.4247969 38.2927188,46.8550469 38.2927188,44.9255625 L38.2927188,9.46501563 C38.2927188,7.53553125 36.7229688,5.96578125 34.7934844,5.96578125 Z M24.9021094,11.5501953 L24.9021094,14.2755234 L13.4676953,14.2755234 L13.4676953,11.5501953 L24.9021094,11.5501953 Z M21.5839609,2.09239062 L23.1794063,9.51884375 L15.1905,9.51884375 L16.7859453,2.09239062 L21.5839609,2.09239062 Z M36.2614688,44.9256641 C36.2614688,45.7351172 35.6029375,46.3936484 34.7934844,46.3936484 L3.57652344,46.3936484 C2.76707031,46.3936484 2.10853906,45.7351172 2.10853906,44.9256641 L2.10853906,9.46501562 C2.10853906,8.6555625 2.76707031,7.99703125 3.57652344,7.99703125 L13.4398672,7.99703125 L13.1129375,9.51884375 L12.4520703,9.51884375 C11.8911406,9.51884375 11.4364453,9.97364062 11.4364453,10.5344687 L11.4364453,15.2910469 C11.4364453,15.851875 11.8911406,16.3066719 12.4520703,16.3066719 L18.1693281,16.3066719 L18.1693281,21.3445781 C18.1693281,21.9054062 18.624125,22.3602031 19.1849531,22.3602031 C19.7457813,22.3602031 20.2005781,21.9054062 20.2005781,21.3445781 L20.2005781,16.3066719 L25.9177344,16.3066719 C26.4785625,16.3066719 26.9333594,15.851875 26.9333594,15.2910469 L26.9333594,10.5344687 C26.9333594,9.97364062 26.4785625,9.51884375 25.9177344,9.51884375 L25.2569688,9.51884375 L24.9300391,7.99703125 L34.7933828,7.99703125 C35.6028359,7.99703125 36.2614688,8.6555625 36.2614688,9.46501562 L36.2614688,44.9256641 L36.2614688,44.9256641 Z" id="Shape"></path>
                        <path d="M30.4064922,24.984375 L7.96351562,24.984375 C7.4026875,24.984375 6.94789062,25.4390703 6.94789062,26 C6.94789062,26.5608281 7.4026875,27.015625 7.96351562,27.015625 L30.4064922,27.015625 C30.9673203,27.015625 31.4221172,26.5608281 31.4221172,26 C31.4221172,25.4390703 30.9673203,24.984375 30.4064922,24.984375 Z" id="Path"></path>
                        <path d="M30.4064922,32.1098984 L7.96351562,32.1098984 C7.4026875,32.1098984 6.94789062,32.5646953 6.94789062,33.1255234 C6.94789062,33.6863516 7.4026875,34.1411484 7.96351562,34.1411484 L30.4064922,34.1411484 C30.9673203,34.1411484 31.4221172,33.6863516 31.4221172,33.1255234 C31.4221172,32.5646953 30.9673203,32.1098984 30.4064922,32.1098984 Z" id="Path"></path>
                    </g>
                </g>
            </g>
        </g>
    </g>
</svg>