<?xml version="1.0" encoding="UTF-8"?>
<svg width="48px" height="48px" viewBox="0 0 48 48" version="1.1" xmlns="http://www.w3.org/2000/svg" xmlns:xlink="http://www.w3.org/1999/xlink">
    <title>pharma</title>
    <g id="Home" stroke="none" stroke-width="1" fill="none" fill-rule="evenodd">
        <g id="Home-1600" transform="translate(-1392.000000, -2111.000000)" fill-rule="nonzero">
            <g id="Ниша-4" transform="translate(70.000000, 2109.000000)">
                <g id="Group-5-Copy-9" transform="translate(1301.000000, 2.000000)">
                    <g id="pharma" transform="translate(21.000000, 0.000000)">
                        <path d="M29.8424062,48 L18.1575937,48 C15.84675,48 13.9667812,46.1199375 13.9667812,43.8091875 L13.9667812,34.0333125 L4.1908125,34.0333125 C1.87996875,34.0333125 0,32.15325 0,29.8424062 L0,18.1575937 C0,15.8468437 1.87996875,13.9667812 4.1908125,13.9667812 L13.9666875,13.9667812 L13.9666875,4.1908125 C13.9666875,1.8800625 15.84675,-5.32907052e-15 18.1575937,-5.32907052e-15 L29.8425,-5.32907052e-15 C32.1533437,-5.32907052e-15 34.0333125,1.8800625 34.0333125,4.1908125 L34.0333125,13.9666875 L43.8091875,13.9666875 C46.1200312,13.9666875 48,15.84675 48,18.1575 L48,29.8424062 C48,32.1531562 46.1200312,34.0332187 43.8091875,34.0332187 L34.0332187,34.0332187 L34.0332187,43.8090937 C34.0332187,46.1199375 32.15325,48 29.8424062,48 Z M4.1908125,15.8417813 C2.91384375,15.8417813 1.875,16.880625 1.875,18.1575938 L1.875,29.8425 C1.875,31.1194688 2.91384375,32.1583125 4.1908125,32.1583125 L14.9041875,32.1583125 C15.4219687,32.1583125 15.8416875,32.5780313 15.8416875,33.0958125 L15.8416875,43.8091875 C15.8416875,45.0861562 16.880625,46.125 18.1575,46.125 L29.8424062,46.125 C31.119375,46.125 32.1582187,45.0861562 32.1582187,43.8091875 L32.1582187,33.0958125 C32.1582187,32.5780313 32.5779375,32.1583125 33.0957187,32.1583125 L43.8090937,32.1583125 C45.0860625,32.1583125 46.1249062,31.1194688 46.1249062,29.8425 L46.1249062,18.1575938 C46.1249062,16.880625 45.0859687,15.8417813 43.8090937,15.8417813 L33.0957187,15.8417813 C32.5779375,15.8417813 32.1582187,15.4220625 32.1582187,14.9042813 L32.1582187,4.1908125 C32.1582187,2.91384375 31.119375,1.875 29.8424062,1.875 L18.1575937,1.875 C16.880625,1.875 15.8417812,2.91384375 15.8417812,4.1908125 L15.8417812,14.9041875 C15.8417812,15.4219687 15.4220625,15.8416875 14.9042812,15.8416875 L4.1908125,15.8416875 L4.1908125,15.8417813 Z" id="Shape" fill="#020288"></path>
                        <polygon id="Path" fill="#E2C4FF" points="19.2166875 42.75 19.2166875 28.7833125 5.25 28.7833125 5.25 19.2167813 19.2166875 19.2167813 19.2166875 5.25 28.7832188 5.25 28.7832188 19.2167813 42.75 19.2167813 42.75 28.7833125 28.7832187 28.7833125 28.7832187 42.75"></polygon>
                    </g>
                </g>
            </g>
        </g>
    </g>
</svg>