<?xml version="1.0" encoding="UTF-8"?>
<svg width="48px" height="46px" viewBox="0 0 48 46" version="1.1" xmlns="http://www.w3.org/2000/svg" xmlns:xlink="http://www.w3.org/1999/xlink">
    <title>business</title>
    <g id="Home" stroke="none" stroke-width="1" fill="none" fill-rule="evenodd">
        <g id="Home-1600" transform="translate(-979.000000, -2111.000000)" fill-rule="nonzero">
            <g id="Ниша-4" transform="translate(70.000000, 2109.000000)">
                <g id="Group-5-Copy-7" transform="translate(875.000000, 2.000000)">
                    <g id="business" transform="translate(34.000000, 0.000000)">
                        <path d="M42.112,6.08 L5.888,6.08 C3.2,6.08 0.96,8.32 0.96,11.008 L0.96,11.712 L47.04,11.712 L47.04,11.008 C47.04,8.256 44.8,6.08 42.112,6.08 Z" id="Path" fill="#E2C4FF"></path>
                        <path d="M28.352,26.24 C28.352,27.776 27.072,29.056 25.536,29.056 L22.464,29.056 C20.928,29.056 19.648,27.776 19.648,26.24 L19.648,26.24 C19.648,24.704 20.928,23.424 22.464,23.424 L25.536,23.424 C27.072,23.36 28.352,24.64 28.352,26.24 L28.352,26.24 Z" id="Path" fill="#E2C4FF"></path>
                        <path d="M42.112,5.056 L33.856,5.056 C33.408,2.24 30.912,0.064 27.968,0.064 L20.032,0.064 C17.088,0.064 14.592,2.24 14.144,5.056 L5.888,5.056 C2.624,5.056 0,7.68 0,10.944 L0,38.528 C0,41.792 2.624,44.416 5.888,44.416 L42.112,44.416 C45.376,44.416 48,41.792 48,38.528 L48,11.008 C48,7.744 45.376,5.056 42.112,5.056 Z M29.12,24.96 C28.608,23.488 27.2,22.4 25.536,22.4 L22.464,22.4 C20.8,22.4 19.392,23.488 18.88,24.96 L1.92,20.352 L1.92,13.184 L46.016,13.184 L46.016,20.352 L29.12,24.96 Z M27.392,26.24 C27.392,27.264 26.56,28.096 25.536,28.096 L22.464,28.096 C21.44,28.096 20.608,27.264 20.608,26.24 C20.608,25.216 21.44,24.384 22.464,24.384 L25.536,24.384 C26.56,24.384 27.392,25.216 27.392,26.24 Z M20.032,2.048 L27.904,2.048 C29.76,2.048 31.36,3.328 31.808,5.056 L16.192,5.056 C16.64,3.328 18.176,2.048 20.032,2.048 Z M5.888,7.04 L42.112,7.04 C44.288,7.04 46.08,8.832 46.08,11.008 L46.08,11.2 L1.92,11.2 L1.92,11.008 C1.92,8.832 3.712,7.04 5.888,7.04 Z M42.112,42.496 L5.888,42.496 C3.712,42.496 1.92,40.704 1.92,38.528 L1.92,22.4 L18.688,27.008 C19.072,28.736 20.608,30.08 22.4,30.08 L25.472,30.08 C27.328,30.08 28.864,28.8 29.184,27.008 L45.952,22.4 L45.952,38.592 C46.08,40.768 44.288,42.496 42.112,42.496 Z" id="Shape" fill="#020288"></path>
                    </g>
                </g>
            </g>
        </g>
    </g>
</svg>