<svg viewBox="0 0 70 26" version="1.1" xmlns="http://www.w3.org/2000/svg">
    <path d="M67.1361053,14.0865263 C67.0471579,13.5733684 66.6147368,13.2654737 65.9893684,13.2586316 C65.7964211,13.2558947 65.6048421,13.2750526 65.4173684,13.2545263 C65.0478947,13.2162105 64.9507368,13.3393684 64.9534737,13.6322105 C64.9712632,15.0690526 64.9657895,16.5045263 64.9603158,17.9372632 C64.9562105,18.6885263 64.2227368,19.4603158 63.3414737,19.656 C60.6046316,20.2567368 57.8705263,20.8670526 55.1309474,21.4623158 C54.8230526,21.5293684 54.4987368,21.5635789 54.1853684,21.5608421 C54.0485263,21.5608421 53.8596842,21.4568421 53.8008421,21.3555789 C53.7625263,21.2885263 53.8829474,21.1256842 53.9773684,21.0422105 C54.1018947,20.9409474 54.2606316,20.8602105 54.4234737,20.8041053 C54.9256842,20.6248421 55.4361053,20.462 55.9437895,20.2936842 C57.9758947,19.6176842 60.0121053,18.9498947 62.0414737,18.2697895 C62.9569474,17.9605263 63.4509474,17.3502105 63.466,16.5797895 C63.5125263,14.0837895 63.4892632,11.5877895 63.4783158,9.08905263 C63.4783158,8.69357895 63.2730526,8.36378947 62.8023158,8.19273684 C62.2604211,7.99842105 61.7842105,8.15305263 61.3134737,8.37747368 C58.4370526,9.75 55.562,11.1197895 52.6828421,12.4895789 C51.8357895,12.8932632 51.3636842,13.4775789 51.3677629,14.3095789 C51.3773684,16.6701053 51.3705263,19.0265263 51.3732632,21.3843158 C51.3732632,21.502 51.3855789,21.6224211 51.4225263,21.7346316 C51.7057895,22.5365263 52.4406316,22.9963158 53.456,22.9963158 C55.4798947,23.0017895 57.5106316,22.9990526 59.5358947,22.9990526 C61.5543158,22.9990526 63.5658947,23.0017895 65.5843158,22.9963158 C66.0222105,22.9963158 66.4258947,22.906 66.7543158,22.6350526 C67.1798947,22.2929474 67.158,21.8577895 67.158,21.424 C67.1621053,19.1250526 67.1621053,16.8288421 67.1593684,14.5257895 C67.1634737,14.3821053 67.1607368,14.2315789 67.1361053,14.0865263 Z M58.7203158,13.3489474 C58.9242105,12.8193684 59.3689474,12.4882105 60.0476842,12.4033684 C60.4965263,12.3458947 60.8878947,12.6236842 60.9522105,13.0287368 C61.0493684,13.6527368 60.2693684,14.378 59.4989474,14.3752709 C58.8557895,14.3752709 58.4972632,13.9250526 58.7203158,13.3489474 Z" id="Shape" fill="#000000" fill-rule="nonzero"></path>
    <path d="M10.4164211,4.22431579 C10.4164211,4.95231579 10.4164211,5.66526316 10.4164211,6.38505263 C9.86494737,6.38505263 9.35178947,6.38505263 8.79894737,6.38505263 C8.79894737,5.65021053 8.79894737,4.93726316 8.79894737,4.21747368 C8.49926316,4.21747368 8.23926316,4.21747368 7.95326316,4.21747368 C7.95326316,6.01968421 7.95326316,7.79042105 7.95326316,9.56526316 C8.24884211,9.56526316 8.51568421,9.56526316 8.82494737,9.56526316 C8.82494737,8.75515789 8.82494737,7.96694737 8.82494737,7.17052632 C9.37231579,7.17052632 9.87863158,7.17052632 10.4218947,7.17052632 C10.4218947,7.97789474 10.4218947,8.76747368 10.4218947,9.568 C10.7297895,9.568 10.9966316,9.568 11.2826316,9.568 C11.2826316,7.77810526 11.2826316,6.00463158 11.2826316,4.22431579 C10.9897895,4.22431579 10.7229474,4.22431579 10.4164211,4.22431579 Z" id="Path" fill="#000000" fill-rule="nonzero"></path>
    <path d="M31.9293684,18.9444211 C31.6748421,17.6731579 30.7087368,16.9013684 29.1665263,16.7741053 C28.5589474,16.7275789 27.9404211,16.7658947 27.2849474,16.7658947 C27.2849474,15.6451579 27.2849474,14.5121053 27.2849474,13.3817895 C26.8196842,13.3817895 26.3982105,13.3817895 25.9657895,13.3817895 C25.9657895,16.4963158 25.9657895,19.5889474 25.9657895,22.7910526 C26.9414737,22.7910526 27.8843158,22.8471579 28.8148421,22.776 C30.2092632,22.672 31.2725263,22.1177895 31.7706316,20.9806316 C32.0607368,20.3210526 32.0662105,19.6341053 31.9293684,18.9444211 Z M29.8890526,20.3703158 C29.6441053,21.4103158 28.5794737,21.9002105 27.2958947,21.5964211 C27.2958947,20.4414737 27.2904211,19.3056842 27.3068421,18.1671579 C27.3068421,18.0918947 27.4382105,17.9687368 27.5326316,17.9509474 C28.8162105,17.6786316 29.6742105,18.1055789 29.8972632,19.1770526 C29.9766316,19.5615789 29.9793684,19.9844211 29.8890526,20.3703158 Z" id="Shape" fill="#000000" fill-rule="nonzero"></path>
    <path d="M5.89105263,1.34102562 C5.42442105,1.34102562 4.96052632,1.34242105 4.49526316,1.34102562 C3.83842105,1.33831579 3.29378947,1.54357895 2.84631579,1.93905263 C1.30957895,3.29926316 1.71326316,5.88284211 3.75768421,6.43431579 C3.07073684,7.46610526 2.38789474,8.49515789 1.67221053,9.57347368 C1.96368421,9.57347368 2.18810526,9.55842105 2.40705263,9.57757895 C2.69715789,9.60357895 2.84631579,9.50915789 2.98042105,9.29431579 C3.49221053,8.46368421 4.03547368,7.64536842 4.56642105,6.82157895 C4.81136842,6.44389474 4.84147368,6.43294737 5.41894737,6.54378947 C5.41894737,7.54 5.41894737,8.54442105 5.41894737,9.54747368 C5.76789474,9.54747368 6.07031579,9.54747368 6.39873684,9.54747368 C6.39873684,9.37505263 6.39873684,9.23 6.39873684,9.08221053 C6.39873684,6.63821053 6.39873684,4.19284211 6.39873684,1.74747368 C6.39873684,1.34102562 6.39736842,1.34242105 5.89105263,1.34102562 Z M5.39157895,5.68168421 C4.72515789,5.67484211 4.03,5.84042105 3.52231579,5.34094737 C2.94073684,4.77031579 2.77515789,4.11073684 2.99,3.38684211 C3.00778947,3.32936842 3.03652632,3.27463158 3.05978947,3.21989474 C3.49221053,2.22505263 4.06284211,1.94863158 5.39157895,2.11421053 C5.39157895,3.30336842 5.39157895,4.47610526 5.39157895,5.68168421 Z" id="Shape" fill="#000000" fill-rule="nonzero"></path>
    <path d="M30.1093684,8.79757895 C28.6574737,9.282 27.6557895,8.84410526 27.3930526,7.57968421 C27.2548421,6.92421053 27.3041053,6.26463158 27.5435789,5.62557895 C27.8665263,4.75252632 28.5083158,4.49252632 29.5756842,4.78126316 C29.5962105,4.78673684 29.6208421,4.77715789 29.6577895,4.77168421 C29.7645263,4.63894737 29.874,4.49936842 29.9930526,4.35021053 C29.1117895,3.77136842 27.9034737,3.90957895 27.2466316,4.64031579 C26.7389474,5.20410526 26.5405263,5.85684211 26.4762105,6.54242105 C26.4036842,7.32926316 26.5008421,8.09284211 27.0208421,8.78389474 C27.5654737,9.50642105 28.5096842,9.84578947 29.4812632,9.61863158 C30.1668421,9.45715789 30.2434737,9.386 30.1093684,8.79757895 Z" id="Path" fill="#000000" fill-rule="nonzero"></path>
    <path d="M7.12263158,21.6798947 C7.12263158,18.902 7.12263158,16.1555789 7.12263158,13.3845263 C5.42168421,13.3845263 3.77410526,13.3845263 2.16757895,13.3845263 C2.09915789,14.7926316 2.06631579,16.1774737 1.95410526,17.5595789 C1.85421053,18.7856842 1.58326316,19.9885263 1.04136842,21.1462105 C0.862105263,21.528 0.647263158,21.7797895 0.0998947368,21.6881053 C0.0711578947,21.684 0.0355789474,21.7058947 0,21.7195789 C0,22.7376842 0,23.7503158 0,24.7629474 C0.499473684,24.7629474 0.970210526,24.7629474 1.47926316,24.7629474 C1.47926316,24.0746316 1.47926316,23.4136842 1.47926316,22.7541053 C3.276,22.7541053 5.03715789,22.7541053 6.83663158,22.7541053 C6.83663158,23.4355789 6.83663158,24.0951579 6.83663158,24.7684211 C7.33747368,24.7684211 7.79726316,24.7684211 8.27347368,24.7684211 C8.27347368,23.7393684 8.27347368,22.724 8.27347368,21.6798947 C7.878,21.6798947 7.51263158,21.6798947 7.12263158,21.6798947 Z M5.51747368,21.6689474 C4.40631579,21.6689474 3.30747368,21.6689474 2.27431579,21.6689474 C2.55073684,20.9765263 2.88873684,20.2950526 3.094,19.5875789 C3.50589474,18.1657895 3.50315789,16.7070526 3.51410526,15.2524211 C3.51684211,15.028 3.51410526,14.8008421 3.51410526,14.5545263 C4.186,14.5545263 4.83736842,14.5545263 5.51884211,14.5545263 C5.51747368,16.9082105 5.51747368,19.2687368 5.51747368,21.6689474 Z" id="Shape" fill="#000000" fill-rule="nonzero"></path>
    <path d="M21.0476842,8.87010526 C20.7972632,8.94263158 20.5564211,9.03021053 20.3046316,9.08084211 C19.6026316,9.22315789 19.1017895,9.06715789 18.8349474,8.62515789 C18.5215789,8.10789474 18.5366316,7.55231579 18.5557895,6.97073684 C19.4562105,6.97073684 20.3210526,6.97073684 21.2036842,6.97073684 C21.2611579,6.10042105 21.1544211,5.28484211 20.6029474,4.54315789 C20.1185263,3.89178947 19.2796842,3.78778947 18.6132632,4.32284211 C18.3628421,4.52263158 18.1521053,4.77852632 18.0043158,5.03852632 C17.5910526,5.76242105 17.4336842,6.54242105 17.5308421,7.33336842 C17.5924211,7.82463158 17.7278947,8.32410526 17.9372632,8.78663158 C18.2410526,9.46673684 18.9430526,9.81431579 19.7545263,9.72810526 C20.1472632,9.68705263 20.54,9.57621053 20.9094737,9.44757895 C21.3213684,9.30526316 21.3323158,9.17389474 21.0476842,8.87010526 Z M18.9950526,4.94821053 C19.2933684,4.57736842 19.786,4.58831579 20.0501053,4.97694737 C20.3456842,5.408 20.3812632,5.88421053 20.3689474,6.38368421 C19.7271579,6.38368421 19.1401053,6.38368421 18.5243158,6.38368421 C18.5530526,5.86094737 18.6529474,5.37652632 18.9950526,4.94821053 Z" id="Shape" fill="#000000" fill-rule="nonzero"></path>
    <path d="M23.4821053,13.5596842 C23.4246316,13.4898947 23.3521053,13.3845263 23.2795789,13.3817895 C22.8430526,13.364 22.4051579,13.3708421 21.9221053,13.3708421 C21.9221053,14.6694737 21.9221053,15.9503158 21.9221053,17.238 C20.9724211,17.238 20.0692632,17.238 19.0894737,17.238 C19.0894737,15.9393684 19.0894737,14.6667368 19.0894737,13.3776842 C18.5598947,13.3776842 18.0768421,13.3776842 17.5787368,13.3776842 C17.5787368,16.5318947 17.5787368,19.6696842 17.5787368,22.8225263 C18.0918947,22.8225263 18.5831579,22.8225263 19.1086316,22.8225263 C19.1086316,22.6856842 19.1086316,22.568 19.1086316,22.4530526 C19.1086316,21.3501053 19.1072632,20.254 19.1086316,19.1524211 C19.1086316,18.5462105 19.1086316,18.5462105 19.8338947,18.5462105 C20.5208421,18.5462105 21.2077895,18.5462105 21.9330526,18.5462105 C21.9330526,19.9981053 21.9330526,21.4062105 21.9330526,22.8252632 C22.4653684,22.8252632 22.958,22.8252632 23.4684211,22.8252632 C23.4752632,22.7212632 23.4862105,22.6323158 23.4862105,22.5474737 C23.4862105,19.5889474 23.4862105,16.6304211 23.4862105,13.6746316 C23.4862105,13.6349474 23.5053684,13.5856842 23.4821053,13.5596842 Z" id="Path" fill="#000000" fill-rule="nonzero"></path>
    <path d="M24.3264211,6.31526316 C24.8546316,5.70768421 25.3595789,5.08778947 25.8727368,4.47336842 C25.9356842,4.39810526 25.9904211,4.31873684 26.078,4.20378947 C25.9124211,4.20378947 25.8152632,4.21473684 25.7235789,4.20242105 C25.3486316,4.15178947 25.1201053,4.27357895 24.9162105,4.54178947 C24.466,5.13294737 23.9665263,5.69673684 23.4848421,6.27010526 C23.4301053,6.33442105 23.3616842,6.39052632 23.2303158,6.51778947 C23.2303158,5.69536842 23.2303158,4.96463158 23.2303158,4.21884211 C22.9347368,4.21884211 22.6761053,4.21884211 22.3942105,4.21884211 C22.3942105,5.97863158 22.3942105,7.70968421 22.3942105,9.43936842 C22.6815789,9.43936842 22.9402105,9.43936842 23.2426316,9.43936842 C23.2426316,8.81947368 23.2289474,8.21189474 23.2508421,7.60705263 C23.2590526,7.39905263 23.3548421,7.19105263 23.4095789,6.98305263 C23.5724211,7.08294737 23.6422105,7.17189474 23.7037895,7.26494737 C24.1403158,7.92042105 24.5713684,8.57589474 25.012,9.22726316 C25.0694737,9.31347368 25.168,9.42978947 25.2610526,9.44210526 C25.5101053,9.47357895 25.766,9.45305263 26.0738947,9.45305263 C25.4608421,8.51978947 24.8888421,7.63852632 24.3031579,6.76136842 C24.1923158,6.59715789 24.1841053,6.47810526 24.3264211,6.31526316 Z" id="Path" fill="#000000" fill-rule="nonzero"></path>
    <path d="M44.4271579,13.3516842 C44.1808421,13.3434737 44.07,13.4132632 43.9824211,13.6007368 C43.3898947,14.9062105 42.7823158,16.2048421 42.1788421,17.5062105 C41.9147368,18.0754737 41.6410526,18.6447368 41.3742105,19.214 C41.3482105,19.2112632 41.3276842,19.2057895 41.3016842,19.2030526 C41.3016842,17.2653684 41.3016842,15.3276842 41.3016842,13.3749474 C40.7707368,13.3749474 40.2781053,13.3749474 39.7731579,13.3749474 C39.7731579,16.5346316 39.7731579,19.6833684 39.7731579,22.8334737 C40.2781053,22.8334737 40.7543158,22.8334737 41.2743158,22.8334737 C42.2281053,20.7726316 43.1818947,18.7035789 44.1438947,16.6167368 C44.1438947,18.694 44.1438947,20.7616842 44.1438947,22.828 C44.7432632,22.828 45.2988421,22.828 45.8708421,22.828 C45.8708421,19.6683158 45.8708421,16.5305263 45.8708421,13.3585263 C45.3741053,13.3585263 44.9006316,13.3722105 44.4271579,13.3516842 Z" id="Path" fill="#000000" fill-rule="nonzero"></path>
    <path d="M15.4836842,21.4746316 C15.0143158,21.6196842 14.5914737,21.7852632 14.1453684,21.8769474 C12.6962105,22.1738947 11.7492632,21.7729474 11.336,20.722 C11.0171579,19.9146316 11.0294737,19.0812632 11.0157895,18.2013684 C12.6031579,18.2013684 14.1426316,18.2013684 15.7450526,18.2013684 C15.6793684,17.4692632 15.6725263,16.7549474 15.5397895,16.0638947 C15.3714737,15.1976842 15.0375789,14.3670526 14.3465263,13.6691579 C13.7348421,13.052 12.9986316,12.8727368 12.0804211,13.1217895 C11.1266316,13.3804211 10.5450526,13.9797895 10.1536842,14.69 C9.00694737,16.7741053 8.90842105,18.9211579 9.78694737,21.086 C10.0510526,21.7401053 10.4985263,22.3093684 11.2429474,22.6733684 C12.4909474,23.2877895 14.5093684,23.0743158 15.7751579,22.1889474 C15.6752632,21.9426316 15.574,21.6935789 15.4836842,21.4746316 Z M11.7301053,14.7762105 C11.9531579,14.4628421 12.2501053,14.2069474 12.7482105,14.2302105 C13.2353684,14.2562105 13.5241053,14.5107368 13.7197895,14.8418947 C14.1522105,15.5849474 14.2247368,16.3813684 14.2206316,17.2078947 C13.1313684,17.2078947 12.0790526,17.2078947 10.9706316,17.2078947 C11.0527368,16.3334737 11.206,15.5137895 11.7301053,14.7762105 Z" id="Shape" fill="#000000" fill-rule="nonzero"></path>
    <path d="M16.1938947,8.85505263 C16.1938947,7.30052632 16.1938947,5.76515789 16.1938947,4.21747368 C15.2537895,4.21747368 14.352,4.21747368 13.3982105,4.21747368 C13.3982105,4.56505263 13.4105263,4.87705263 13.3968421,5.19042105 C13.3503158,6.27968421 13.3106316,7.37031579 12.8563158,8.41305263 C12.7441053,8.67031579 12.6606316,8.94536842 12.2268421,8.88789474 C12.2268421,9.46810526 12.2268421,10.0209474 12.2268421,10.5710526 C12.5005263,10.5710526 12.7454737,10.5710526 13.0328421,10.5710526 C13.0328421,10.1947368 13.0328421,9.83621053 13.0328421,9.47768421 C14.0564211,9.47768421 15.0362105,9.47768421 16.0611579,9.47768421 C16.0611579,9.85673684 16.0611579,10.2152632 16.0611579,10.5655789 C16.3485263,10.5655789 16.5907368,10.5655789 16.8233684,10.5655789 C16.8233684,9.98536842 16.8233684,9.43252632 16.8233684,8.87968421 C16.6044211,8.87147368 16.4183158,8.86326316 16.1938947,8.85505263 Z M15.3112632,8.85505263 C14.6735789,8.85505263 14.0742105,8.85505263 13.4283158,8.85505263 C14.2452632,7.59063158 14.1344211,6.23178947 14.1932632,4.87568421 C14.5668421,4.87568421 14.9281053,4.87568421 15.3112632,4.87568421 C15.3112632,6.20031579 15.3112632,7.51263158 15.3112632,8.85505263 Z" id="Shape" fill="#000000" fill-rule="nonzero"></path>
    <path d="M33.3443158,13.3722105 C33.3443158,16.5387368 33.3443158,19.682 33.3484211,22.8266316 C33.8191579,22.8266316 34.2666316,22.8266316 34.7455789,22.8266316 C34.7455789,19.9912632 34.7455789,17.1764211 34.7455789,14.3232632 C36.1851579,14.3232632 37.5973684,14.3232632 39.0054737,14.3232632 C39.0054737,13.9852632 39.0054737,13.6855789 39.0054737,13.3722105 C37.1143158,13.3722105 35.2477895,13.3722105 33.3443158,13.3722105 Z" id="Path" fill="#000000" fill-rule="nonzero"></path>
</svg>