<svg viewBox="0 0 93 26" version="1.1" xmlns="http://www.w3.org/2000/svg">
    <polygon id="Rectangle" fill="#000000" transform="translate(87.316572, 14.838936) rotate(-42.097940) translate(-87.316572, -14.838936) " points="85.851286 13.3745785 88.7818577 13.3745785 88.7818577 16.3032931 85.851286 16.3032931"></polygon>
    <polygon id="Rectangle" fill="#000000" transform="translate(82.944671, 17.293500) rotate(-41.992323) translate(-82.944671, -17.293500) " points="80.9938334 15.3417335 84.8955095 15.3417335 84.8955095 19.2452668 80.9938334 19.2452668"></polygon>
    <polygon id="Rectangle" fill="#000000" transform="translate(91.272777, 13.455527) rotate(-42.028949) translate(-91.272777, -13.455527) " points="90.2977861 12.480536 92.2477686 12.480536 92.2477686 14.4305185 90.2977861 14.4305185"></polygon>
    <polygon id="Rectangle" fill="#000000" transform="translate(83.447698, 5.875295) rotate(-41.992323) translate(-83.447698, -5.875295) " points="81.9834092 4.41100599 84.9119877 4.41100599 84.9119877 7.33958444 81.9834092 7.33958444"></polygon>
    <polygon id="Rectangle" fill="#000000" transform="translate(89.420584, 9.126567) rotate(-42.097940) translate(-89.420584, -9.126567) " points="88.4465121 8.15156672 90.3946551 8.15156672 90.3946551 10.1015669 88.4465121 10.1015669"></polygon>
    <polygon id="Path" fill="#000000" points="9.71842857 7.87242857 8.29771429 15.236 8.19928571 15.236 6.26414286 7.87242857 5.02542857 7.87242857 3.21657143 15.236 3.11814286 15.236 1.56 7.87242857 0 7.87242857 2.25457143 17.7412857 3.75885714 17.7412857 5.59557143 10.7937143 5.694 10.7937143 7.58642857 17.7412857 9.09071429 17.7412857 11.3471429 7.87242857"></polygon>
    <polygon id="Rectangle" fill="#000000" transform="translate(80.885243, 12.268669) rotate(-41.992323) translate(-80.885243, -12.268669) " points="78.9325483 10.3169026 82.8379385 10.3169026 82.8379385 14.2204358 78.9325483 14.2204358"></polygon>
    <polygon id="Rectangle" fill="#000000" transform="translate(78.813011, 7.324158) rotate(-41.992323) translate(-78.813011, -7.324158) " points="76.8612441 5.37239179 80.7647773 5.37239179 80.7647773 9.27592501 76.8612441 9.27592501"></polygon>
    <polygon id="Rectangle" fill="#000000" transform="translate(85.451718, 10.251950) rotate(-42.069410) translate(-85.451718, -10.251950) " points="83.989284 8.78673117 86.9141513 8.78673117 86.9141513 11.7171697 83.989284 11.7171697"></polygon>
    <polygon id="Rectangle" fill="#000000" transform="translate(87.556617, 4.824786) rotate(-42.028949) translate(-87.556617, -4.824786) " points="86.5816259 3.84979493 88.5316085 3.84979493 88.5316085 5.79977747 86.5816259 5.79977747"></polygon>
    <path d="M63.8021429,10.8494286 L62.2217143,15.977 L62.1381429,15.977 L60.3571429,10.8512857 L58.8268571,10.8512857 L61.4974286,17.8137143 C61.1631429,18.8444286 60.58,19.5947143 59.6328571,19.5947143 L59.6328571,20.7331429 C61.2318571,20.7331429 62.0805714,19.7321429 62.777,17.81 L65.2934286,10.8494286 L63.8021429,10.8494286 L63.8021429,10.8494286 Z" id="Path" fill="#000000" fill-rule="nonzero"></path>
    <path d="M17.7208596,14.0158571 C17.7227143,11.7408571 16.6511429,10.6172857 14.911,10.6172857 C12.8235714,10.6172857 11.752,12.1457143 11.752,14.2628571 C11.752,16.4635714 12.714,17.9102857 15.0502857,17.9102857 C16.0512857,17.9102857 16.887,17.6317143 17.5128571,17.2658571 L17.5128571,16.2128571 C16.7477143,16.6678571 16.0512857,16.9352857 15.301,16.9352857 C13.8691429,16.9352857 13.1857143,16.1998571 13.1857143,14.5265714 L17.7208596,14.5265714 L17.7208596,14.0158571 L17.7208596,14.0158571 Z M13.2135714,13.5924286 C13.3658571,12.2032857 14.0214286,11.5477143 14.8701429,11.5477143 C15.6222857,11.5477143 16.3317143,12.129 16.4004286,13.5924286 L13.2135714,13.5924286 Z" id="Shape" fill="#000000" fill-rule="nonzero"></path>
    <rect fill="#000000" transform="translate(89.231318, 19.236215) rotate(-42.020857) translate(-89.231318, -19.236215) " x="87.7669636" y="17.7709312" width="2.92870956" height="2.9305667"></rect>
    <path d="M58.3867239,14.0158571 C58.3904286,11.7408571 57.317,10.6172857 55.5787143,10.6172857 C53.4894286,10.6172857 52.4197143,12.1457143 52.4197143,14.2628571 C52.4197143,16.4635714 53.3798571,17.9102857 55.7161429,17.9102857 C56.7171429,17.9102857 57.5491429,17.6317143 58.1768571,17.2658571 L58.1768571,16.2128571 C57.4135714,16.6678571 56.7171429,16.9352857 55.9668571,16.9352857 C54.535,16.9352857 53.8497143,16.1998571 53.8497143,14.5265714 L58.3867239,14.5265714 L58.3867239,14.0158571 L58.3867239,14.0158571 Z M53.8775714,13.5924286 C54.0335714,12.2032857 54.6891429,11.5477143 55.5378571,11.5477143 C56.2862857,11.5477143 56.9994286,12.129 57.0681429,13.5924286 L53.8775714,13.5924286 Z" id="Shape" fill="#000000" fill-rule="nonzero"></path>
    <path d="M85.5214286,19.6337143 L82.6855714,22.2485714 L77.8978571,16.9204286 L79.2294286,15.7485714 L75.8772857,11.9952857 L77.2162857,10.8215714 L73.814,7.072 L79.1235714,2.29171429 L80.8098571,4.13771429 L83.6568571,1.59714286 L85.3394286,3.341 L86.4611429,2.33628571 C86.2104286,2.19142857 85.9597143,2.05771429 85.7052857,1.937 C84.0877143,1.14585714 82.2714286,0.700142857 80.3585714,0.700142857 C73.6412857,0.700142857 68.1608571,6.17871429 68.1608571,12.8978571 C68.1608571,19.6151429 73.6412857,25.0937143 80.3585714,25.0937143 C82.5407143,25.0937143 84.5965714,24.5161429 86.3701429,23.504 C86.9551429,23.1734286 87.4881429,22.815 87.9747143,22.438 L85.5214286,19.6337143 Z" id="Path" fill="#000000" fill-rule="nonzero"></path>
    <path d="M22.3154286,10.6172857 C21.5632857,10.6172857 20.8538571,10.9088571 20.4341429,11.1317143 L20.4341429,7.16485714 L18.9874286,7.51214286 L18.9874286,17.2268571 C19.8231429,17.6707143 20.9634286,17.9084286 21.7025714,17.9084286 C23.7212857,17.9084286 24.973,16.64 24.973,14.0362857 C24.973,11.8132857 24.0407143,10.6172857 22.3154286,10.6172857 Z M21.7025714,16.9334286 C21.3534286,16.9334286 20.8687143,16.9074286 20.423,16.7124286 L20.423,12.1605714 C20.9801429,11.8541429 21.385,11.7018571 21.9384286,11.7018571 C22.8707143,11.7018571 23.5132857,12.2738571 23.5132857,14.0381429 C23.5132857,16.2927143 22.7332857,16.9334286 21.7025714,16.9334286 Z" id="Shape" fill="#000000" fill-rule="nonzero"></path>
    <path d="M48.8298571,10.6135714 C47.229,10.6135714 45.9067143,11.2672857 45.2808571,11.6424286 L45.2808571,17.7375714 L46.7257143,17.7375714 L46.7257143,12.2274286 C47.1565714,11.9767143 47.8678571,11.726 48.4231429,11.726 C49.1381429,11.726 49.6785714,11.921 49.6785714,13.0204286 L49.6785714,17.7394286 L51.1252857,17.7394286 L51.1252857,12.7028571 C51.1252857,11.271 50.4975714,10.6172857 48.8298571,10.6135714 Z" id="Path" fill="#000000" fill-rule="nonzero"></path>
    <polygon id="Path" fill="#000000" points="34.3552857 7.87242857 31.3801429 15.652 31.3095714 15.652 28.1914286 7.87242857 26.5088571 7.87242857 26.5088571 17.7412857 27.7605714 17.7412857 27.7605714 10.7528571 27.885 10.7528571 30.7245714 17.7412857 31.6141429 17.7412857 34.4537143 10.5838571 34.5781429 10.5838571 34.5781429 17.7412857 36.0805714 17.7412857 36.0805714 7.87242857"></polygon>
    <path d="M40.7847143,10.6172857 C38.948,10.6172857 37.6108571,11.8281429 37.6108571,14.2628571 C37.6108571,16.6418571 38.8792857,17.9102857 40.7847143,17.9102857 C42.692,17.9102857 43.9585714,16.6418571 43.9585714,14.2628571 C43.9585714,11.8262857 42.6214286,10.6172857 40.7847143,10.6172857 Z M40.7847143,16.9334286 C39.7967143,16.9334286 39.0724286,16.172 39.0724286,14.2628571 C39.0724286,12.3834286 39.8672857,11.5904286 40.7847143,11.5904286 C41.7318571,11.5904286 42.497,12.3834286 42.497,14.2628571 C42.497,16.1701429 41.7727143,16.9334286 40.7847143,16.9334286 Z" id="Shape" fill="#000000" fill-rule="nonzero"></path>
</svg>