<svg viewBox="0 0 72 26" version="1.1" xmlns="http://www.w3.org/2000/svg">
    <path d="M18.1176667,11.4298889 C17.3983333,11.3316667 16.6833333,11.1597778 15.9625556,11.1193333 C14.5513333,11.0398889 13.1906667,11.2883333 12.0033333,12.0986667 C10.1111111,13.39 9.33111111,15.2461111 9.42211111,17.4864444 C9.464,18.5524444 9.88144444,19.4581111 10.8983333,19.9261111 C11.9267778,20.397 12.9422222,20.2424444 13.8291111,19.5548889 C14.2566667,19.2241111 14.5932222,18.7806667 15.0193333,18.3357778 C14.9904444,18.7806667 14.9745556,19.2038889 14.9355556,19.6242222 C14.9095556,19.8871111 14.9991111,19.9882222 15.2692222,19.9781111 C15.7935556,19.9607778 16.3222222,19.9607778 16.8465556,19.9781111 C17.1311111,19.9882222 17.1961111,19.8842222 17.2148889,19.6068889 C17.2726667,18.7026667 17.316,17.7926667 17.4633333,16.9 C17.7392222,15.2244444 18.0801111,13.5561111 18.3993333,11.8834444 C18.447,11.6321111 18.408,11.4717778 18.1176667,11.4298889 Z M14.4935556,17.186 C14.3418889,17.4214444 14.1411111,17.6381111 13.9258889,17.8186667 C13.572,18.1234444 13.1545556,18.2534444 12.6952222,18.07 C12.2387778,17.8865556 12.0741111,17.472 12.0466667,17.0343333 C11.9527778,15.6216667 12.4424444,14.43 13.5272222,13.5171111 C14.1035556,13.0317778 14.7896667,12.8743333 15.6101111,13.1025556 C15.3183333,14.508 15.2981111,15.9524444 14.4935556,17.186 Z"></path>
    <path d="M43.9168889,2.53066667 C42.7512222,0.528666667 40.0775556,1.04144444 40.0775556,1.04144444 C39.8652222,1.08911111 39.6485556,1.14111111 39.4333333,1.18155556 C38.1333333,1.42422222 36.9084444,1.87055556 35.7355556,2.46566667 C33.1861111,3.757 30.9038889,5.42533333 28.8527778,7.39844444 C27.4892222,8.71 26.1646667,10.0677778 24.8877778,11.4674444 C22.646,13.9273333 20.7263333,16.6284444 19.1923333,19.591 C18.4022222,21.1148889 17.6973333,22.6835556 17.3723333,24.3894444 C17.3116667,24.7028889 17.4127778,25.064 17.5138889,25.3817778 C17.5572222,25.506 17.7883333,25.6027778 17.9501111,25.6533333 C17.9934444,25.6648889 18.1248889,25.4568889 18.1826667,25.3341111 C18.5567778,24.5223333 18.8514444,23.6643333 19.3093333,22.906 C20.2236667,21.385 21.1798889,19.8842222 22.204,18.4368889 C23.8463333,16.1098889 25.7284444,13.9778889 27.742,11.9614444 C29.6443333,10.0547778 31.5914444,8.19722222 33.9921111,6.91166667 C35.0942222,6.32088889 36.2122222,5.74744444 37.3692222,5.27366667 C39.3582222,4.45322222 41.431,3.89711111 43.5673333,3.57933333 C43.7926667,3.54755556 44.1003333,3.367 44.174,3.17922222 C44.2361111,3.01744444 43.9168889,2.53066667 43.9168889,2.53066667 Z"></path>
    <path d="M9.737,10.6108889 C9.57377778,9.46833333 8.61322222,8.49911111 7.22944444,8.15822222 C5.64488889,7.76677778 4.056,7.92855556 2.46855556,8.16833333 C2.25911111,8.20011111 2.19988889,8.34022222 2.16233333,8.54244444 C1.55566667,11.7505556 0.937444444,14.9557778 0.326444444,18.1624444 C0.215222222,18.7416667 0.115555556,19.3266667 0,19.9651111 C0.811777778,19.9651111 1.57155556,19.9708889 2.32988889,19.9521111 C2.39055556,19.9492222 2.48011111,19.7888889 2.49744444,19.6892222 C2.743,18.4527778 2.98566667,17.2105556 3.211,15.9712222 C3.25433333,15.7314444 3.33088889,15.6635556 3.58511111,15.6881111 C4.66266667,15.7848889 5.72288889,15.7112222 6.76288889,15.3645556 C8.74177778,14.7131111 10.0677778,12.8902222 9.737,10.6108889 Z M7.06188889,12.3355556 C6.67044444,13.1718889 5.95833333,13.5691111 5.08155556,13.663 C4.62944444,13.7121111 4.16722222,13.6731111 3.64866667,13.6731111 C3.88411111,12.4222222 4.09066667,11.3128889 4.30877778,10.2064444 C4.32611111,10.1241111 4.42866667,10.01 4.50377778,9.99844444 C5.12055556,9.91611111 5.74022222,9.86988889 6.34111111,10.0851111 C7.18755556,10.3826667 7.50822222,11.388 7.06188889,12.3355556 Z"></path>
    <path d="M22.2718889,8.09033333 C22.0407778,6.12588889 21.1943333,4.45177778 19.8481111,3.02466667 C19.6921111,2.85711111 19.4653333,2.73433333 19.2486667,2.65488889 C19.0247778,2.574 18.8774444,2.70111111 18.8991111,2.95677778 C18.9178889,3.18066667 18.9381111,3.40744444 18.9771111,3.62988889 C19.2501111,5.174 19.5144444,6.721 19.8076667,8.26366667 C20.0373333,9.46833333 20.2886667,10.6701111 20.5616667,11.8661111 C20.6512222,12.2532222 20.8072222,12.6345556 20.9921111,12.9884444 C21.1322222,13.2585556 21.3344444,13.2368889 21.5222222,12.9898889 C21.6016667,12.8873333 21.6883333,12.7818889 21.7302222,12.6634444 C22.1346667,11.5555556 22.3441111,10.4115556 22.3686667,9.23 C22.3368889,8.85011111 22.3166667,8.46877778 22.2718889,8.09033333 Z"></path>
    <path d="M66.6798889,13.0418889 C66.7304444,12.4785556 66.7723333,11.9137778 66.82,11.3114444 C66.1237778,11.3114444 65.4752222,11.3027778 64.8367778,11.323 C64.7616667,11.3258889 64.6345556,11.4833333 64.6287778,11.5743333 C64.4482222,13.8117778 63.9932222,16.0058889 63.5541111,18.2028889 C63.4428889,18.772 63.3432222,19.3425556 63.232,19.9694444 C64.0654444,19.9694444 64.8468889,19.9752222 65.6312222,19.9578889 C65.6904444,19.9564444 65.7771111,19.7917778 65.7973333,19.695 C66.0428889,18.4961111 66.2321111,17.2798889 66.5224444,16.0896667 C66.9398889,14.3794444 67.6447778,13.7872222 69.3145556,13.5676667 C69.3882222,13.5575556 69.498,13.4795556 69.5124444,13.4188889 C69.6698889,12.6764444 69.8114444,11.934 69.9688889,11.1308889 C68.3583333,10.9633333 67.4598889,11.8906667 66.6798889,13.0418889 Z"></path>
    <path d="M61.5954444,16.016 C62.6527778,15.522 63.1641111,14.6798889 63.0962222,13.5647778 C63.0254444,12.4222222 62.4245556,11.6104444 61.2964444,11.2984444 C59.4533333,10.79 57.8398889,11.2825556 56.5427778,12.662 C55.3323333,13.9461111 54.8874444,15.5176667 55.0983333,17.2524444 C55.2615556,18.6116667 55.978,19.6011111 57.3401111,19.9737778 C58.8553333,20.3868889 60.3416667,20.1846667 61.7788889,19.5938889 C61.8771111,19.5548889 61.9897778,19.3873333 61.9868889,19.2862222 C61.9594444,18.772 61.8973333,18.2534444 61.841,17.706 C61.6647778,17.7738889 61.5304444,17.8244444 61.3975556,17.8692222 C60.6016667,18.161 59.7841111,18.2866667 58.9376667,18.1855556 C58.032,18.0757778 57.434,17.4373333 57.5177778,16.6038889 C57.7691111,16.6038889 58.006,16.6096667 58.2428889,16.6038889 C59.3912222,16.5778889 60.5337778,16.51 61.5954444,16.016 Z M60.1192222,12.9768889 C60.4442222,13.0664444 60.6868889,13.2368889 60.7345556,13.5893333 C60.7851111,13.9677778 60.6305556,14.2682222 60.294,14.4112222 C59.9834444,14.5498889 59.6454444,14.651 59.306,14.6957778 C58.8033333,14.7636667 58.2934444,14.7694444 57.7546667,14.8041111 C57.8673333,13.6182222 59.111,12.701 60.1192222,12.9768889 Z"></path>
    <path d="M45.5837778,12.922 C45.4797778,11.9831111 44.8471111,11.3085556 43.9298889,11.1525556 C42.8191111,10.9705556 41.8571111,11.2941111 41.0207778,12.0235556 C40.7925556,12.2214444 40.5773333,12.4352222 40.3288889,12.6677778 C40.3635556,12.2127778 40.3996667,11.7736667 40.4343333,11.3172222 C39.6918889,11.3172222 39.0014444,11.3172222 38.2835556,11.3172222 C37.752,14.196 37.2291111,17.0502222 36.6932222,19.9636667 C37.5208889,19.9636667 38.2676667,19.9737778 39.0187778,19.9506667 C39.1025556,19.9477778 39.2325556,19.7758889 39.2527778,19.6661111 C39.4391111,18.7344444 39.6081111,17.7941111 39.7713333,16.861 C39.9244444,15.9986667 40.0761111,15.1421111 40.5195556,14.3722222 C40.8185556,13.8464444 41.1825556,13.3755556 41.795,13.1805556 C42.4233333,12.9797778 42.8971111,13.2831111 42.9707778,13.9316667 C42.9938889,14.1194444 43.0068889,14.3158889 42.9765556,14.5022222 C42.8017778,15.5956667 42.6125556,16.6876667 42.4204444,17.7767778 C42.2947778,18.4888889 42.1561111,19.1995556 42.0232222,19.903 C42.0911111,19.9347778 42.1243333,19.9607778 42.1561111,19.9607778 C42.8841111,19.9665556 43.6135556,19.981 44.3415556,19.9607778 C44.4253333,19.9578889 44.551,19.7917778 44.5755556,19.6863333 C44.824,18.46 45.0551111,17.2351111 45.2876667,16.0044444 C45.4841111,14.989 45.6993333,13.9721111 45.5837778,12.922 Z"></path>
    <path d="M50.7043333,16.5692222 C51.5767778,16.5186667 52.4333333,16.3698889 53.2263333,15.977 C54.2388889,15.4671111 54.7155556,14.6336667 54.6404444,13.5387778 C54.5595556,12.428 53.9586667,11.6263333 52.884,11.3071111 C51.2763333,10.8275556 49.7928889,11.1641111 48.529,12.2402222 C46.995,13.546 46.4186667,15.275 46.6353333,17.2452222 C46.7898889,18.6376667 47.5525556,19.6357778 48.9435556,19.994 C50.4356667,20.3796667 51.9032222,20.1774444 53.3187778,19.5982222 C53.4141111,19.5606667 53.5296667,19.3931111 53.5282222,19.2934444 C53.4993333,18.7763333 53.4386667,18.2592222 53.3895556,17.7464444 C53.3274444,17.7464444 53.3014444,17.7406667 53.2826667,17.7478889 C53.1916667,17.7782222 53.1021111,17.8143333 53.0111111,17.8461111 C52.1993333,18.1581111 51.3557778,18.2967778 50.4862222,18.1884444 C49.5863333,18.0786667 48.9912222,17.4546667 49.0504444,16.575 C49.6094444,16.575 50.1597778,16.6024444 50.7043333,16.5692222 Z M51.636,12.9725556 C51.9797778,13.0563333 52.2224444,13.2397778 52.2787778,13.6023333 C52.3351111,13.9562222 52.1574444,14.2595556 51.805,14.443 C51.2936667,14.7131111 49.959,14.8734444 49.3017778,14.7362222 C49.4375556,13.6138889 50.6248889,12.727 51.636,12.9725556 Z"></path>
    <path d="M36.2656667,14.3722222 C36.1977778,13.3336667 35.7861111,12.4568889 34.9382222,11.8271111 C34.047,11.1655556 33.033,11.0297778 31.9467778,11.1496667 C28.3183333,11.5526667 26.8363333,15.3891111 27.6076667,17.8461111 C28.0785556,19.3425556 29.3568889,20.1716667 31.6015556,20.1687853 C33.1471111,20.124 34.6753333,19.2486667 35.6344444,17.4532222 C36.1457778,16.4955556 36.3292222,15.4541111 36.2656667,14.3722222 Z M32.6805556,17.6106667 C32.4003333,17.9674444 32.032,18.2115556 31.5668889,18.2534444 C30.7334444,18.3314444 30.0978889,17.7522222 30.03,16.8682222 C30.0198889,16.7382222 30.0285556,16.6038889 30.0285556,16.4767778 C30.056,15.5032222 30.2928889,14.5917778 30.8807778,13.7987778 C31.1436667,13.4448889 31.4715556,13.169 31.9092222,13.0707778 C32.8091111,12.8627778 33.5457778,13.3871111 33.6266667,14.3606667 C33.7277778,15.548 33.4345556,16.6558889 32.6805556,17.6106667 Z"></path>
</svg>