<svg width="215" height="37" viewBox="0 0 215 37" fill="none" xmlns="http://www.w3.org/2000/svg">
<g clip-path="url(#clip0)">
<path d="M11.2904 8.69847C11.1898 10.088 10.6754 11.1818 9.74713 11.98C8.82474 12.7783 7.60672 13.1774 6.09305 13.1774C4.43748 13.1774 3.13371 12.6216 2.18176 11.51C1.23572 10.3925 0.762695 8.86107 0.762695 6.91577V6.12642C0.762695 4.88474 0.981467 3.79088 1.41901 2.84483C1.85656 1.89879 2.48035 1.17448 3.2904 0.671895C4.10636 0.163398 5.0524 -0.0908508 6.12853 -0.0908508C7.61854 -0.0908508 8.81883 0.30826 9.7294 1.10648C10.64 1.90471 11.1662 3.02517 11.3081 4.46789H8.64736C8.58232 3.63419 8.34877 3.03109 7.9467 2.65858C7.55054 2.28017 6.94449 2.09096 6.12853 2.09096C5.24161 2.09096 4.57643 2.41025 4.13297 3.04882C3.69542 3.68149 3.47074 4.66596 3.45891 6.00225V6.97785C3.45891 8.37327 3.66882 9.39322 4.08862 10.0377C4.51434 10.6822 5.18248 11.0044 6.09305 11.0044C6.91492 11.0044 7.52689 10.8182 7.92896 10.4457C8.33694 10.0673 8.5705 9.48486 8.62962 8.69847H11.2904Z" fill="black"/>
<path d="M20.807 7.40357H15.6983V10.8625H21.6939V13H13.0376V0.086532H21.6761V2.24173H15.6983V5.31932H20.807V7.40357Z" fill="black"/>
<path d="M26.7315 0.086532L30.0486 9.45234L33.3479 0.086532H36.8424V13H34.1727V9.47008L34.4388 3.37698L30.9532 13H29.1262L25.6495 3.38585L25.9156 9.47008V13H23.2548V0.086532H26.7315Z" fill="black"/>
<path d="M46.6162 10.3393H41.951L41.0641 13H38.2348L43.0419 0.086532H45.5075L50.3412 13H47.5119L46.6162 10.3393ZM42.6694 8.18406H45.8978L44.2747 3.35038L42.6694 8.18406Z" fill="black"/>
<path d="M62.0573 13H59.3966V7.46566H54.2081V13H51.5474V0.086532H54.2081V5.31932H59.3966V0.086532H62.0573V13Z" fill="black"/>
<path d="M73.8444 2.24173H69.8888V13H67.228V2.24173H63.3256V0.086532H73.8444V2.24173Z" fill="black"/>
<path d="M83.1127 0.086532H85.7823V13H83.1127V4.42354L77.942 13H75.2812V0.086532H77.942V8.68073L83.1127 0.086532Z" fill="black"/>
<path d="M98.1459 0.086532V13H95.4762V8.10423C94.6662 8.2757 93.8207 8.36144 92.9397 8.36144C91.3018 8.36144 90.0572 8.00372 89.2058 7.28827C88.3602 6.57283 87.9257 5.5381 87.902 4.18407V0.086532H90.5716V4.13086C90.5775 4.86995 90.7549 5.4021 91.1038 5.72731C91.4585 6.05251 92.0705 6.21511 92.9397 6.21511C93.8207 6.21511 94.6662 6.12937 95.4762 5.9579V0.086532H98.1459Z" fill="black"/>
<path d="M108.239 7.40357H103.13V10.8625H109.126V13H100.47V0.086532H109.108V2.24173H103.13V5.31932H108.239V7.40357Z" fill="black"/>
<path d="M120.824 8.69847C120.724 10.088 120.209 11.1818 119.281 11.98C118.359 12.7783 117.141 13.1774 115.627 13.1774C113.971 13.1774 112.668 12.6216 111.716 11.51C110.77 10.3925 110.297 8.86107 110.297 6.91577V6.12642C110.297 4.88474 110.515 3.79088 110.953 2.84483C111.39 1.89879 112.014 1.17448 112.824 0.671895C113.64 0.163398 114.586 -0.0908508 115.662 -0.0908508C117.152 -0.0908508 118.353 0.30826 119.263 1.10648C120.174 1.90471 120.7 3.02517 120.842 4.46789H118.181C118.116 3.63419 117.883 3.03109 117.481 2.65858C117.084 2.28017 116.478 2.09096 115.662 2.09096C114.775 2.09096 114.11 2.41025 113.667 3.04882C113.229 3.68149 113.005 4.66596 112.993 6.00225V6.97785C112.993 8.37327 113.203 9.39322 113.623 10.0377C114.048 10.6822 114.716 11.0044 115.627 11.0044C116.449 11.0044 117.061 10.8182 117.463 10.4457C117.871 10.0673 118.104 9.48486 118.164 8.69847H120.824Z" fill="black"/>
<path d="M126.784 7.72286H125.25V13H122.589V0.086532H125.25V5.25724H126.465L129.622 0.086532H132.869L128.886 6.19737L133.285 13H130.11L126.784 7.72286Z" fill="black"/>
<path d="M144.638 6.83595C144.638 8.10719 144.413 9.22175 143.964 10.1796C143.514 11.1375 142.87 11.8766 142.03 12.3969C141.197 12.9172 140.239 13.1774 139.157 13.1774C138.087 13.1774 137.132 12.9202 136.292 12.4058C135.452 11.8914 134.802 11.1582 134.341 10.2062C133.88 9.24835 133.646 8.14858 133.64 6.9069V6.26832C133.64 4.99708 133.868 3.87957 134.323 2.91579C134.784 1.94609 135.432 1.20404 136.265 0.689634C137.105 0.169311 138.063 -0.0908508 139.139 -0.0908508C140.215 -0.0908508 141.17 0.169311 142.004 0.689634C142.843 1.20404 143.491 1.94609 143.946 2.91579C144.407 3.87957 144.638 4.99412 144.638 6.25945V6.83595ZM141.942 6.25058C141.942 4.89656 141.699 3.86774 141.214 3.16412C140.73 2.46051 140.038 2.1087 139.139 2.1087C138.246 2.1087 137.557 2.45755 137.073 3.15525C136.588 3.84705 136.342 4.86404 136.336 6.20624V6.83595C136.336 8.15449 136.579 9.1774 137.064 9.90467C137.548 10.6319 138.246 10.9956 139.157 10.9956C140.05 10.9956 140.735 10.6467 141.214 9.94902C141.693 9.2454 141.936 8.22249 141.942 6.88029V6.25058Z" fill="black"/>
<path d="M154.341 7.40357H149.232V10.8625H155.228V13H146.571V0.086532H155.21V2.24173H149.232V5.31932H154.341V7.40357Z" fill="black"/>
<path d="M167.281 13V8.3437H165.117L162.784 13H159.911L162.669 7.49226C161.338 6.75908 160.673 5.62088 160.673 4.07765C160.673 2.81231 161.087 1.83375 161.915 1.14196C162.743 0.450167 163.899 0.0983575 165.383 0.086532H169.95V13H167.281ZM163.334 4.27277C163.334 4.99412 163.508 5.5174 163.857 5.8426C164.212 6.16781 164.741 6.33041 165.445 6.33041H167.281V2.24173H165.445C164.038 2.24173 163.334 2.91874 163.334 4.27277Z" fill="black"/>
<path d="M184.123 16.1752H181.667V13H173.879V16.1663H171.361L171.219 10.8625H172.194C172.721 10.425 173.126 9.78346 173.409 8.93793C173.699 8.0865 173.894 7.03403 173.995 5.78052L174.367 0.086532H182.828V10.8625H184.336L184.123 16.1752ZM175.245 10.8625H180.168V2.24173H176.895L176.673 5.63861C176.496 7.91503 176.02 9.65633 175.245 10.8625Z" fill="black"/>
<path d="M188.398 8.45013V13H185.737V0.086532H190.775C191.745 0.086532 192.596 0.263915 193.329 0.61868C194.069 0.973446 194.636 1.47899 195.032 2.1353C195.429 2.78571 195.627 3.52776 195.627 4.36146C195.627 5.62679 195.192 6.62604 194.323 7.35923C193.46 8.0865 192.262 8.45013 190.731 8.45013H188.398ZM188.398 6.29493H190.775C191.479 6.29493 192.014 6.12937 192.38 5.79826C192.753 5.46714 192.939 4.99412 192.939 4.3792C192.939 3.74653 192.753 3.23508 192.38 2.84483C192.008 2.45459 191.494 2.25356 190.837 2.24173H188.398V6.29493Z" fill="black"/>
<path d="M208.07 6.83595C208.07 8.10719 207.845 9.22175 207.396 10.1796C206.947 11.1375 206.302 11.8766 205.462 12.3969C204.629 12.9172 203.671 13.1774 202.589 13.1774C201.519 13.1774 200.564 12.9202 199.724 12.4058C198.885 11.8914 198.234 11.1582 197.773 10.2062C197.312 9.24835 197.078 8.14858 197.072 6.9069V6.26832C197.072 4.99708 197.3 3.87957 197.755 2.91579C198.216 1.94609 198.864 1.20404 199.698 0.689634C200.537 0.169311 201.495 -0.0908508 202.571 -0.0908508C203.647 -0.0908508 204.602 0.169311 205.436 0.689634C206.275 1.20404 206.923 1.94609 207.378 2.91579C207.839 3.87957 208.07 4.99412 208.07 6.25945V6.83595ZM205.374 6.25058C205.374 4.89656 205.131 3.86774 204.646 3.16412C204.162 2.46051 203.47 2.1087 202.571 2.1087C201.678 2.1087 200.989 2.45755 200.505 3.15525C200.02 3.84705 199.774 4.86404 199.768 6.20624V6.83595C199.768 8.15449 200.011 9.1774 200.496 9.90467C200.981 10.6319 201.678 10.9956 202.589 10.9956C203.482 10.9956 204.168 10.6467 204.646 9.94902C205.125 9.2454 205.368 8.22249 205.374 6.88029V6.25058Z" fill="black"/>
<path d="M9.28447 29.9456C9.28447 30.9493 9.10709 31.8292 8.75232 32.5854C8.39756 33.3416 7.88875 33.9251 7.2259 34.3359C6.56771 34.7467 5.8115 34.952 4.95727 34.952C4.11236 34.952 3.35849 34.749 2.69563 34.3429C2.03278 33.9368 1.51931 33.3579 1.15521 32.6064C0.791104 31.8502 0.606719 30.9819 0.602051 30.0017V29.4975C0.602051 28.4939 0.781768 27.6117 1.1412 26.8508C1.5053 26.0852 2.01645 25.4994 2.67463 25.0933C3.33748 24.6825 4.09369 24.4771 4.94326 24.4771C5.79283 24.4771 6.54671 24.6825 7.20489 25.0933C7.86774 25.4994 8.37889 26.0852 8.73832 26.8508C9.10242 27.6117 9.28447 28.4916 9.28447 29.4905V29.9456ZM7.15588 29.4835C7.15588 28.4146 6.96449 27.6023 6.58172 27.0468C6.19895 26.4913 5.65279 26.2136 4.94326 26.2136C4.2384 26.2136 3.69458 26.489 3.31181 27.0398C2.92903 27.586 2.73531 28.3889 2.73064 29.4485V29.9456C2.73064 30.9866 2.92203 31.7942 3.3048 32.3683C3.68758 32.9425 4.2384 33.2296 4.95727 33.2296C5.66213 33.2296 6.20361 32.9542 6.58172 32.4033C6.95982 31.8478 7.15121 31.0403 7.15588 29.9807V29.4835Z" fill="#5864FF"/>
<path d="M17.8829 26.3186H14.76V34.812H12.6594V26.3186H9.57855V24.6172H17.8829V26.3186Z" fill="#5864FF"/>
<path d="M30.5424 34.812H28.4348V26.3186H24.3527V34.812H22.2521V24.6172H30.5424V34.812Z" fill="#5864FF"/>
<path d="M38.1465 32.7114H34.4635L33.7633 34.812H31.5297L35.3247 24.6172H37.2713L41.0873 34.812H38.8537L38.1465 32.7114ZM35.0307 31.0099H37.5794L36.298 27.1939L35.0307 31.0099Z" fill="#5864FF"/>
<path d="M42.0396 34.812V24.6172H45.6106C46.8476 24.6172 47.7859 24.8552 48.4254 25.3314C49.0649 25.8028 49.3847 26.496 49.3847 27.4109C49.3847 27.9104 49.2563 28.3515 48.9995 28.7343C48.7428 29.1124 48.3857 29.3902 47.9282 29.5675C48.4511 29.6982 48.8618 29.962 49.1606 30.3588C49.464 30.7555 49.6157 31.241 49.6157 31.8152C49.6157 32.7954 49.303 33.5376 48.6775 34.0418C48.052 34.5459 47.1604 34.8027 46.0027 34.812H42.0396ZM44.1402 30.3728V33.1245H45.9397C46.4345 33.1245 46.8196 33.0078 47.095 32.7744C47.3751 32.5364 47.5151 32.2096 47.5151 31.7942C47.5151 30.8606 47.032 30.3868 46.0657 30.3728H44.1402ZM44.1402 28.8883H45.6946C46.7543 28.8697 47.2841 28.4472 47.2841 27.621C47.2841 27.1589 47.1487 26.8274 46.878 26.6267C46.6119 26.4213 46.1894 26.3186 45.6106 26.3186H44.1402V28.8883Z" fill="#5864FF"/>
<path d="M59.4885 24.6172V34.812H57.3809V26.3186H54.6641L54.4961 29.9176C54.4261 31.1313 54.272 32.0882 54.034 32.7884C53.7959 33.484 53.4481 33.9951 52.9907 34.3219C52.5332 34.644 51.9077 34.8073 51.1141 34.812H50.568V33.1245L50.9181 33.0895C51.4456 33.0195 51.8213 32.7161 52.0454 32.1793C52.2741 31.6378 52.4188 30.6762 52.4795 29.2945L52.6546 24.6172H59.4885Z" fill="#5864FF"/>
<path d="M65.146 29.4345L67.0016 24.6172H69.2702L65.7062 33.0265L65.4191 33.5797C64.8916 34.4992 64.0841 34.959 62.9965 34.959L62.2612 34.931L62.2402 33.2436C62.3523 33.2622 62.5343 33.2716 62.7864 33.2716C63.0805 33.2716 63.3162 33.2202 63.4936 33.1175C63.6756 33.0148 63.8274 32.8258 63.9487 32.5504L64.2078 31.8852L60.6298 24.6172H62.8914L65.146 29.4345Z" fill="#5864FF"/>
<path d="M70.2925 24.6172H72.3931V33.1245H76.4752V24.6172H78.5828V33.1245H79.9762L79.8361 37.2697H77.8756V34.812H70.2925V24.6172Z" fill="#5864FF"/>
<path d="M84.5905 30.6458H83.3791V34.812H81.2785V24.6172H83.3791V28.6993H84.3384L86.8311 24.6172H89.3938L86.2499 29.4415L89.7229 34.812H87.2162L84.5905 30.6458Z" fill="#5864FF"/>
<path d="M98.6854 29.9456C98.6854 30.9493 98.508 31.8292 98.1533 32.5854C97.7985 33.3416 97.2897 33.9251 96.6268 34.3359C95.9686 34.7467 95.2124 34.952 94.3582 34.952C93.5133 34.952 92.7594 34.749 92.0966 34.3429C91.4337 33.9368 90.9202 33.3579 90.5561 32.6064C90.192 31.8502 90.0077 30.9819 90.003 30.0017V29.4975C90.003 28.4939 90.1827 27.6117 90.5421 26.8508C90.9062 26.0852 91.4174 25.4994 92.0756 25.0933C92.7384 24.6825 93.4946 24.4771 94.3442 24.4771C95.1938 24.4771 95.9476 24.6825 96.6058 25.0933C97.2687 25.4994 97.7798 26.0852 98.1393 26.8508C98.5034 27.6117 98.6854 28.4916 98.6854 29.4905V29.9456ZM96.5568 29.4835C96.5568 28.4146 96.3654 27.6023 95.9827 27.0468C95.5999 26.4913 95.0537 26.2136 94.3442 26.2136C93.6393 26.2136 93.0955 26.489 92.7127 27.0398C92.33 27.586 92.1362 28.3889 92.1316 29.4485V29.9456C92.1316 30.9866 92.323 31.7942 92.7057 32.3683C93.0885 32.9425 93.6393 33.2296 94.3582 33.2296C95.0631 33.2296 95.6045 32.9542 95.9827 32.4033C96.3608 31.8478 96.5521 31.0403 96.5568 29.9807V29.4835Z" fill="#5864FF"/>
<path d="M106.899 26.3186H102.326V34.812H100.226V24.6172H106.899V26.3186Z" fill="#5864FF"/>
<path d="M116.106 29.9456C116.106 30.9493 115.929 31.8292 115.574 32.5854C115.219 33.3416 114.711 33.9251 114.048 34.3359C113.39 34.7467 112.633 34.952 111.779 34.952C110.934 34.952 110.18 34.749 109.517 34.3429C108.855 33.9368 108.341 33.3579 107.977 32.6064C107.613 31.8502 107.429 30.9819 107.424 30.0017V29.4975C107.424 28.4939 107.604 27.6117 107.963 26.8508C108.327 26.0852 108.838 25.4994 109.496 25.0933C110.159 24.6825 110.915 24.4771 111.765 24.4771C112.615 24.4771 113.369 24.6825 114.027 25.0933C114.69 25.4994 115.201 26.0852 115.56 26.8508C115.924 27.6117 116.106 28.4916 116.106 29.4905V29.9456ZM113.978 29.4835C113.978 28.4146 113.786 27.6023 113.404 27.0468C113.021 26.4913 112.475 26.2136 111.765 26.2136C111.06 26.2136 110.516 26.489 110.134 27.0398C109.751 27.586 109.557 28.3889 109.552 29.4485V29.9456C109.552 30.9866 109.744 31.7942 110.127 32.3683C110.509 32.9425 111.06 33.2296 111.779 33.2296C112.484 33.2296 113.025 32.9542 113.404 32.4033C113.782 31.8478 113.973 31.0403 113.978 29.9807V29.4835Z" fill="#5864FF"/>
<path d="M126.959 32.7114H123.276L122.576 34.812H120.342L124.138 24.6172H126.084L129.9 34.812H127.666L126.959 32.7114ZM123.843 31.0099H126.392L125.111 27.1939L123.843 31.0099Z" fill="#5864FF"/>
<path d="M139.269 24.6172V34.812H137.161V26.3186H134.444L134.276 29.9176C134.206 31.1313 134.052 32.0882 133.814 32.7884C133.576 33.484 133.228 33.9951 132.771 34.3219C132.313 34.644 131.688 34.8073 130.894 34.812H130.348V33.1245L130.698 33.0895C131.226 33.0195 131.602 32.7161 131.826 32.1793C132.054 31.6378 132.199 30.6762 132.26 29.2945L132.435 24.6172H139.269Z" fill="#5864FF"/>
<path d="M147.237 30.3938H143.204V33.1245H147.937V34.812H141.103V24.6172H147.923V26.3186H143.204V28.7483H147.237V30.3938Z" fill="#5864FF"/>
<path d="M152.495 30.6458H151.284V34.812H149.183V24.6172H151.284V28.6993H152.243L154.736 24.6172H157.299L154.155 29.4415L157.628 34.812H155.121L152.495 30.6458Z" fill="#5864FF"/>
<path d="M166.219 31.4161C166.14 32.513 165.734 33.3766 165.001 34.0068C164.273 34.637 163.311 34.952 162.116 34.952C160.809 34.952 159.78 34.5133 159.028 33.6357C158.281 32.7534 157.908 31.5444 157.908 30.0087V29.3855C157.908 28.4052 158.081 27.5416 158.426 26.7948C158.772 26.0479 159.264 25.4761 159.903 25.0793C160.548 24.6778 161.295 24.4771 162.144 24.4771C163.32 24.4771 164.268 24.7922 164.987 25.4224C165.706 26.0526 166.121 26.9371 166.233 28.0761H164.133C164.081 27.4179 163.897 26.9418 163.58 26.6477C163.267 26.349 162.788 26.1996 162.144 26.1996C161.444 26.1996 160.919 26.4517 160.569 26.9558C160.223 27.4553 160.046 28.2325 160.037 29.2875V30.0577C160.037 31.1593 160.202 31.9645 160.534 32.4733C160.87 32.9822 161.397 33.2366 162.116 33.2366C162.765 33.2366 163.248 33.0895 163.566 32.7954C163.888 32.4967 164.072 32.0369 164.119 31.4161H166.219Z" fill="#5864FF"/>
<path d="M173.354 32.7114H169.671L168.971 34.812H166.737L170.532 24.6172H172.479L176.295 34.812H174.061L173.354 32.7114ZM170.238 31.0099H172.787L171.506 27.1939L170.238 31.0099Z" fill="#5864FF"/>
<path d="M185.545 34.812H183.444V30.4428H179.348V34.812H177.247V24.6172H179.348V28.7483H183.444V24.6172H185.545V34.812Z" fill="#5864FF"/>
<path d="M196.993 37.3187H195.053V34.812H188.906V37.3117H186.917L186.805 33.1245H187.575C187.991 32.7791 188.31 32.2726 188.534 31.6051C188.763 30.9329 188.917 30.102 188.997 29.1124L189.291 24.6172H195.971V33.1245H197.161L196.993 37.3187ZM189.984 33.1245H193.87V26.3186H191.286L191.111 29.0004C190.971 30.7975 190.595 32.1723 189.984 33.1245Z" fill="#5864FF"/>
<path d="M200.368 31.22V34.812H198.267V24.6172H202.244C203.01 24.6172 203.682 24.7572 204.261 25.0373C204.844 25.3174 205.292 25.7165 205.605 26.2346C205.918 26.7481 206.074 27.3339 206.074 27.9921C206.074 28.991 205.731 29.7799 205.045 30.3588C204.364 30.9329 203.418 31.22 202.209 31.22H200.368ZM200.368 29.5185H202.244C202.8 29.5185 203.222 29.3878 203.512 29.1264C203.806 28.865 203.953 28.4916 203.953 28.0061C203.953 27.5066 203.806 27.1029 203.512 26.7948C203.218 26.4867 202.811 26.328 202.293 26.3186H200.368V29.5185Z" fill="#5864FF"/>
<path d="M212.033 32.7114H208.35L207.65 34.812H205.416L209.211 24.6172H211.158L214.974 34.812H212.74L212.033 32.7114ZM208.917 31.0099H211.466L210.185 27.1939L208.917 31.0099Z" fill="#5864FF"/>
</g>
<defs>
<clipPath id="clip0">
<rect width="215" height="37" fill="white"/>
</clipPath>
</defs>
</svg>
