<?xml version="1.0" encoding="UTF-8"?>
<svg width="52px" height="49px" viewBox="0 0 52 49" version="1.1" xmlns="http://www.w3.org/2000/svg" xmlns:xlink="http://www.w3.org/1999/xlink">
    <title>youtube</title>
    <g id="Home" stroke="none" stroke-width="1" fill="none" fill-rule="evenodd">
        <g id="Home-1600" transform="translate(-1169.000000, -7433.000000)" fill-rule="nonzero">
            <g id="Webinars" transform="translate(0.000000, 7143.000000)">
                <g id="Group-92" transform="translate(1101.000000, 197.000000)">
                    <g id="youtube" transform="translate(68.000000, 93.000000)">
                        <path d="M5.2,38.1310312 L46.8,38.1310312 C49.66,38.1310312 52,35.7910312 52,32.9310313 L52,5.23534375 C52,2.37534375 49.66,0.03534375 46.8,0.03534375 L5.2,0.03534375 C2.34,0.03534375 0,2.37534375 0,5.23534375 L0,32.9310313 C0,35.7910312 2.34,38.1310312 5.2,38.1310312 Z M18.9548125,8.68928125 L36.9581875,19.0835938 L18.9548125,29.4779063 L18.9548125,8.68928125 Z" id="Shape" fill="#DB2B42"></path>
                        <polygon id="Path" fill="#FFFFFF" points="18.9548125 8.68928125 18.9548125 29.4779063 36.9581875 19.0835937"></polygon>
                        <g id="Group" transform="translate(0.000000, 44.078125)" fill="#2D2D2D">
                            <path d="M36.1700625,1.08590625 C36.1700625,0.73084375 36.2383125,0.39446875 36.335,0.07028125 L0,0.07028125 L0,2.10153125 L36.335,2.10153125 C36.2375,1.77734375 36.1700625,1.44096875 36.1700625,1.08590625 Z" id="Path"></path>
                            <path d="M43.1055625,2.10153125 L52,2.10153125 L52,0.07028125 L43.106375,0.07028125 C43.203875,0.39365625 43.2713125,0.73003125 43.2713125,1.08590625 C43.2713125,1.44096875 43.2030625,1.77734375 43.1055625,2.10153125 Z" id="Path"></path>
                        </g>
                        <path d="M36.335,46.1796562 C36.7745625,47.6421562 38.1151875,48.7146562 39.7206875,48.7146562 C41.3261875,48.7146562 42.6668125,47.6421562 43.106375,46.1796562 C43.203875,45.8554687 43.272125,45.5190937 43.272125,45.1640312 C43.272125,44.8089687 43.203875,44.4725937 43.1071875,44.1484062 C42.6684375,42.6859062 41.327,41.6125937 39.7215,41.6125937 C38.116,41.6125937 36.7745625,42.6850937 36.3358125,44.1484062 C36.2383125,44.4717812 36.1708677,44.8081562 36.1708677,45.1640312 C36.1700625,45.5190937 36.2375,45.8554687 36.335,46.1796562 Z" id="Path" fill="#DB2B42"></path>
                    </g>
                </g>
            </g>
        </g>
    </g>
</svg>