<svg xmlns="http://www.w3.org/2000/svg" xmlns:xlink="http://www.w3.org/1999/xlink"><symbol id="ico-icon-betting" viewBox="0 0 47 48"><g fill-rule="nonzero" fill="none"><path d="M14.372.8c-8.782 3.992-11.976.798-11.976.798 0 2.433 5.093 9.957 7.521 13.406a8.672 8.672 0 013.657-3.825 5.793 5.793 0 001.793-1.724C14.813 6.082 14.372.8 14.372.8z" fill="#E2C4FF"/><path d="M5.03 7.56C2.749 6.565.8 5.59.8 5.59a13.98 13.98 0 00.798 3.992c.56 1.686 5.074 4.95 7.7 6.738.088-.122.183-.239.285-.35a6.18 6.18 0 01.335-.966c-1.27-1.804-3.265-4.721-4.886-7.443z" fill="#E2C4FF"/><path d="M4.36 12.65a35.61 35.61 0 011.23 5.715c.89.01 1.779.1 2.654.27a6.777 6.777 0 011.053-2.316C7.89 15.363 5.95 13.984 4.36 12.65zm40.353 9.707S41.52 31.94 41.52 34.334h-2.395c-.759 0-8.671-6.444-12.895-7.122a42.922 42.922 0 014.91-4.855l.216-.646c.85-.162 1.709-.273 2.571-.336a13.654 13.654 0 013.601.184 40.79 40.79 0 007.186.798z" fill="#E2C4FF"/><path d="M42.438 22.357s-3.194 9.582-3.194 11.977h-.12c-.759 0-8.671-6.444-12.895-7.122a42.922 42.922 0 014.91-4.855l.216-.646c.85-.162 1.709-.273 2.571-.336.445.037.888.099 1.326.184a40.81 40.81 0 007.185.798z" fill="#E2C4FF"/><path d="M40.721 36.73c-1.597 2.395-8.783 3.991-8.783 3.991l-1.142-1.82-6.403-10.252a6.19 6.19 0 001.836-1.437c3.202.519 8.504 4.327 11.21 6.148l.016.008c.493.358 1.016.67 1.565.934l1.701 2.427z" fill="#E2C4FF"/><path d="M38.685 35.132c-1.246 1.869-5.909 3.258-7.889 3.769l-6.403-10.252a6.19 6.19 0 001.836-1.437c3.202.519 8.504 4.327 11.21 6.148l.016.008 1.23 1.764z" fill="#E2C4FF"/><path d="M24.592 28.561c-.072.032-.135.064-.2.088l.344.543 2.292 3.665-.679.678-3.992 3.194-.232.471a17.03 17.03 0 00-1.014 2.467 16.04 16.04 0 01-.974 2.292l-2.132 4.264c-.27.542-.823.886-1.429.886H4.416a1.597 1.597 0 01-1.366-2.42l5.558-9.269a11.875 11.875 0 00.28-11.65 6.3 6.3 0 01-.903-3.01 6.994 6.994 0 011.597-4.79c.798-3.194 3.992-4.79 3.992-4.79a6.974 6.974 0 002.196-2.292c.162-.253.4-.449.678-.56a1.597 1.597 0 011.789.328l.143.144 1.582 1.046c.499.336.798.899.798 1.5v.632l.056-.056a1.457 1.457 0 011.685-.272l1.445.727c.495.244.808.75.806 1.301v.695l1.325.663a2.404 2.404 0 011.206 2.914l-.135.415.99.328a3.592 3.592 0 012.067 1.796l.935 1.868a42.922 42.922 0 00-4.91 4.855c-.479.526-1.03.98-1.638 1.349z" fill="#FFF"/><path d="M42.318 34.334c0-1.858 2.276-9.094 3.152-11.724a.798.798 0 00-.757-1.051 40.423 40.423 0 01-7.026-.783 17.639 17.639 0 00-6.375.134l-.388-.776a4.35 4.35 0 00-2.533-2.197l-.25-.08a3.22 3.22 0 00-1.702-3.53l-.889-.448v-.202a2.24 2.24 0 00-1.247-2.019l-1.449-.726a2.221 2.221 0 00-1.369-.203 2.595 2.595 0 00-1.084-1.546l-1.528-1.018-1.54-1.541c-.01-.01-.022-.016-.032-.025l-.046-.035a.775.775 0 00-.228-.13h-.008a.782.782 0 00-.273-.035h-.106a.896.896 0 00-.08.033.777.777 0 00-.148.04.732.732 0 00-.063.05.82.82 0 00-.101.079.78.78 0 00-.146.173c-.014.022-.036.034-.048.057-.06.118-.13.25-.203.384a158 158 0 01-.68-6.482.8.8 0 00-1.129-.66C5.978 3.736 2.981 1.052 2.96 1.03a.798.798 0 00-1.363.567c0 .934.604 2.445 1.543 4.232a92.643 92.643 0 01-1.984-.953A.798.798 0 000 5.59a14.72 14.72 0 00.84 4.244c.269.806 1.218 1.904 2.833 3.281.51 1.753.888 3.54 1.128 5.35a.8.8 0 00.789.699c.574.008 1.148.055 1.716.14a9.438 9.438 0 00-.12 1.457 6.978 6.978 0 00.992 3.377 11.01 11.01 0 01-.254 10.874l-5.56 9.267a2.395 2.395 0 002.053 3.629H16.58a2.383 2.383 0 002.142-1.324l2.133-4.266c.4-.774.74-1.578 1.017-2.404.262-.81.585-1.6.966-2.36l.155-.311 3.856-3.085.03-.027 4.383 7.013a.798.798 0 00.85.357c.768-.17 7.55-1.74 9.274-4.328a.798.798 0 00-.01-.901l-.798-1.14h.942a.798.798 0 00.799-.798zM29.492 20.848l.64 1.284c-.113.092-.218.192-.328.286-.094.08-.191.16-.284.24-.064.057-.126.115-.19.174a21.52 21.52 0 00-.535.509c-.08.08-.16.153-.24.232l-.126.127c-.208.21-.408.42-.608.63-.08.086-.165.171-.245.257a157.586 157.586 0 00-1.356 1.47l-.092.097-.386.407-.061.063a18.41 18.41 0 01-.378.376 4.32 4.32 0 01-1.19.9c-.308-.41-.646-.839-1.007-1.281a.806.806 0 00.05-.27c0-1.332 1.485-4.218 4.223-7.065l.504.168a2.766 2.766 0 011.61 1.396zm-3.77-5.097a1.616 1.616 0 01.807 1.946l-.084.25c-2.66 2.7-4.152 5.285-4.666 7.107a98.139 98.139 0 00-1.952-2.18c.933-.659 1.866-2.173 3.215-4.485a31.452 31.452 0 011.91-3.027l.77.39zm-3.582-3.388l1.45.725c.224.11.365.339.364.589v.387a25.74 25.74 0 00-2.291 3.523c-.914 1.566-2.166 3.71-2.857 4.056a.793.793 0 00-.073.057c-.463-.492-.895-.945-1.283-1.348a.773.773 0 00.116-.39c0-1.545 2.32-5.378 3.809-7.47l.006-.007c.2-.2.506-.25.759-.122zm-2.626-1.85a1 1 0 01.448.831v.38c-.68.969-3.035 4.446-3.768 6.947a4.713 4.713 0 00-.066-2.403c2.715-2.048 2.978-4.399 2.586-6.293l.8.538zm-5.84-8.54c.154 1.656.47 4.836.85 7.265l-.055.07a7.68 7.68 0 01-.225.265c-.074.083-.131.151-.196.22-.054.057-.103.101-.152.15a3.61 3.61 0 01-.352.308 2.148 2.148 0 01-.327.214l-.108.059-.018.01a9.802 9.802 0 00-3.253 2.962c-.042-.06-.08-.118-.124-.18a143.38 143.38 0 01-.79-1.156l-.468-.698-.364-.55c-.255-.386-.512-.78-.771-1.184l-.4-.624-.37-.588a44.374 44.374 0 01-.478-.786c-.08-.134-.165-.27-.246-.403A34.31 34.31 0 013.621 3.15c1.783.603 4.989.91 10.054-1.179zM2.356 9.33a16.277 16.277 0 01-.608-2.395c.724.344 1.688.792 2.727 1.248 1.282 2.144 2.827 4.462 4.3 6.575l.24.347-.015.038-.038-.027c-.201-.14-.392-.274-.582-.41l-.31-.218-.16-.117a55.744 55.744 0 01-3.002-2.307C3.29 10.713 2.512 9.804 2.355 9.33zm5.327 8.401a15.32 15.32 0 00-1.396-.144 42.46 42.46 0 00-.521-2.804c.719.54 1.514 1.113 2.387 1.718l.06.042-.036.072c-.043.08-.084.166-.127.253-.05.1-.098.201-.147.312-.049.111-.084.207-.125.315-.032.08-.065.152-.095.236zm14.176 18.375a.817.817 0 00-.216.266l-.233.468c-.417.834-.77 1.698-1.058 2.584-.252.75-.561 1.479-.925 2.18l-2.133 4.265a.794.794 0 01-.714.442H4.417a.799.799 0 01-.684-1.21l5.56-9.268a12.594 12.594 0 00.298-12.438 5.49 5.49 0 01-.808-2.634 7.714 7.714 0 01.255-1.997 5.912 5.912 0 01.903-1.972c.067-.093.14-.183.217-.269a.83.83 0 00.08-.105.554.554 0 00.042-.059.78.78 0 00.08-.195c.036-.147.08-.29.13-.429.052-.14.097-.26.16-.4l.006-.013c.059-.136.124-.267.192-.4l.01-.018c.069-.126.14-.25.214-.367l.01-.015a8.275 8.275 0 012.856-2.635c.011-.007.023-.016.035-.022a3.57 3.57 0 00.438-.269c.07-.051.143-.116.215-.173.087-.071.174-.14.259-.218.07-.063.14-.136.21-.206a8.39 8.39 0 00.3-.314c.048-.055.098-.11.146-.168.429-.509.82-1.048 1.172-1.613.879 2.072 1.113 4.334-1.979 6.394a.798.798 0 00-.271 1.021 3.07 3.07 0 010 2.48.798.798 0 00.15.922c.061.062 6.207 6.22 8.693 9.776a.798.798 0 00.878.307l1.836 2.934-4.162 3.368zm10.454 3.707l-6.804-10.886a8.76 8.76 0 00.978-.847c.026.007.05.011.08.017a9.535 9.535 0 01.55.158c.08.027.16.056.239.085.112.04.224.08.339.125.08.03.16.064.24.097.123.05.247.103.372.16a19.071 19.071 0 01.645.3l.198.096.475.24.153.08c.18.096.36.194.543.294l.094.053c.207.117.415.235.624.356l.017.01c1.806 1.056 3.616 2.287 4.97 3.206.798.576 1.627 1.11 2.482 1.597l1.21 1.73c-1.466 1.427-5.384 2.627-7.405 3.129zm6.942-6.278a26.25 26.25 0 01-2.345-1.508 66.902 66.902 0 00-6.807-4.219l-.112-.057a23.8 23.8 0 00-1.066-.502l-.138-.06c-.348-.149-.69-.284-1.021-.399l-.033-.013.235-.255a27.96 27.96 0 013.652-3.526.789.789 0 00.199-.223.625.625 0 00.031-.07.778.778 0 00.048-.093l.065-.195a15.658 15.658 0 015.406-.074c2.061.411 4.15.672 6.25.781-.758 2.35-2.475 7.807-2.831 10.413h-1.533z" fill="#020288"/><path d="M13.734 30.358a.798.798 0 00-.315 1.565c.036.007 3.635.771 5.03 3.566a.799.799 0 001.43-.713c-1.754-3.503-5.97-4.383-6.145-4.418z" fill="#020288"/></g></symbol><symbol id="ico-icon-business" viewBox="0 0 48 46"><g fill-rule="nonzero" fill="none"><path d="M42.112 6.08H5.888C3.2 6.08.96 8.32.96 11.008v.704h46.08v-.704c0-2.752-2.24-4.928-4.928-4.928zm-13.76 20.16c0 1.536-1.28 2.816-2.816 2.816h-3.072c-1.536 0-2.816-1.28-2.816-2.816 0-1.536 1.28-2.816 2.816-2.816h3.072c1.536-.064 2.816 1.216 2.816 2.816z" fill="#E2C4FF"/><path d="M42.112 5.056h-8.256C33.408 2.24 30.912.064 27.968.064h-7.936c-2.944 0-5.44 2.176-5.888 4.992H5.888A5.873 5.873 0 000 10.944v27.584a5.873 5.873 0 005.888 5.888h36.224A5.873 5.873 0 0048 38.528v-27.52c0-3.264-2.624-5.952-5.888-5.952zM29.12 24.96c-.512-1.472-1.92-2.56-3.584-2.56h-3.072c-1.664 0-3.072 1.088-3.584 2.56L1.92 20.352v-7.168h44.096v7.168L29.12 24.96zm-1.728 1.28a1.857 1.857 0 01-1.856 1.856h-3.072a1.857 1.857 0 01-1.856-1.856c0-1.024.832-1.856 1.856-1.856h3.072c1.024 0 1.856.832 1.856 1.856zm-7.36-24.192h7.872a4.051 4.051 0 013.904 3.008H16.192c.448-1.728 1.984-3.008 3.84-3.008zM5.888 7.04h36.224c2.176 0 3.968 1.792 3.968 3.968v.192H1.92v-.192c0-2.176 1.792-3.968 3.968-3.968zm36.224 35.456H5.888c-2.176 0-3.968-1.792-3.968-3.968V22.4l16.768 4.608c.384 1.728 1.92 3.072 3.712 3.072h3.072c1.856 0 3.392-1.28 3.712-3.072L45.952 22.4v16.192c.128 2.176-1.664 3.904-3.84 3.904z" fill="#020288"/></g></symbol><symbol id="ico-icon-category-keys" viewBox="0 0 32 28"><g fill-rule="nonzero" fill="none"><path d="M13.16 6.563c-3.664 0-6.645 2.985-6.645 6.653 0 3.669 2.98 6.653 6.644 6.653s6.645-2.984 6.645-6.653c0-3.668-2.98-6.653-6.645-6.653zm0 10.357a3.702 3.702 0 01-3.7-3.704 3.702 3.702 0 013.7-3.704 3.701 3.701 0 013.699 3.704 3.702 3.702 0 01-3.7 3.704z" fill="#E2C4FF"/><path d="M31.068 13.146l.871-1.827a.625.625 0 00-.564-.894H26.9a.625.625 0 00-.55.329l-.198.366C25.147 4.848 19.703.04 13.16.04 5.903.04 0 5.952 0 13.217c0 4.924 2.711 9.225 6.718 11.487l-2.188 2.19a.625.625 0 00.885.883l2.48-2.484c1.614.707 3.394 1.1 5.264 1.1s3.651-.393 5.264-1.1l2.481 2.484a.623.623 0 00.884 0 .625.625 0 000-.883l-2.187-2.19c3.457-1.952 5.95-5.422 6.569-9.5l.18.334c.109.203.32.33.55.33h4.475a.625.625 0 00.564-.895l-.871-1.826zM13.159 25.142c-6.566 0-11.909-5.35-11.909-11.926 0-6.576 5.343-11.925 11.91-11.925 6.333 0 11.528 4.976 11.889 11.23H23.35c-.359-5.316-4.793-9.532-10.191-9.532-5.633 0-10.215 4.588-10.215 10.227 0 5.64 4.582 10.227 10.214 10.227 5.447 0 9.911-4.29 10.2-9.672h1.697c-.29 6.319-5.515 11.37-11.897 11.37zm4.27-12.621a4.333 4.333 0 00-4.27-3.634 4.332 4.332 0 00-4.324 4.33 4.331 4.331 0 004.324 4.328 4.333 4.333 0 004.29-3.774h4.658c-.287 4.692-4.19 8.422-8.948 8.422-4.943 0-8.964-4.027-8.964-8.977S8.216 4.24 13.159 4.24c4.71 0 8.582 3.655 8.938 8.28h-4.669zm-4.27 1.25h3.025a3.08 3.08 0 01-3.025 2.524 3.08 3.08 0 010-6.158 3.08 3.08 0 012.996 2.384h-2.996a.625.625 0 100 1.25zm16.652-.356l.573 1.201h-3.11l-.793-1.47.792-1.47h3.111l-.573 1.2a.625.625 0 000 .539z" fill="#020288"/></g></symbol><symbol id="ico-icon-category-tz" viewBox="0 0 31 28"><g fill-rule="nonzero" fill="none"><g transform="translate(2.373 6.763)"><circle fill="#E2C4FF" transform="rotate(-67.486 4.25 4.245)" cx="4.251" cy="4.245" r="3.229"/><path d="M4.149 5.135a.59.59 0 01-.292-.077L3.3 4.743a.593.593 0 11.585-1.032l.163.092.482-.482a.593.593 0 01.839.84l-.801.8a.593.593 0 01-.42.174z" fill="#020288"/><g transform="translate(1.008 10.915)"><circle fill="#E2C4FF" cx="3.239" cy="3.279" r="3.228"/><path d="M3.14 4.173a.59.59 0 01-.292-.077l-.555-.315a.593.593 0 11.584-1.032l.163.092.482-.482a.593.593 0 01.84.839l-.802.801a.593.593 0 01-.42.174z" fill="#020288"/></g></g><g fill="#020288"><path d="M28.95 0h-3.43c-.784 0-1.423.638-1.423 1.423V23.11s0 .202.087.31l2.54 4.29a.593.593 0 001.022 0l2.54-4.29a.792.792 0 00.087-.31V1.423C30.373.638 29.734 0 28.95 0zm-3.666 22.516V4.924h1.358v17.592h-1.358zm2.544-17.592h1.358v17.592h-1.358V4.924zm-2.544-3.5c0-.131.106-.238.236-.238h3.43c.13 0 .236.107.236.237v2.314h-3.902V1.423zm1.951 24.818l-1.504-2.54h3.008l-1.504 2.54zm-7.924-14.947h-7.272a.593.593 0 100 1.186h7.272a.593.593 0 000-1.186zM12.04 8.93a.593.593 0 000 1.186h4.726a.593.593 0 100-1.187H12.04zm7.271 12.318h-7.272a.593.593 0 000 1.186h7.272a.593.593 0 000-1.186zm-7.271-1.179h4.726a.593.593 0 000-1.187H12.04a.593.593 0 000 1.187z"/><path d="M21.12.03H1.582C.71.03 0 .74 0 1.612v24.776c0 .872.71 1.582 1.582 1.582H21.12c.873 0 1.583-.71 1.583-1.582V1.612c0-.872-.71-1.582-1.583-1.582zm.396 26.358a.396.396 0 01-.396.396H1.582a.396.396 0 01-.396-.396V1.612c0-.218.178-.396.396-.396H21.12c.219 0 .396.178.396.396v24.776z"/><path d="M17.984 4.666a.593.593 0 00-.594-.594H5.312a.593.593 0 000 1.187H17.39a.593.593 0 00.594-.593z"/></g></g></symbol><symbol id="ico-icon-difficult" viewBox="0 0 50 45"><g fill-rule="nonzero" fill="none"><path fill="#E2C4FF" d="M25.367 19.54l7.93-13.327-15.3 1.678 2.291 3.621L1.66 23.545l2.787 4.407 18.629-12.034z"/><path d="M48.886 5.042l1.076-3.728a.976.976 0 00-.939-1.247H38.845a.977.977 0 00-.976.977v15.598H34.95a.977.977 0 00-.976.976v4.04H31.27a.977.977 0 00-.976.976v5.14h-14.17a.977.977 0 00-.977.977v5.14H.977a.977.977 0 00-.977.977v8.62c0 .54.437.976.977.976h45.442c.54 0 .977-.437.977-.976V22.634a.977.977 0 00-.977-.977h-2.702v-4.039a.977.977 0 00-.977-.976h-2.918v-6.625h9.201a.976.976 0 00.939-1.248l-1.076-3.727zM1.953 35.845h13.194v6.666H1.953v-6.666zm15.148-6.117h13.194V42.51H17.1V29.728zM45.442 42.51H32.248v-18.9h13.194v18.9zm-3.678-20.854h-5.837v-3.062h5.837v3.062zM46.93 5.313l.794 2.75h-7.903V2.02h7.903l-.794 2.751a.977.977 0 000 .542z" fill="#020288"/></g></symbol><symbol id="ico-icon-experiance" viewBox="0 0 56 43"><g fill-rule="nonzero" fill="none"><path fill="#E2C4FF" d="M36.302 14.147l-6.207 9.832 9.54 17.72h14.063z"/><path d="M54.906 40.605H40.288L22.837 8.19h6.278a1.094 1.094 0 00.992-1.552l-1.156-2.501 1.156-2.502a1.094 1.094 0 00-.992-1.552H21.5c-.605 0-1.094.49-1.094 1.093l.014 6.591L2.742 40.605H1.094a1.094 1.094 0 100 2.187h53.812a1.094 1.094 0 000-2.187zM21.515 10.35l5.272 9.793-.216.593a1.57 1.57 0 01-1.228 1.022 1.57 1.57 0 01-1.495-.563l-2.23-2.738a1.093 1.093 0 00-1.613-.09l-1.614 1.577a1.573 1.573 0 01-1.196.45 1.57 1.57 0 01-.903-.342l5.223-9.702zm5.89-8.08l-.651 1.408a1.094 1.094 0 000 .917l.65 1.408H22.61V2.796a1.1 1.1 0 00-.015-.178V2.27h4.81zM5.226 40.605L15.249 21.99a3.783 3.783 0 001.829.589 3.786 3.786 0 002.842-1.07l.758-.742 1.474 1.81a3.727 3.727 0 003.555 1.338 3.734 3.734 0 002.356-1.402l9.74 18.092H5.228z" fill="#020288"/></g></symbol><symbol id="ico-icon-gambling" viewBox="0 0 47 48"><g fill-rule="nonzero" fill="none"><path d="M43.08 11.319l-5.76-1.87-.006 26.633c0 .115-.009.228-.025.338l7.234-22.27a2.247 2.247 0 00-1.443-2.831z" fill="#E2C4FF"/><path d="M35.072.938H11.52a2.25 2.25 0 00-2.25 2.25l-.003 7.028 15.014-4.873c1.15-.373 2.393.28 2.776 1.46l9.611 30.259c.052.162.085.325.102.487a2.24 2.24 0 00.544-1.467l.008-32.893a2.25 2.25 0 00-2.25-2.251z" fill="#FFF"/><path d="M35.28 39.875L22.817 43.92l8.71 2.964a2.247 2.247 0 002.83-1.443l2.13-6.557a2.15 2.15 0 01-1.209.991z" fill="#E2C4FF"/><path d="M36.668 37.062L27.057 6.803c-.383-1.18-1.626-1.833-2.776-1.46l-21.84 7.09c-1.15.373-1.772 1.632-1.389 2.813l9.611 30.258c.384 1.18 1.626 1.834 2.776 1.46l21.84-7.089c1.15-.373 1.772-1.633 1.389-2.813z"/><g transform="translate(6 14.906)" fill="#020288"><path d="M10.387 4.273s-3.845 4.739-2.658 8.29c.593 1.776 2.251 2.604 3.405 2.218 1.865-.623 1.863-2.695 1.863-2.695s1.244 1.657 3.109 1.034c1.154-.385 1.982-2.044 1.388-3.82-1.186-3.551-7.107-5.027-7.107-5.027z"/><circle cx="1.941" cy="1.945" r="1.872"/><circle cx="23.937" cy="20.667" r="1.872"/></g><g fill="#020288"><path d="M45.183 12.03c-.378-.736-1.02-1.338-1.814-1.603l-5.11-1.66V3.19C38.26 1.455 36.803 0 35.073 0H11.52a3.192 3.192 0 00-3.188 3.187L8.33 9.535 2.152 11.54c-1.634.53-2.519 2.37-1.993 3.99l9.613 30.264c.512 1.614 2.336 2.589 3.957 2.063l9.083-2.949 8.415 2.863.012.005c1.633.538 3.476-.396 4.012-2.045l10.164-31.292c.26-.801.146-1.672-.232-2.409zM10.207 3.188c0-.724.589-1.313 1.312-1.313h23.553c.71 0 1.312.605 1.312 1.313l-.007 29.862L27.95 6.514c-.543-1.67-2.318-2.595-3.957-2.063L10.205 8.926l.002-5.738zm2.943 42.885c-.657.213-1.372-.172-1.593-.852L1.944 14.956c-.204-.643.13-1.419.787-1.632l21.84-7.09c.122-.04.247-.058.37-.058.536 0 1.043.358 1.222.911l9.613 30.265c.196.617-.14 1.422-.786 1.632l-21.84 7.09zm20.317-.922a1.31 1.31 0 01-1.644.842l-6.032-2.052 9.02-2.928-1.344 4.138zm10.164-31.29l-5.378 16.555.005-19.677s4.525 1.47 4.532 1.471a1.33 1.33 0 01.841 1.65z"/><path d="M22.403 28.916c1.587-.53 2.762-2.669 1.98-5.006-1.333-3.994-7.507-5.575-7.77-5.64a.938.938 0 00-.954.318c-.17.21-4.154 5.185-2.82 9.179.52 1.557 1.97 2.952 3.7 2.951.869 0 1.756-.423 2.357-1.067l.753 2.254-1.33.445a.938.938 0 00-.592 1.186c.16.48.707.752 1.186.592l4.44-1.483a.938.938 0 00-.595-1.778l-1.33.444-.753-2.254c.511.09 1.09.072 1.728-.141zm-5.566-.118c-1.003.335-1.944-.801-2.22-1.626-.743-2.227 1.039-5.392 2.13-6.916 1.788.562 5.114 2.02 5.858 4.248.44 1.32-.167 2.423-.796 2.633-1.186.396-2.031-.669-2.062-.708a.938.938 0 00-1.688.564c0 .014-.013 1.4-1.222 1.805zM7.94 14.042a2.813 2.813 0 00-2.81 2.81 2.814 2.814 0 002.81 2.81c1.55 0 2.81-1.261 2.81-2.81 0-1.55-1.26-2.81-2.81-2.81zm0 3.744a.936.936 0 010-1.87.936.936 0 010 1.87zm21.998 14.978c-1.55 0-2.81 1.26-2.81 2.81 0 1.549 1.26 2.81 2.81 2.81a2.814 2.814 0 002.81-2.81c0-1.55-1.261-2.81-2.81-2.81zm0 3.744a.936.936 0 010-1.87.936.936 0 010 1.87zm3.463-30.621a.939.939 0 10-.938-.938c0 .517.42.938.938.938zm0 8.251a.94.94 0 00.938-.937V8.7a.939.939 0 00-1.875 0v4.5c0 .517.42.938.937.938z"/></g></g></symbol><symbol id="ico-icon-lang" viewBox="0 0 61 58"><g fill-rule="nonzero" fill="none"><path d="M48.624 24.516a18.345 18.345 0 00-6.242-9.702c-.416.044-.847-.077-1.143-.394a1.324 1.324 0 01-.1-.115l-.005-.003c-.039-.027-.13-.074-.157-.092-.16-.06-.328-.104-.493-.148a8.494 8.494 0 01-1.464-.509c-.462-.215-.688-.728-.686-1.228a18.194 18.194 0 00-7.427-1.576 18.28 18.28 0 00-5.273.78c.547.715.457 1.959-.67 2.276-2.472.695-4.201 1.769-5.97 3.636-.964 1.019-1.25 2.195-1.827 3.43-.481 1.032-1.154 1.97-1.71 2.963-.517.923-1.554.827-2.162.276a18.271 18.271 0 00-.696 4.948c0 8.4 5.666 15.463 13.38 17.617.512-.575 1.404-.567 1.974-.152 1.767-.126 3.549-.035 5.302-.305.7-.108 1.238.246 1.532.732a18.316 18.316 0 009.675-5.615 1.462 1.462 0 01-.045-.721c.395-2.13 1.104-4.131 2.09-6.056 1.473-2.871 1.996-5.14 1.07-8.34-.262-.904.337-1.536 1.047-1.702z"/><path d="M31.85 28.527c-1.846.843-4.177.18-5.214-1.707-.976-1.777-2.603-2.182-2.603-2.182-6.9-2.142-5.313-3.12-3.58-3.529a8.301 8.301 0 012.315-.196c3.93.2 5.078-3.219 5.078-3.219.59-1.76-1.56-5.695-1.867-6.244-6.264 1.768-11.17 6.74-12.801 13.024 1.61.974 3.23.796 3.23.796 4.104 0 4.481 4.525 4.473 6.27a10.77 10.77 0 00.247 2.436c1.158 5.07 4.812 4.552 4.812 4.552 1.244 0 2.32-.709 2.842-1.743a5.937 5.937 0 012.082-2.3c2.449-1.592 2.707-3.673 2.52-5.088-.096-.721-.87-1.174-1.534-.87zm17.366.496c0-1.657-.222-3.261-.629-4.788-4.054.554-6.114-.102-6.989-.554-.646-.335-1.413-.425-2.07-.112-.958.457-1.952 1.673-1.605 4.82 0 0 .387 2.346 2.988 3.658 1.292.652 1.99 2.069 1.666 3.49-.433 1.901-.45 4.404 1.616 6.144a18.382 18.382 0 005.023-12.658zM38.27 12.295l-.419.349c-1.483 1.158-3.187 2.84-2.31 4.532 0 0 1.717 1.972 3.994.553.437-.273.79-.657 1.1-1.07.266-.354.767-.904 1.636-1.49l.335-.192a18.273 18.273 0 00-4.336-2.682zm-7.363 35.071a18.36 18.36 0 004.229-.496c-.48-1.004-.756-2.074-.906-3.021-.257-1.62-1.683-2.796-3.324-2.796a5.048 5.048 0 00-5.05 5.05l-.06.535c1.624.47 3.337.728 5.111.728z" fill="#E2C4FF"/><path d="M30.907 48.238c-10.576 0-19.18-8.604-19.18-19.18 0-10.577 8.604-19.18 19.18-19.18s19.18 8.603 19.18 19.18c0 10.576-8.604 19.18-19.18 19.18zm0-36.617c-9.614 0-17.436 7.822-17.436 17.437 0 9.614 7.822 17.436 17.436 17.436 9.615 0 17.437-7.822 17.437-17.436 0-9.615-7.822-17.437-17.437-17.437z" fill="#4D007E"/><path d="M25.715 39.408c-1.074 0-4.334-.41-5.437-5.24a11.554 11.554 0 01-.269-2.633c.004-.952-.12-3.301-1.365-4.55-.558-.56-1.278-.836-2.2-.844-.343.026-2.035.095-3.718-.921l-.556-.337.164-.628c1.703-6.563 6.841-11.79 13.409-13.645l.66-.187.336.6c.802 1.43 2.597 4.97 1.934 6.947a5.856 5.856 0 01-5.95 3.812 7.41 7.41 0 00-2.07.175c-.237.055-.417.11-.55.16.456.307 1.558.872 4.189 1.689.033.007 1.962.506 3.109 2.594.787 1.435 2.582 2.02 4.087 1.333.563-.256 1.2-.23 1.75.073.55.304.928.855 1.01 1.474.185 1.39.053 4.01-2.907 5.934a5.101 5.101 0 00-1.78 1.963 4.03 4.03 0 01-3.587 2.221c-.061.005-.149.01-.26.01zm-9.355-15.01h.048c1.408 0 2.576.456 3.472 1.356 1.644 1.651 1.88 4.336 1.873 5.79a9.83 9.83 0 00.225 2.236c.938 4.107 3.554 3.916 3.848 3.882l.114-.007c.88 0 1.67-.483 2.063-1.264a6.837 6.837 0 012.386-2.639c1.645-1.069 2.361-2.496 2.13-4.242a.243.243 0 00-.126-.178.198.198 0 00-.182-.012c-2.33 1.064-5.115.15-6.339-2.08-.767-1.398-2.004-1.744-2.056-1.758-4.824-1.497-5.762-2.448-5.725-3.502.042-1.22 1.638-1.597 2.162-1.72a9.05 9.05 0 012.56-.218c3.231.173 4.198-2.598 4.207-2.626.29-.862-.481-3.022-1.47-4.926-5.432 1.77-9.694 6.104-11.34 11.534 1.109.47 2.09.38 2.103.379l.047-.005zm27.901 18.48l-.63-.531c-1.922-1.618-2.58-4.041-1.904-7.005.23-1.007-.268-2.042-1.21-2.517-2.961-1.495-3.436-4.18-3.456-4.294-.413-3.74.91-5.187 2.091-5.75.861-.41 1.899-.365 2.847.125.62.32 2.491 1.006 6.47.465l.761-.104.2.744a19.44 19.44 0 01.657 5.01c0 4.956-1.868 9.664-5.261 13.258l-.565.599zm-3.854-18.631c-.18 0-.352.036-.503.108-1.217.58-1.278 2.463-1.115 3.939.007.025.368 1.892 2.513 2.974a4.002 4.002 0 012.125 4.462c-.446 1.954-.2 3.524.733 4.68a17.492 17.492 0 004.184-11.388c0-1.286-.141-2.57-.42-3.828-3.803.403-5.832-.276-6.726-.74a1.742 1.742 0 00-.791-.207zm-2.537-5.134c-1.37 0-2.471-.774-2.985-1.365l-.117-.17c-1.34-2.583 1.586-4.87 2.546-5.621l.813-.678.494.218a19.24 19.24 0 014.543 2.81l.967.803-1.427.816c-.71.483-1.143.954-1.371 1.257-.436.582-.861.99-1.337 1.286-.747.465-1.467.644-2.126.644zm-1.605-2.441c.293.288 1.39 1.2 2.81.317.286-.179.561-.45.863-.854a6.916 6.916 0 011.189-1.205 17.465 17.465 0 00-2.721-1.615c-2.515 1.97-2.321 2.955-2.14 3.357zm-5.358 31.566c-1.809 0-3.61-.257-5.353-.763l-.704-.205.135-1.217a5.929 5.929 0 015.922-5.872c2.101 0 3.86 1.486 4.184 3.531.164 1.036.443 1.972.831 2.781l.467.976-1.052.25a19.372 19.372 0 01-4.43.519zm-4.177-2.252c2.349.579 4.799.665 7.199.242a12.628 12.628 0 01-.56-2.244c-.185-1.174-1.244-2.06-2.462-2.06a4.184 4.184 0 00-4.177 4.062z" fill="#4D007E"/><path d="M29.012.396l-3.293 2.926 2.976 3.237 2.663.132-2-2.172C40.774 6.311 49.094 16.107 48.85 27.468c-.244 11.36-8.977 20.803-20.458 22.12l.21 1.808c12.48-1.423 21.946-11.73 22.115-24.079.17-12.349-9.01-22.902-21.446-24.655L31.677.528 29.012.396zM.719 27.807c.071 12.196 9.176 22.52 21.448 24.322l-2.408 2.135 2.663.132 3.297-2.926-2.977-3.238-2.663-.13 1.999 2.173c-11.42-1.788-19.747-11.586-19.503-22.95.244-11.365 8.984-20.81 20.472-22.121l-.212-1.808C10.222 4.824.707 15.326.72 27.806z" transform="rotate(84 27.25 31.235)" fill="#020288"/></g></symbol><symbol id="ico-icon-like-clients" viewBox="0 0 53 44"><g fill-rule="nonzero" fill="none"><path d="M31.448 13.448c-2.828 0-5.048 3.153-5.048 3.153s-2.093-3.153-5.049-3.153c-2.875 0-5.222 2.37-5.376 5.242-.086 1.622.436 2.856 1.173 3.974 1.472 2.234 9.262 7.403 9.262 7.403s7.76-5.15 9.242-7.403c.738-1.123 1.26-2.352 1.173-3.974-.154-2.871-2.502-5.242-5.377-5.242" fill="#E2C4FF"/><g fill="#020288"><path d="M51.769 34.028H50.8V4.292A4.207 4.207 0 0046.6.09H6.201a4.207 4.207 0 00-4.202 4.202v29.736H1.03a1.03 1.03 0 00-1.031 1.031v3.858a4.724 4.724 0 004.719 4.719H48.08a4.724 4.724 0 004.719-4.72V35.06a1.03 1.03 0 00-1.031-1.031zM6.2 2.152h40.398c1.18 0 2.14.96 2.14 2.14v2.87H4.06v-2.87c0-1.18.96-2.14 2.14-2.14zM4.06 9.225h44.68v24.803H33.864a1.03 1.03 0 00-1.03 1.031c0 .659-.537 1.194-1.195 1.194H21.16a1.196 1.196 0 01-1.194-1.194 1.03 1.03 0 00-1.031-1.031H4.06V9.225zm46.676 29.692a2.66 2.66 0 01-2.656 2.656H4.719a2.66 2.66 0 01-2.657-2.657V36.09h16.01a3.263 3.263 0 003.09 2.226h10.477a3.263 3.263 0 003.09-2.226h16.008v2.827z"/><path d="M25.82 5.567h1.16a1.031 1.031 0 000-2.063h-1.16a1.031 1.031 0 100 2.063zm16.163 15.442h1.085a1.031 1.031 0 000-2.062h-1.085a1.031 1.031 0 000 2.062zm-2.603-5.841c.263 0 .527-.101.728-.303l.767-.766a1.031 1.031 0 10-1.458-1.459l-.767.767a1.031 1.031 0 00.73 1.76zm.037 12.147a1.028 1.028 0 001.458 0 1.031 1.031 0 000-1.458l-.767-.767a1.031 1.031 0 00-1.458 1.458l.767.767zm-28.601-8.368H9.732a1.031 1.031 0 100 2.062h1.084a1.031 1.031 0 100-2.062zm1.875 6.143l-.766.767a1.031 1.031 0 001.458 1.458l.767-.767a1.031 1.031 0 00-1.459-1.458zm.692-12.45a1.031 1.031 0 00-1.458 1.459l.766.766a1.028 1.028 0 001.459 0 1.031 1.031 0 000-1.458l-.767-.767z"/></g></g></symbol><symbol id="ico-icon-orders" viewBox="0 0 49 53"><g fill-rule="nonzero" fill="none"><g fill="#E2C4FF"><path d="M29.868 6.981h10.516l-1.198-4.88A2.757 2.757 0 0035.85.08l-7.09 1.74 1.108 5.16zm-8.244-3.409L2.201 8.341a2.757 2.757 0 00-2.02 3.334l7.107 28.953V9.465a2.484 2.484 0 012.484-2.484h11.12l.732-3.409z"/><path d="M.936 27.91c-.301 0-.59-.054-.856-.152L.728 30.4a2.757 2.757 0 003.335 2.02l18.375-4.51H.936zm38.797-7.085L34.636.062v24.853l3.077-.756a2.757 2.757 0 002.02-3.334z" transform="translate(8.836 19.5)"/></g><g fill="#020288"><path d="M34.793 5.966h-10.3l-.831-3.874h1.24a1.016 1.016 0 000-2.03H13.468a1.016 1.016 0 000 2.03h1.24l-.832 3.874h-10.3A3.503 3.503 0 00.077 9.465v35.46c0 1.93 1.57 3.5 3.5 3.5h31.216c1.93 0 3.5-1.57 3.5-3.5V9.466c0-1.93-1.57-3.5-3.5-3.5zm-9.89 5.584v2.726H13.467V11.55h11.434zm-3.319-9.458l1.595 7.427h-7.988l1.595-7.427h4.798zm14.677 42.834a1.47 1.47 0 01-1.468 1.468H3.577a1.47 1.47 0 01-1.468-1.468V9.465c0-.81.658-1.468 1.468-1.468h9.863l-.327 1.522h-.66c-.562 0-1.017.455-1.017 1.015v4.757c0 .56.455 1.016 1.016 1.016h5.717v5.038a1.016 1.016 0 002.032 0v-5.038h5.717c.56 0 1.015-.455 1.015-1.016v-4.757c0-.56-.454-1.015-1.015-1.015h-.661l-.327-1.522h9.863c.81 0 1.468.659 1.468 1.468v35.46z" transform="translate(6.195)"/><path d="M30.406 24.984H7.964a1.016 1.016 0 000 2.032h22.442a1.016 1.016 0 000-2.032zm0 7.126H7.964a1.016 1.016 0 000 2.031h22.442a1.016 1.016 0 000-2.031z" transform="translate(6.195)"/></g></g></symbol><symbol id="ico-icon-pharma" viewBox="0 0 48 48"><g fill-rule="nonzero" fill="none"><path d="M29.842 48H18.158a4.195 4.195 0 01-4.191-4.19v-9.777H4.19c-2.31 0-4.19-1.88-4.19-4.19V18.157a4.195 4.195 0 014.19-4.191h9.777V4.19c0-2.31 1.88-4.191 4.19-4.191h11.686c2.31 0 4.19 1.88 4.19 4.19v9.777h9.776A4.195 4.195 0 0148 18.156v11.685a4.195 4.195 0 01-4.19 4.191h-9.777v9.776c0 2.31-1.88 4.191-4.19 4.191zM4.191 15.842a2.318 2.318 0 00-2.316 2.316v11.684a2.318 2.318 0 002.316 2.316h10.713c.518 0 .938.42.938.938v10.713a2.318 2.318 0 002.315 2.316h11.685a2.318 2.318 0 002.316-2.316V33.096c0-.518.42-.938.938-.938h10.713a2.318 2.318 0 002.316-2.316V18.159a2.318 2.318 0 00-2.316-2.316H33.096a.937.937 0 01-.938-.938V4.191a2.318 2.318 0 00-2.316-2.316H18.158a2.318 2.318 0 00-2.316 2.316v10.713c0 .518-.42.938-.938.938H4.191z" fill="#020288"/><path fill="#E2C4FF" d="M19.217 42.75V28.783H5.25v-9.566h13.967V5.25h9.566v13.967H42.75v9.566H28.783V42.75z"/></g></symbol><symbol id="ico-icon-startup" viewBox="0 0 30 48"><g fill-rule="nonzero" fill="none"><circle fill="#E2C4FF" transform="rotate(-45 14.62 21.112)" cx="14.62" cy="21.112" r="6.982"/><g fill="#020288"><path d="M28.718 30.406l-3.772-1.925c.54-3.17.959-6.433.959-8.927 0-7.018-2.934-11.924-5.396-14.804C17.84 1.628 15.182.173 15.07.113a.937.937 0 00-.89 0c-.112.06-2.77 1.515-5.439 4.637-2.462 2.88-5.396 7.786-5.396 14.804 0 2.494.419 5.758.959 8.927L.532 30.406a.94.94 0 00-.495 1.009l2.099 11.128a.938.938 0 001.442.606l4.185-2.8h2.385a4.592 4.592 0 00-.104.971c0 2.279 3.257 5.729 3.91 6.398a.938.938 0 001.341 0c.654-.669 3.911-4.12 3.911-6.398 0-.328-.035-.654-.104-.97h2.384l4.185 2.799a.938.938 0 001.443-.606l2.099-11.128a.937.937 0 00-.495-1.009zm-18.6-24.38c1.828-2.156 3.68-3.465 4.507-3.994.827.529 2.679 1.839 4.508 3.993a21.519 21.519 0 011.47 1.944H8.647c.447-.667.937-1.315 1.47-1.944zM7.53 9.843h14.188c1.536 2.929 2.31 6.18 2.31 9.71 0 5.731-2.403 16.122-3.077 18.92H8.298c-.674-2.797-3.078-13.187-3.078-18.92 0-3.53.775-6.781 2.31-9.71zM2.01 31.757l2.639-1.346a170.765 170.765 0 001.834 8.54L3.716 40.8 2.01 31.757zm15.32 9.563c0 .952-1.42 2.914-2.706 4.365-1.287-1.451-2.706-3.413-2.706-4.365 0-.334.061-.663.18-.97h5.053c.118.307.18.636.18.97zm8.204-.519l-2.768-1.85a170.85 170.85 0 001.835-8.54l2.638 1.346-1.705 9.044z"/><path d="M14.625 24.106a2.997 2.997 0 002.994-2.994 2.997 2.997 0 00-2.994-2.994 2.997 2.997 0 00-2.994 2.994 2.997 2.997 0 002.994 2.994zm0-4.113a1.12 1.12 0 010 2.238 1.12 1.12 0 010-2.238z"/></g></g></symbol><symbol id="ico-lang-de" viewBox="0 0 28 20"><defs><filter x="-5.4%" y="-22.5%" width="110.7%" height="145%" filterUnits="objectBoundingBox" id="c"><feMorphology radius=".5" operator="dilate" in="SourceAlpha" result="shadowSpreadOuter1"/><feOffset in="shadowSpreadOuter1" result="shadowOffsetOuter1"/><feColorMatrix values="0 0 0 0 0 0 0 0 0 0 0 0 0 0 0 0 0 0 0.06 0" in="shadowOffsetOuter1"/></filter><filter x="-5.4%" y="-22.5%" width="110.7%" height="145%" filterUnits="objectBoundingBox" id="e"><feMorphology radius=".5" operator="dilate" in="SourceAlpha" result="shadowSpreadOuter1"/><feOffset in="shadowSpreadOuter1" result="shadowOffsetOuter1"/><feColorMatrix values="0 0 0 0 0 0 0 0 0 0 0 0 0 0 0 0 0 0 0.06 0" in="shadowOffsetOuter1"/></filter><path id="d" d="M0 6.667h28v6.667H0z"/><path id="f" d="M0 13.333h28V20H0z"/><rect id="a" x="0" y="0" width="28" height="20" rx="2"/></defs><g fill="none" fill-rule="evenodd"><mask id="b" fill="#fff"><use xmlns:xlink="http://www.w3.org/1999/xlink" xlink:href="#a"/></mask><use fill="#FFF" xlink:href="#a"/><path fill="#262626" mask="url(#b)" d="M0 0h28v6.667H0z"/><g mask="url(#b)"><use fill="#000" filter="url(#c)" xlink:href="#d"/><use fill="#F01515" xlink:href="#d"/></g><g mask="url(#b)"><use fill="#000" filter="url(#e)" xlink:href="#f"/><use fill="#FFD521" xlink:href="#f"/></g></g></symbol><symbol id="ico-lang-ru" viewBox="0 0 28 20"><defs><rect id="a" x="0" y=".476" width="28" height="19.048" rx="2"/></defs><g fill="none" fill-rule="evenodd"><mask id="b" fill="#fff"><use xlink:href="#a"/></mask><rect stroke="#fff" fill="#fff" stroke-width=".5" x=".25" y=".726" width="27.5" height="18.548" rx="2"/><path fill="#0C47B7" mask="url(#b)" d="M0 6.825h28v6.349H0z"/><path fill="#E53B35" mask="url(#b)" d="M0 13.175h28v6.349H0z"/></g></symbol><symbol id="ico-lang-us" viewBox="0 0 28 20"><defs><linearGradient x1="50%" y1="0%" x2="50%" y2="100%" id="e"><stop stop-color="#FFF" offset="0%"/><stop stop-color="#F0F0F0" offset="100%"/></linearGradient><filter x="-5.4%" y="-7.5%" width="110.7%" height="130%" filterUnits="objectBoundingBox" id="c"><feOffset dy="1" in="SourceAlpha" result="shadowOffsetOuter1"/><feColorMatrix values="0 0 0 0 0 0 0 0 0 0 0 0 0 0 0 0 0 0 0.06 0" in="shadowOffsetOuter1"/></filter><rect id="a" x="0" y="0" width="28" height="20" rx="2"/><path d="M10 6.667A.667.667 0 1110 8a.667.667 0 010-1.333zm-2.667 0a.667.667 0 110 1.333.667.667 0 010-1.333zm-2.666 0a.667.667 0 110 1.333.667.667 0 010-1.333zM2 6.667A.667.667 0 112 8a.667.667 0 010-1.333zm1.333-1.334a.667.667 0 110 1.334.667.667 0 010-1.334zm2.667 0a.667.667 0 110 1.334.667.667 0 010-1.334zm2.667 0a.667.667 0 110 1.334.667.667 0 010-1.334zM10 4a.667.667 0 110 1.333A.667.667 0 0110 4zM7.333 4a.667.667 0 110 1.333.667.667 0 010-1.333zM4.667 4a.667.667 0 110 1.333.667.667 0 010-1.333zM2 4a.667.667 0 110 1.333A.667.667 0 012 4zm1.333-1.333a.667.667 0 110 1.333.667.667 0 010-1.333zm2.667 0A.667.667 0 116 4a.667.667 0 010-1.333zm2.667 0a.667.667 0 110 1.333.667.667 0 010-1.333zM2 1.333a.667.667 0 110 1.334.667.667 0 010-1.334zm2.667 0a.667.667 0 110 1.334.667.667 0 010-1.334zm2.666 0a.667.667 0 110 1.334.667.667 0 010-1.334zm2.667 0a.667.667 0 110 1.334.667.667 0 010-1.334z" id="d"/></defs><g fill="none" fill-rule="evenodd"><mask id="b" fill="#fff"><use xlink:href="#a"/></mask><use fill="#FFF" xlink:href="#a"/><path d="M28 18.667V20H0v-1.333h28zM28 16v1.333H0V16h28zm0-2.667v1.334H0v-1.334h28zm0-2.666V12H0v-1.333h28zM28 8v1.333H0V8h28zm0-2.667v1.334H0V5.333h28zm0-2.666V4H0V2.667h28zM28 0v1.333H0V0h28z" fill="#D02F44" mask="url(#b)"/><path fill="#46467F" mask="url(#b)" d="M0 0h12v9.333H0z"/><g mask="url(#b)"><use fill="#000" filter="url(#c)" xlink:href="#d"/><use fill="url(#e)" xlink:href="#d"/></g></g></symbol><symbol id="ico-lang-www" viewBox="0 0 28 20"><defs><rect id="a" x="0" y="0" width="28" height="20" rx="2"/></defs><g fill="none" fill-rule="evenodd"><mask id="b" fill="#fff"><use xlink:href="#a"/></mask><use fill="#FFF" xlink:href="#a"/><path fill="#19BFBF" mask="url(#b)" d="M0 0h28v20H0z"/><path d="M14 2.667a7.333 7.333 0 110 14.666 7.333 7.333 0 010-14.666zm1.986 8h-3.972c.098 2.249.685 4.237 1.601 5.322a6.77 6.77 0 00.77-.001c.916-1.084 1.503-3.072 1.6-5.322zm3.977 0H17.32c-.073 1.861-.453 3.586-1.103 4.91a6.006 6.006 0 003.746-4.91zm-9.283 0H8.037a6.006 6.006 0 003.747 4.91c-.651-1.324-1.031-3.049-1.104-4.91zm1.103-6.245l-.118.05a6.005 6.005 0 00-3.628 4.862h2.643c.073-1.862.453-3.588 1.103-4.912zm4.434 0l.043.09c.624 1.311.989 3.001 1.06 4.821h2.643a6.006 6.006 0 00-3.746-4.91zM14 4c-.13 0-.258.004-.385.012-.916 1.084-1.503 3.072-1.6 5.32h3.97c-.097-2.248-.684-4.236-1.6-5.32A6.457 6.457 0 0014 4z" fill="#FFF" mask="url(#b)"/></g></symbol><symbol id="ico-pay-payoneer" viewBox="0 0 72 26"><path d="M18.118 11.43c-.72-.098-1.435-.27-2.155-.31-1.412-.08-2.772.168-3.96.979-1.892 1.291-2.672 3.147-2.58 5.387.041 1.066.458 1.972 1.475 2.44 1.029.471 2.044.316 2.931-.371.428-.33.764-.774 1.19-1.22-.029.446-.044.869-.083 1.29-.026.262.063.363.333.353a23.93 23.93 0 011.578 0c.284.01.35-.094.368-.371.058-.904.101-1.814.248-2.707.276-1.676.617-3.344.936-5.017.048-.25.009-.411-.281-.453zm-3.624 5.756a2.884 2.884 0 01-.568.633c-.354.304-.771.434-1.23.251-.457-.183-.622-.598-.65-1.036-.093-1.412.396-2.604 1.481-3.517.577-.485 1.263-.643 2.083-.414-.292 1.405-.312 2.85-1.116 4.083zM43.917 2.53c-1.166-2.001-3.84-1.489-3.84-1.489-.212.048-.428.1-.644.14-1.3.243-2.525.69-3.697 1.285-2.55 1.291-4.832 2.96-6.883 4.932a87.099 87.099 0 00-3.965 4.07c-2.242 2.46-4.162 5.16-5.696 8.123-.79 1.524-1.495 3.093-1.82 4.798-.06.314.04.675.142.993.043.124.274.22.436.271.043.012.175-.196.233-.319.374-.812.668-1.67 1.126-2.428a71.52 71.52 0 012.895-4.47c1.642-2.326 3.524-4.458 5.538-6.475 1.902-1.906 3.85-3.764 6.25-5.05 1.102-.59 2.22-1.164 3.377-1.637a26.376 26.376 0 016.198-1.695c.226-.031.533-.212.607-.4.062-.162-.257-.648-.257-.648zm-34.18 8.08C9.574 9.469 8.613 8.5 7.229 8.159c-1.584-.391-3.173-.23-4.76.01-.21.032-.27.172-.307.374-.606 3.209-1.225 6.414-1.836 9.62-.11.58-.21 1.165-.326 1.803.812 0 1.572.006 2.33-.013.06-.003.15-.163.167-.263a223.5 223.5 0 00.714-3.718c.043-.24.12-.307.374-.283 1.078.097 2.138.023 3.178-.323 1.979-.652 3.305-2.475 2.974-4.754zm-2.675 1.726c-.392.836-1.104 1.233-1.98 1.327-.453.05-.915.01-1.433.01.235-1.25.442-2.36.66-3.467.017-.082.12-.196.195-.208.617-.082 1.236-.128 1.837.087.847.298 1.167 1.303.72 2.25zm15.21-4.246c-.231-1.964-1.078-3.638-2.424-5.065a1.568 1.568 0 00-.6-.37c-.223-.081-.37.046-.349.302.019.224.04.45.078.673.273 1.544.537 3.091.83 4.634.23 1.204.482 2.406.755 3.602.09.387.245.769.43 1.122.14.27.342.249.53.002.08-.103.166-.208.208-.327.405-1.107.614-2.251.639-3.433-.032-.38-.052-.761-.097-1.14zm44.408 4.952c.05-.563.092-1.128.14-1.73-.696 0-1.345-.01-1.983.011-.075.003-.202.16-.208.251-.18 2.238-.636 4.432-1.075 6.629-.111.569-.21 1.14-.322 1.766.833 0 1.615.006 2.4-.011.058-.002.145-.166.165-.263.246-1.199.435-2.415.725-3.605.418-1.71 1.123-2.303 2.793-2.522.073-.01.183-.088.197-.15.158-.742.3-1.484.457-2.287-1.61-.168-2.51.76-3.29 1.91zm-5.085 2.974c1.058-.494 1.57-1.336 1.501-2.451-.07-1.143-.671-1.955-1.8-2.267-1.843-.508-3.456-.015-4.753 1.364-1.21 1.284-1.656 2.856-1.445 4.59.164 1.36.88 2.35 2.242 2.722 1.515.413 3.002.21 4.439-.38.098-.04.21-.207.208-.308-.028-.514-.09-1.033-.146-1.58-.176.068-.31.118-.443.163-.796.292-1.614.418-2.46.317-.906-.11-1.504-.749-1.42-1.582.251 0 .488.006.725 0 1.148-.026 2.29-.094 3.352-.588zm-1.476-3.04c.325.09.568.26.616.613.05.379-.104.68-.441.822-.31.139-.649.24-.988.285-.503.068-1.013.073-1.551.108.112-1.186 1.356-2.103 2.364-1.827zm-14.535-.054c-.104-.939-.737-1.613-1.654-1.77-1.11-.181-2.073.142-2.91.872-.227.197-.443.411-.691.644l.105-1.35h-2.15c-.532 2.878-1.055 5.732-1.59 8.646.827 0 1.574.01 2.325-.013.084-.003.214-.175.234-.285.186-.932.355-1.872.518-2.805.153-.862.305-1.719.749-2.489.299-.526.663-.996 1.275-1.191.628-.201 1.102.102 1.176.75.023.188.036.385.006.571a206.43 206.43 0 01-.557 3.275c-.125.712-.264 1.423-.397 2.126.068.032.101.058.133.058.728.006 1.458.02 2.186 0 .083-.003.209-.17.234-.275.248-1.226.48-2.45.712-3.682.196-1.015.411-2.032.296-3.082zm5.12 3.648c.873-.051 1.73-.2 2.522-.593 1.013-.51 1.49-1.343 1.414-2.438-.08-1.111-.681-1.913-1.756-2.232-1.608-.48-3.091-.143-4.355.933-1.534 1.306-2.11 3.035-1.894 5.005.155 1.393.918 2.39 2.309 2.749 1.492.386 2.96.183 4.375-.396.095-.037.21-.205.21-.305-.03-.517-.09-1.034-.14-1.547-.062 0-.088-.005-.106.002-.091.03-.18.066-.272.098-.812.312-1.655.45-2.525.342-.9-.11-1.495-.733-1.436-1.613.56 0 1.11.027 1.654-.006zm.932-3.597c.344.083.586.267.643.63.056.353-.122.657-.474.84-.511.27-1.846.43-2.503.293.136-1.122 1.323-2.009 2.334-1.763z"/><path d="M36.266 14.372c-.068-1.038-.48-1.915-1.328-2.545-.891-.661-1.905-.797-2.991-.677-3.629.403-5.11 4.24-4.34 6.696.472 1.497 1.75 2.326 3.995 2.323 1.545-.045 3.073-.92 4.032-2.716.512-.957.695-1.999.632-3.08zm-3.585 3.239c-.28.356-.649.6-1.114.642-.834.078-1.47-.5-1.537-1.385-.01-.13-.001-.264-.001-.391.027-.974.264-1.885.852-2.678.263-.354.59-.63 1.028-.728.9-.208 1.637.316 1.718 1.29.1 1.187-.192 2.295-.946 3.25z"/></symbol><symbol id="ico-pay-webmoney" viewBox="0 0 93 26"><path d="M85.248 14.735l2.174-1.965 1.964 2.173-2.175 1.965zm-5.059 2.413l2.9-2.61 2.611 2.9-2.9 2.611zm9.707-3.764l1.448-1.305 1.306 1.448-1.449 1.306zM81.38 5.767l2.176-1.96 1.96 2.177-2.177 1.96zm6.664 3.289L89.49 7.75l1.307 1.447-1.446 1.306zM9.718 7.872l-1.42 7.364h-.099L6.264 7.872H5.025l-1.808 7.364h-.099L1.56 7.872H0l2.255 9.87h1.504l1.837-6.948h.098l1.892 6.947h1.505l2.256-9.869zm68.41 4.252l2.903-2.612 2.611 2.9-2.902 2.614zM76.057 7.18l2.9-2.612 2.612 2.901-2.9 2.612zm7.327 2.964l2.172-1.96 1.963 2.176-2.171 1.96zm2.796-5.391l1.448-1.305 1.306 1.448-1.449 1.306zM63.802 10.85l-1.58 5.127h-.084l-1.78-5.126h-1.531l2.67 6.963c-.334 1.03-.917 1.78-1.864 1.78v1.14c1.599 0 2.448-1.002 3.144-2.924l2.516-6.96h-1.49zM17.72 14.016c.003-2.275-1.069-3.399-2.809-3.399-2.087 0-3.159 1.529-3.159 3.646 0 2.2.962 3.647 3.298 3.647a4.866 4.866 0 002.463-.644v-1.053c-.765.455-1.462.722-2.212.722-1.432 0-2.115-.735-2.115-2.408h4.535v-.511zm-4.506-.424c.152-1.389.807-2.044 1.656-2.044.752 0 1.462.581 1.53 2.044h-3.186zm73.949 5.536l2.176-1.96 1.962 2.177-2.176 1.96zm-28.776-5.112c.003-2.275-1.07-3.399-2.808-3.399-2.09 0-3.16 1.529-3.16 3.646 0 2.2.96 3.647 3.297 3.647a4.864 4.864 0 002.46-.644v-1.053c-.762.455-1.459.722-2.21.722-1.431 0-2.116-.735-2.116-2.408h4.537v-.511zm-4.51-.424c.157-1.389.812-2.044 1.66-2.044.75 0 1.462.581 1.531 2.044h-3.19z"/><path d="M85.521 19.634l-2.835 2.615-4.788-5.329 1.331-1.171-3.352-3.754 1.34-1.173-3.403-3.75 5.31-4.78 1.686 1.846 2.847-2.54 1.682 1.743 1.122-1.005c-.25-.145-.501-.278-.756-.399A12.144 12.144 0 0080.36.7c-6.72 0-12.2 5.48-12.2 12.198 0 6.717 5.48 12.196 12.198 12.196a12.1 12.1 0 006.011-1.59c.585-.33 1.118-.689 1.605-1.066l-2.454-2.804zm-63.206-9.017c-.752 0-1.461.292-1.88.515V7.165l-1.448.347v9.715c.836.444 1.976.681 2.716.681 2.018 0 3.27-1.268 3.27-3.872 0-2.223-.932-3.419-2.658-3.419zm-.612 6.316c-.35 0-.834-.026-1.28-.22V12.16c.557-.307.962-.46 1.515-.46.933 0 1.575.573 1.575 2.337 0 2.255-.78 2.895-1.81 2.895zm27.127-6.319c-1.601 0-2.923.653-3.55 1.028v6.096h1.446v-5.51c.43-.251 1.142-.502 1.697-.502.715 0 1.256.195 1.256 1.294v4.72h1.446v-5.037c0-1.432-.627-2.086-2.295-2.09zM34.355 7.872l-2.975 7.78h-.07l-3.119-7.78H26.51v9.87h1.252v-6.99h.124l2.84 6.99h.89l2.839-7.158h.124v7.157h1.503V7.872zm6.43 2.745c-1.837 0-3.174 1.211-3.174 3.646 0 2.379 1.268 3.647 3.174 3.647 1.907 0 3.174-1.268 3.174-3.647 0-2.437-1.338-3.646-3.174-3.646zm0 6.316c-.988 0-1.713-.761-1.713-2.67 0-1.88.795-2.673 1.713-2.673.947 0 1.712.793 1.712 2.673 0 1.907-.724 2.67-1.712 2.67z"/></symbol><symbol id="ico-pay-yandex-money" viewBox="0 0 70 26"><path d="M67.136 14.087c-.089-.514-.521-.822-1.147-.828-.193-.003-.384.016-.572-.004-.37-.039-.466.084-.464.377.018 1.437.013 2.873.007 4.305-.004.752-.737 1.523-1.619 1.719-2.736.6-5.47 1.211-8.21 1.806a4.318 4.318 0 01-.946.099c-.136 0-.325-.104-.384-.205-.038-.067.082-.23.176-.314.125-.101.284-.182.446-.238.503-.18 1.013-.342 1.52-.51 2.033-.676 4.07-1.344 6.098-2.024.916-.31 1.41-.92 1.425-1.69.047-2.496.023-4.992.012-7.49 0-.396-.205-.726-.676-.897-.542-.195-1.018-.04-1.489.184a8351.405 8351.405 0 01-8.63 4.113c-.847.403-1.32.988-1.315 1.82.01 2.36.003 4.717.005 7.074 0 .118.013.238.05.35.283.803 1.018 1.262 2.033 1.262 2.024.006 4.055.003 6.08.003 2.018 0 4.03.003 6.048-.003.438 0 .842-.09 1.17-.36.426-.343.404-.778.404-1.212.004-2.299.004-4.595.001-6.898a2.259 2.259 0 00-.023-.44zm-8.416-.738c.204-.53.649-.86 1.328-.946.449-.057.84.22.904.626.097.624-.683 1.349-1.453 1.346-.643 0-1.002-.45-.779-1.026zM10.416 4.224v2.161H8.8V4.217h-.846v5.348h.872V7.171h1.597v2.397h.86V4.224h-.866zm21.514 14.72c-.255-1.27-1.221-2.043-2.763-2.17-.608-.046-1.227-.008-1.882-.008v-3.384h-1.32v9.41c.976 0 1.92.055 2.85-.016 1.394-.104 2.458-.658 2.956-1.795.29-.66.295-1.347.158-2.037zm-2.04 1.426c-.246 1.04-1.31 1.53-2.594 1.226 0-1.155-.006-2.29.01-3.429 0-.075.132-.198.227-.216 1.283-.272 2.141.155 2.364 1.226.08.385.082.807-.008 1.193zM5.891 1.341H4.495c-.657-.003-1.201.203-1.649.598-1.536 1.36-1.133 3.944.912 4.495a2557.31 2557.31 0 00-2.086 3.14c.292 0 .516-.016.735.004.29.026.44-.069.573-.284.512-.83 1.055-1.649 1.586-2.472.245-.378.275-.39.853-.278v3.003h.98v-7.8c0-.406-.002-.405-.508-.406zm-.5 4.34c-.666-.006-1.361.16-1.869-.34-.581-.57-.747-1.23-.532-1.954.018-.058.047-.112.07-.167.432-.995 1.003-1.271 2.332-1.106v3.568zM30.11 8.798c-1.453.484-2.454.046-2.717-1.218a3.46 3.46 0 01.15-1.954c.324-.873.965-1.133 2.033-.845.02.006.045-.004.082-.01.107-.132.216-.272.335-.42-.881-.58-2.09-.441-2.746.29-.508.563-.706 1.216-.77 1.901-.073.787.024 1.55.544 2.242.544.722 1.489 1.062 2.46.835.686-.162.762-.233.628-.821zM7.123 21.68v-8.295H2.168c-.069 1.408-.102 2.792-.214 4.175-.1 1.226-.37 2.429-.913 3.586-.179.382-.394.634-.941.542-.029-.004-.064.018-.1.032v3.043h1.48v-2.009h5.357v2.014h1.436V21.68h-1.15zm-1.606-.011H2.274c.277-.692.615-1.374.82-2.081.412-1.422.41-2.88.42-4.336.003-.224 0-.451 0-.697H5.52c-.002 2.353-.002 4.714-.002 7.114zM21.048 8.87c-.25.073-.492.16-.743.21-.702.143-1.203-.013-1.47-.455-.313-.517-.298-1.073-.28-1.654h2.649c.057-.87-.05-1.686-.601-2.428-.484-.651-1.323-.755-1.99-.22-.25.2-.46.456-.609.716a3.66 3.66 0 00-.473 2.294c.061.492.197.991.406 1.454.304.68 1.006 1.027 1.818.941a5.214 5.214 0 001.154-.28c.412-.143.423-.274.139-.578zm-2.053-3.922c.298-.37.791-.36 1.055.029.296.431.331.907.319 1.407h-1.845c.03-.523.129-1.007.471-1.436zm4.487 8.612c-.057-.07-.13-.175-.202-.178-.437-.018-.875-.011-1.358-.011v3.867H19.09v-3.86h-1.51v9.445h1.53v-.37c0-1.103-.002-2.199 0-3.3 0-.607 0-.607.725-.607h2.1v4.28h1.534c.007-.105.018-.194.018-.279v-8.872c0-.04.02-.09-.004-.115zm.844-7.245c.529-.607 1.034-1.227 1.547-1.842.063-.075.117-.154.205-.27-.166 0-.263.012-.354 0-.375-.051-.604.07-.808.339-.45.59-.95 1.155-1.431 1.728-.055.064-.123.12-.255.248v-2.3h-.836V9.44h.849c0-.62-.014-1.227.008-1.832.008-.208.104-.416.159-.624.162.1.232.189.294.282.436.655.867 1.31 1.308 1.962.057.086.156.203.25.215.248.032.504.011.812.011-.613-.933-1.185-1.814-1.77-2.692-.112-.164-.12-.283.022-.446zm20.101 7.037c-.246-.009-.357.061-.445.249-.592 1.305-1.2 2.604-1.803 3.905-.264.57-.538 1.139-.805 1.708-.026-.003-.046-.008-.072-.01v-5.83h-1.529v9.46h1.501c.954-2.061 1.908-4.13 2.87-6.217v6.211h1.727v-9.47c-.497 0-.97.014-1.444-.006zm-28.943 8.123c-.47.145-.893.31-1.339.402-1.449.297-2.396-.104-2.809-1.155-.319-.807-.307-1.64-.32-2.52h4.73c-.067-.733-.073-1.447-.206-2.138-.169-.866-.502-1.697-1.193-2.395-.612-.617-1.348-.796-2.267-.547-.953.258-1.535.858-1.926 1.568-1.147 2.084-1.246 4.231-.367 6.396.264.654.712 1.223 1.456 1.587 1.248.615 3.266.401 4.532-.484l-.291-.714zm-3.754-6.699c.223-.313.52-.57 1.018-.546.487.026.776.28.972.612.432.743.505 1.54.5 2.366h-3.25c.083-.875.236-1.694.76-2.432zm4.464-5.921V4.217h-2.796c0 .348.013.66-.001.973-.047 1.09-.086 2.18-.54 3.223-.113.257-.196.532-.63.475v1.683h.806V9.478h3.028v1.088h.762V8.88l-.63-.025zm-.883 0h-1.883c.817-1.264.706-2.623.765-3.98h1.118v3.98zm18.033 4.517c0 3.167 0 6.31.004 9.455h1.398v-8.504h4.26v-.95h-5.662z"/></symbol><symbol fill="none" id="ico-site-logo" viewBox="0 0 215 37"><g clip-path="url(#clip0)"><path d="M11.29 8.698c-.1 1.39-.615 2.484-1.543 3.282-.922.798-2.14 1.197-3.654 1.197-1.656 0-2.96-.555-3.911-1.667-.946-1.117-1.42-2.649-1.42-4.594v-.79c0-1.241.22-2.335.657-3.281.438-.946 1.061-1.67 1.871-2.173.816-.509 1.762-.763 2.839-.763 1.49 0 2.69.4 3.6 1.197.911.799 1.437 1.92 1.58 3.362H8.646c-.065-.834-.298-1.437-.7-1.81-.396-.378-1.003-.567-1.818-.567-.887 0-1.553.32-1.996.958-.438.632-.662 1.617-.674 2.953v.976c0 1.395.21 2.415.63 3.06.425.644 1.093.966 2.004.966.822 0 1.434-.186 1.836-.558.408-.379.641-.961.7-1.748h2.661zm9.517-1.294h-5.109v3.459h5.996V13h-8.656V.087h8.638v2.155h-5.978v3.077h5.109v2.085zM26.732.087l3.317 9.365L33.348.087h3.494V13h-2.67V9.47l.267-6.093L30.953 13h-1.827L25.65 3.386l.267 6.084V13h-2.661V.087h3.477zM46.616 10.34h-4.665L41.064 13h-2.83L43.043.087h2.465L50.341 13h-2.83l-.895-2.66zM42.67 8.183h3.229L44.275 3.35l-1.606 4.834zM62.057 13h-2.66V7.466h-5.189V13h-2.66V.087h2.66v5.232h5.189V.087h2.66V13zM73.844 2.242H69.89V13h-2.661V2.242h-3.902V.087h10.518v2.155zM83.113.087h2.67V13h-2.67V4.424L77.942 13h-2.66V.087h2.66V8.68l5.17-8.594zm15.033 0V13h-2.67V8.104a12.22 12.22 0 01-2.536.257c-1.638 0-2.883-.357-3.734-1.073-.846-.715-1.28-1.75-1.304-3.104V.087h2.67V4.13c.005.739.183 1.271.532 1.596.355.326.966.488 1.836.488.88 0 1.726-.086 2.536-.257V.087h2.67zm10.093 7.317h-5.109v3.459h5.996V13h-8.656V.087h8.638v2.155h-5.978v3.077h5.109v2.085zm12.585 1.294c-.1 1.39-.615 2.484-1.543 3.282-.922.798-2.14 1.197-3.654 1.197-1.656 0-2.959-.555-3.911-1.667-.946-1.117-1.419-2.649-1.419-4.594v-.79c0-1.241.218-2.335.656-3.281.437-.946 1.061-1.67 1.871-2.173.816-.509 1.762-.763 2.838-.763 1.49 0 2.691.4 3.601 1.197.911.799 1.437 1.92 1.579 3.362h-2.661c-.065-.834-.298-1.437-.7-1.81-.397-.378-1.003-.567-1.819-.567-.887 0-1.552.32-1.995.958-.438.632-.662 1.617-.674 2.953v.976c0 1.395.21 2.415.63 3.06.425.644 1.093.966 2.004.966.822 0 1.434-.186 1.836-.558.408-.379.641-.961.701-1.748h2.66zm5.96-.975h-1.534V13h-2.661V.087h2.661v5.17h1.215l3.157-5.17h3.247l-3.983 6.11L133.285 13h-3.175l-3.326-5.277zm17.854-.887c0 1.271-.225 2.386-.674 3.344-.45.957-1.094 1.697-1.934 2.217-.833.52-1.791.78-2.873.78-1.07 0-2.025-.257-2.865-.771-.84-.515-1.49-1.248-1.951-2.2-.461-.958-.695-2.057-.701-3.3v-.638c0-1.27.228-2.388.683-3.352.461-.97 1.109-1.712 1.942-2.226.84-.52 1.798-.78 2.874-.78s2.031.26 2.865.78c.839.514 1.487 1.256 1.942 2.226.461.964.692 2.078.692 3.343v.577zm-2.696-.585c0-1.354-.243-2.383-.728-3.087-.484-.703-1.176-1.055-2.075-1.055-.893 0-1.582.349-2.066 1.046-.485.692-.731 1.709-.737 3.051v.63c0 1.318.243 2.341.728 3.069.484.727 1.182 1.09 2.093 1.09.893 0 1.578-.348 2.057-1.046.479-.704.722-1.727.728-3.069v-.63zm12.399 1.153h-5.109v3.459h5.996V13h-8.657V.087h8.639v2.155h-5.978v3.077h5.109v2.085zM167.281 13V8.344h-2.164L162.784 13h-2.873l2.758-5.508c-1.331-.733-1.996-1.871-1.996-3.414 0-1.266.414-2.244 1.242-2.936.828-.692 1.984-1.044 3.468-1.055h4.567V13h-2.669zm-3.947-8.727c0 .721.174 1.244.523 1.57.355.325.884.487 1.588.487h1.836V2.242h-1.836c-1.407 0-2.111.677-2.111 2.03zm20.789 11.902h-2.456V13h-7.788v3.166h-2.518l-.142-5.303h.975c.527-.438.932-1.08 1.215-1.925.29-.852.485-1.904.586-3.157l.372-5.694h8.461v10.776h1.508l-.213 5.312zm-8.878-5.313h4.923v-8.62h-3.273l-.222 3.397c-.177 2.276-.653 4.017-1.428 5.224zm13.153-2.412V13h-2.661V.087h5.038c.97 0 1.821.177 2.554.532.74.354 1.307.86 1.703 1.516.397.65.595 1.393.595 2.226 0 1.266-.435 2.265-1.304 2.998-.863.727-2.061 1.091-3.592 1.091h-2.333zm0-2.155h2.377c.704 0 1.239-.166 1.605-.497.373-.33.559-.804.559-1.419 0-.632-.186-1.144-.559-1.534-.372-.39-.886-.591-1.543-.603h-2.439v4.053zm19.672.541c0 1.271-.225 2.386-.674 3.344-.449.957-1.094 1.697-1.934 2.217-.833.52-1.791.78-2.873.78-1.07 0-2.025-.257-2.865-.771-.839-.515-1.49-1.248-1.951-2.2-.461-.958-.695-2.057-.701-3.3v-.638c0-1.27.228-2.388.683-3.352.461-.97 1.109-1.712 1.943-2.226.839-.52 1.797-.78 2.873-.78 1.076 0 2.031.26 2.865.78.839.514 1.487 1.256 1.942 2.226.461.964.692 2.078.692 3.343v.577zm-2.696-.585c0-1.354-.243-2.383-.728-3.087-.484-.703-1.176-1.055-2.075-1.055-.893 0-1.582.349-2.066 1.046-.485.692-.731 1.709-.737 3.051v.63c0 1.318.243 2.341.728 3.069.485.727 1.182 1.09 2.093 1.09.893 0 1.579-.348 2.057-1.046.479-.704.722-1.727.728-3.069v-.63z" fill="#000"/><path d="M9.284 29.946c0 1.003-.177 1.883-.532 2.64-.354.756-.863 1.34-1.526 1.75-.658.41-1.415.616-2.269.616-.845 0-1.599-.203-2.261-.61-.663-.405-1.177-.984-1.54-1.736-.365-.756-.55-1.624-.554-2.604v-.505c0-1.003.18-1.885.54-2.646.363-.766.874-1.352 1.533-1.758.662-.41 1.419-.616 2.268-.616.85 0 1.604.206 2.262.616.663.406 1.174.992 1.533 1.758.364.76.546 1.64.546 2.64v.455zm-2.128-.463c0-1.068-.192-1.88-.574-2.436-.383-.556-.93-.833-1.639-.833-.705 0-1.248.275-1.631.826-.383.546-.577 1.349-.581 2.409v.497c0 1.04.191 1.848.574 2.422.383.575.933.862 1.652.862.705 0 1.247-.276 1.625-.827.378-.555.57-1.363.574-2.422v-.498zm10.727-3.164H14.76v8.493h-2.1v-8.493H9.578v-1.702h8.304v1.702zm12.659 8.493h-2.107v-8.493h-4.082v8.493h-2.1V24.617h8.29v10.195zm7.605-2.101h-3.683l-.7 2.101H31.53l3.795-10.195h1.946l3.816 10.195h-2.233l-.707-2.1zM35.03 31.01h2.548l-1.281-3.816-1.267 3.816zm7.01 3.802V24.617h3.57c1.238 0 2.176.238 2.815.714.64.472.96 1.165.96 2.08 0 .5-.129.94-.386 1.323a2.23 2.23 0 01-1.07.833c.522.131.933.395 1.232.792.303.396.455.882.455 1.456 0 .98-.313 1.723-.938 2.227-.626.504-1.518.76-2.675.77H42.04zm2.1-4.44v2.752h1.8c.495 0 .88-.116 1.155-.35.28-.238.42-.564.42-.98 0-.933-.483-1.407-1.45-1.421H44.14zm0-1.484h1.555c1.06-.018 1.59-.44 1.59-1.267 0-.462-.136-.794-.407-.994-.266-.206-.689-.308-1.267-.308h-1.47v2.57zm15.349-4.271v10.195H57.38v-8.493h-2.717l-.168 3.599c-.07 1.213-.224 2.17-.462 2.87-.238.696-.586 1.207-1.043 1.534-.458.322-1.083.485-1.877.49h-.546v-1.688l.35-.035c.528-.07.903-.373 1.127-.91.23-.541.374-1.503.434-2.885l.176-4.677h6.834zm5.657 4.817l1.856-4.817h2.268l-3.564 8.41-.287.553c-.527.92-1.335 1.379-2.422 1.379l-.736-.028-.02-1.687c.111.018.293.028.545.028.294 0 .53-.052.708-.154.182-.103.333-.292.455-.568l.259-.665-3.578-7.268h2.261l2.255 4.817zm5.147-4.817h2.1v8.507h4.082v-8.507h2.108v8.507h1.393l-.14 4.146h-1.96v-2.458h-7.584V24.617zm14.297 6.029h-1.21v4.166h-2.102V24.617h2.101V28.7h.96l2.492-4.082h2.563l-3.144 4.825 3.473 5.37h-2.507l-2.625-4.166zm14.095-.7c0 1.003-.177 1.883-.532 2.64-.355.756-.863 1.34-1.526 1.75-.658.41-1.415.616-2.269.616-.845 0-1.599-.203-2.261-.61-.663-.405-1.177-.984-1.54-1.736-.365-.756-.55-1.624-.554-2.604v-.505c0-1.003.18-1.885.54-2.646.363-.766.874-1.352 1.533-1.758.662-.41 1.419-.616 2.268-.616.85 0 1.604.206 2.262.616.663.406 1.174.992 1.533 1.758.364.76.546 1.64.546 2.64v.455zm-2.128-.463c0-1.068-.192-1.88-.574-2.436-.383-.556-.93-.833-1.639-.833-.705 0-1.248.275-1.631.826-.383.546-.577 1.349-.581 2.409v.497c0 1.04.191 1.848.574 2.422.382.575.933.862 1.652.862.705 0 1.246-.276 1.625-.827.378-.555.57-1.363.574-2.422v-.498zm10.342-3.164h-4.573v8.493h-2.1V24.617h6.673v1.702zm9.207 3.627c0 1.003-.177 1.883-.532 2.64-.355.756-.863 1.34-1.526 1.75-.658.41-1.415.616-2.269.616-.845 0-1.599-.203-2.262-.61-.662-.405-1.176-.984-1.54-1.736-.364-.756-.548-1.624-.553-2.604v-.505c0-1.003.18-1.885.539-2.646.364-.766.875-1.352 1.533-1.758.663-.41 1.419-.616 2.269-.616.85 0 1.604.206 2.262.616.663.406 1.174.992 1.533 1.758.364.76.546 1.64.546 2.64v.455zm-2.128-.463c0-1.068-.192-1.88-.574-2.436-.383-.556-.929-.833-1.639-.833-.705 0-1.249.275-1.631.826-.383.546-.577 1.349-.582 2.409v.497c0 1.04.192 1.848.575 2.422.382.575.933.862 1.652.862.705 0 1.246-.276 1.625-.827.378-.555.569-1.363.574-2.422v-.498zm12.981 3.228h-3.683l-.7 2.101h-2.234l3.796-10.195h1.946l3.816 10.195h-2.234l-.707-2.1zm-3.116-1.701h2.549l-1.281-3.816-1.268 3.816zm15.426-6.393v10.195h-2.108v-8.493h-2.717l-.168 3.599c-.07 1.213-.224 2.17-.462 2.87-.238.696-.586 1.207-1.043 1.534-.458.322-1.083.485-1.877.49h-.546v-1.688l.35-.035c.528-.07.904-.373 1.128-.91.228-.541.373-1.503.434-2.885l.175-4.677h6.834zm7.968 5.777h-4.033v2.73h4.733v1.688h-6.834V24.617h6.82v1.702h-4.719v2.43h4.033v1.645zm5.258.252h-1.211v4.166h-2.101V24.617h2.101V28.7h.959l2.493-4.082h2.563l-3.144 4.825 3.473 5.37h-2.507l-2.626-4.166zm13.724.77c-.079 1.097-.485 1.96-1.218 2.59-.728.631-1.69.946-2.885.946-1.307 0-2.336-.439-3.088-1.316-.747-.883-1.12-2.092-1.12-3.627v-.623c0-.98.173-1.844.518-2.591.346-.747.838-1.319 1.477-1.716.645-.401 1.392-.602 2.241-.602 1.176 0 2.124.315 2.843.945.719.63 1.134 1.515 1.246 2.654h-2.1c-.052-.658-.236-1.134-.553-1.428-.313-.299-.792-.448-1.436-.448-.7 0-1.225.252-1.575.756-.346.5-.523 1.277-.532 2.332v.77c0 1.101.165 1.907.497 2.415.336.51.863.764 1.582.764.649 0 1.132-.148 1.45-.442.322-.298.506-.758.553-1.379h2.1zm7.135 1.295h-3.683l-.7 2.101h-2.234l3.795-10.195h1.947l3.816 10.195h-2.234l-.707-2.1zm-3.116-1.701h2.549l-1.281-3.816-1.268 3.816zm15.307 3.802h-2.101v-4.37h-4.096v4.37h-2.101V24.617h2.101v4.131h4.096v-4.13h2.101v10.194zm11.448 2.507h-1.94v-2.507h-6.147v2.5h-1.989l-.112-4.188h.77c.416-.345.735-.851.959-1.519.229-.672.383-1.503.463-2.493l.294-4.495h6.68v8.507h1.19l-.168 4.195zm-7.009-4.195h3.886V26.32h-2.584l-.175 2.68c-.14 1.797-.516 3.172-1.127 4.124zm10.384-1.904v3.592h-2.101V24.617h3.977c.766 0 1.438.14 2.017.42a3.09 3.09 0 011.344 1.198c.313.513.469 1.099.469 1.757 0 .999-.343 1.788-1.029 2.367-.681.574-1.627.861-2.836.861h-1.841zm0-1.701h1.876c.556 0 .978-.131 1.268-.393.294-.261.441-.634.441-1.12 0-.5-.147-.903-.441-1.211-.294-.308-.701-.467-1.219-.476h-1.925v3.2zm11.665 3.192h-3.683l-.7 2.101h-2.234l3.795-10.195h1.947l3.816 10.195h-2.234l-.707-2.1zm-3.116-1.701h2.549l-1.281-3.816-1.268 3.816z" fill="#5864FF"/></g><defs><clipPath id="clip0"><path fill="#fff" d="M0 0h215v37H0z"/></clipPath></defs></symbol><symbol id="ico-youtube" viewBox="0 0 52 49"><g fill-rule="nonzero" fill="none"><path d="M5.2 38.131h41.6c2.86 0 5.2-2.34 5.2-5.2V5.235c0-2.86-2.34-5.2-5.2-5.2H5.2c-2.86 0-5.2 2.34-5.2 5.2v27.696c0 2.86 2.34 5.2 5.2 5.2zM18.955 8.689l18.003 10.395-18.003 10.394V8.689z" fill="#DB2B42"/><path fill="#FFF" d="M18.955 8.69v20.788l18.003-10.394z"/><path d="M36.17 1.086c0-.355.068-.692.165-1.016H0v2.032h36.335a3.506 3.506 0 01-.165-1.016zm6.936 1.016H52V.07h-8.894c.098.324.165.66.165 1.016 0 .355-.068.691-.165 1.016z" transform="translate(0 44.078)" fill="#2D2D2D"/><path d="M36.335 46.18a3.54 3.54 0 003.386 2.535 3.54 3.54 0 003.385-2.535c.098-.325.166-.66.166-1.016a3.53 3.53 0 00-.165-1.016 3.54 3.54 0 00-3.386-2.535 3.539 3.539 0 00-3.385 2.535c-.098.324-.165.66-.165 1.016 0 .355.066.691.164 1.016z" fill="#DB2B42"/></g></symbol></svg>